<svg id="Laag_1" data-name="Laag 1" xmlns="http://www.w3.org/2000/svg" xmlns:xlink="http://www.w3.org/1999/xlink" viewBox="0 0 777.91 570.69"><defs><style>.cls-1{fill:url(#Naamloos_verloop_61);}.cls-2{fill:#f0f;}.cls-3{fill:red;}</style><linearGradient id="Naamloos_verloop_61" x1="489.9" y1="512.44" x2="254.65" y2="9.36" gradientTransform="translate(162.25 -116.34) rotate(25.06)" gradientUnits="userSpaceOnUse"><stop offset="0.02" stop-color="#ff0"/><stop offset="0.3" stop-color="lime"/><stop offset="0.33" stop-color="#19ff19"/><stop offset="0.4" stop-color="#4fff4f"/><stop offset="0.48" stop-color="#7eff7e"/><stop offset="0.56" stop-color="#a6ffa6"/><stop offset="0.64" stop-color="#c6ffc6"/><stop offset="0.72" stop-color="#dfffdf"/><stop offset="0.81" stop-color="#f1fff1"/><stop offset="0.9" stop-color="#fcfffc"/><stop offset="1" stop-color="#fff"/></linearGradient></defs><path class="cls-1" d="M0,0V553.84l52.94-8.43L92,553.07l32.94-6.89,43.66-1.53H304.17l65.12,10.49,221.35-9,52.85,9.19,21.48-6,112.94,4.42V0ZM490.33,255.13H273.48V233.54H490.33Zm0-125.68H415.7l52.9,52.89-15.26,15.29-55.45-55.44v78.33H376.31V144l-52.72,52.71L308.3,181.4l52-52H287.58V107.86h76L310,54.25,325.21,39l51.1,51.09V17.76h21.58V91.81L451.69,38l15.25,15.26-54.58,54.58h78ZM759.84,493.64a25.44,25.44,0,0,1-25.44,25.45H568.8a25.44,25.44,0,0,1-25.44-25.45V399.56a25.44,25.44,0,0,1,25.44-25.44H734.4a25.44,25.44,0,0,1,25.44,25.44ZM217.7,477.55,21.26,385.7l9.15-19.56L226.84,458Z"/><circle class="cls-2" cx="386.8" cy="428.66" r="100.26"/><path class="cls-3" d="M491.37,428.66A100.26,100.26,0,0,0,391.11,328.39V528.92A100.26,100.26,0,0,0,491.37,428.66Z"/><path d="M25.54,492.22V470.31H29.9l5.19,15.51c.47,1.45.82,2.53,1,3.25.25-.8.64-2,1.17-3.52l5.24-15.24h3.9v21.91H43.65V473.88l-6.37,18.34H34.67l-6.34-18.65v18.65Z"/><path d="M51.61,492.22V470.31h2.9v21.91Z"/><path d="M59.5,492.22V470.31h2.9v10.87l10.88-10.87h3.93L68,479.19l9.59,13H73.79L66,481.13l-3.59,3.5v7.59Z"/><path d="M77.63,492.22,86,470.31h3.13l9,21.91h-3.3l-2.56-6.64H83.11l-2.4,6.64Zm6.32-9h7.43l-2.29-6.06c-.7-1.85-1.21-3.36-1.55-4.55a29.12,29.12,0,0,1-1.18,4.19Z"/><path d="M97.34,523.43l2.73-.23a6.07,6.07,0,0,0,.9,2.69,5,5,0,0,0,2.21,1.71,8.42,8.42,0,0,0,3.36.65,8,8,0,0,0,2.93-.5,4,4,0,0,0,1.89-1.35,3.15,3.15,0,0,0,.62-1.87,2.88,2.88,0,0,0-.6-1.81,4.44,4.44,0,0,0-2-1.29c-.59-.23-1.89-.58-3.9-1.07a19.86,19.86,0,0,1-4.23-1.36,5.92,5.92,0,0,1-2.34-2,5,5,0,0,1-.77-2.73,5.61,5.61,0,0,1,.94-3.1,5.89,5.89,0,0,1,2.75-2.19,10.43,10.43,0,0,1,4-.75,10.85,10.85,0,0,1,4.3.79,6.17,6.17,0,0,1,2.86,2.31,6.58,6.58,0,0,1,1.08,3.45l-2.78.21a4.5,4.5,0,0,0-1.52-3.14,5.88,5.88,0,0,0-3.82-1.06,6.14,6.14,0,0,0-3.83,1A2.89,2.89,0,0,0,101,514a2.5,2.5,0,0,0,.85,2c.56.51,2,1,4.37,1.56a28.41,28.41,0,0,1,4.85,1.4,6.7,6.7,0,0,1,2.82,2.23,5.42,5.42,0,0,1,.91,3.12,5.93,5.93,0,0,1-1,3.29A6.59,6.59,0,0,1,110.9,530a10.07,10.07,0,0,1-4.22.86,12.57,12.57,0,0,1-5-.87,7,7,0,0,1-3.15-2.61A7.4,7.4,0,0,1,97.34,523.43Z"/><path d="M134.37,522.79l2.89.73A9.69,9.69,0,0,1,134,529a9,9,0,0,1-5.79,1.88,10.34,10.34,0,0,1-5.76-1.45,9,9,0,0,1-3.37-4.17,14.8,14.8,0,0,1-1.16-5.88,12.84,12.84,0,0,1,1.31-6,9,9,0,0,1,3.72-3.87,10.89,10.89,0,0,1,5.31-1.32,9,9,0,0,1,5.53,1.68,8.69,8.69,0,0,1,3.12,4.7l-2.85.68a6.78,6.78,0,0,0-2.22-3.49,5.92,5.92,0,0,0-3.64-1.09,7.11,7.11,0,0,0-4.22,1.21,6.43,6.43,0,0,0-2.39,3.25,13.07,13.07,0,0,0-.68,4.21,13.45,13.45,0,0,0,.81,4.88,6,6,0,0,0,2.53,3.11,7.11,7.11,0,0,0,3.72,1,6.23,6.23,0,0,0,4.13-1.41A7.19,7.19,0,0,0,134.37,522.79Z"/><path d="M140.93,530.47v-21.9h2.89v9h11.39v-9h2.9v21.9h-2.9V520.15H143.82v10.32Z"/><path d="M160.53,530.47l8.41-21.9h3.13l9,21.9h-3.3l-2.56-6.63H166l-2.4,6.63Zm6.32-9h7.43L172,515.41c-.7-1.84-1.21-3.35-1.55-4.54a27.77,27.77,0,0,1-1.18,4.18Z"/><path d="M183.23,530.47v-21.9h2.9v19.32h10.79v2.58Z"/><path d="M200.25,530.47v-21.9h2.9v10.86L214,508.57H218l-9.19,8.87,9.59,13h-3.83l-7.8-11.09-3.58,3.5v7.59Z"/><path d="M219.79,523.43l2.74-.23a6.07,6.07,0,0,0,.9,2.69,5,5,0,0,0,2.21,1.71,8.39,8.39,0,0,0,3.36.65,8,8,0,0,0,2.93-.5,4,4,0,0,0,1.89-1.35,3.15,3.15,0,0,0,.62-1.87,2.88,2.88,0,0,0-.6-1.81,4.5,4.5,0,0,0-2-1.29c-.59-.23-1.89-.58-3.9-1.07a19.86,19.86,0,0,1-4.23-1.36,5.92,5.92,0,0,1-2.34-2,5,5,0,0,1-.77-2.73,5.61,5.61,0,0,1,.94-3.1,5.89,5.89,0,0,1,2.75-2.19,10.43,10.43,0,0,1,4-.75,10.85,10.85,0,0,1,4.3.79,6.17,6.17,0,0,1,2.86,2.31,6.58,6.58,0,0,1,1.08,3.45l-2.78.21a4.5,4.5,0,0,0-1.52-3.14,5.88,5.88,0,0,0-3.82-1.06,6.14,6.14,0,0,0-3.83,1,2.89,2.89,0,0,0-1.2,2.32,2.5,2.5,0,0,0,.85,2c.55.51,2,1,4.37,1.56a28.41,28.41,0,0,1,4.85,1.4,6.7,6.7,0,0,1,2.82,2.23,5.42,5.42,0,0,1,.91,3.12,5.93,5.93,0,0,1-1,3.29,6.59,6.59,0,0,1-2.87,2.41,10.12,10.12,0,0,1-4.23.86,12.55,12.55,0,0,1-5-.87,7,7,0,0,1-3.15-2.61A7.5,7.5,0,0,1,219.79,523.43Z"/><path d="M115.55,40.57V32.71q0-8.89,1.37-11.75t5.63-2.85c2.67,0,4.46,1,5.35,3s1.35,5.87,1.35,11.69v7.81q0,8.06-1.45,11c-1,2-2.78,2.94-5.43,2.94s-4.51-.94-5.44-2.83S115.55,46.1,115.55,40.57Zm5.19-7.73V39.4q0,5.15,1.71,5.15t1.6-5.2V32.61l0-1.53L124,30c-.06-1.48-.59-2.22-1.57-2.22S120.74,29.48,120.74,32.84Z"/><path d="M149.69,18.67v9H148V54h-5.4l-5.95-27.87V44.52h2V54H131.5V44.52h1.75V27.69H131.5v-9h7.8l5.3,24.66V27.69h-2v-9Z"/><path d="M63,89.66c.19,2,.28,3.67.28,5.07q0,8.35-4,8.35-3.81,0-3.81-8.69l0-2.32,0-2.35q0-3.18-3.05-3.18l-.46,0v6.83h1.86v9.43H45.35V93.39h1.76V76.56H45.35v-9h8q4.37,0,5.84,1.87t1.47,7.43c0,4.5-1.36,7.08-4.11,7.73-.13,0-.33.08-.59.13q3.51.6,3.69,3.18l.14,2.43.1,1.94c.05,1,.33,1.47.83,1.47.7,0,1.06-1.16,1.06-3.49v-.57Zm-11-6.59h.56c2.2,0,3.31-1,3.31-3,0-2.32-1.07-3.49-3.21-3.49l-.66,0Z"/><path d="M78.64,67.54V81.65H74.56V76.56H71.09v6.33h4.32v3.62H71.09v6.88h3.47V88.24H79v14.58H64.45V93.39h1.7V76.56h-1.7v-9Z"/><path d="M81,67.54h6.67q5.3,0,6.86,2.32t1.55,10.29v8.12c0,6.25-.51,10.24-1.49,12s-3.3,2.58-6.92,2.58H81V93.39h1.74V76.56H81Zm6.67,9V93.39l.75,0c1.1,0,1.79-.24,2.06-.71A10,10,0,0,0,90.86,89V81.86a13.65,13.65,0,0,0-.41-4.45c-.27-.57-1-.85-2.11-.85Z"/><path d="M122.71,93.39v9.43h-8.56V93.39h1.71V76.56h-1.71v-9h7.06q4.55,0,6.07,2.17c1,1.45,1.53,4.32,1.53,8.63,0,3.76-.45,6.24-1.36,7.46s-2.75,1.82-5.54,1.82h-1.12v5.77Zm-1.92-16.83v7.18h1.07c1.46,0,2.19-1.13,2.19-3.41q0-3.77-2.56-3.77Z"/><path d="M145.33,67.54v9h-1.79V93.41l0,2.72-.24,2.63q-.87,4.63-5.65,4.63-6,0-6-7.7V76.56h-1.73v-9h7.86v9h-1.19V88.47c0,3.3.51,4.94,1.52,4.94s1.74-1.7,1.74-5.12V76.56h-1.14v-9Z"/><path d="M164.69,89.66c.19,2,.28,3.67.28,5.07q0,8.35-4,8.35-3.8,0-3.8-8.69l0-2.32,0-2.35q0-3.18-3.05-3.18l-.46,0v6.83h1.86v9.43H147V93.39h1.76V76.56H147v-9h8c2.91,0,4.86.62,5.83,1.87s1.48,3.73,1.48,7.43q0,6.75-4.11,7.73l-.59.13q3.51.6,3.69,3.18l.13,2.43.1,1.94c0,1,.33,1.47.83,1.47.71,0,1.06-1.16,1.06-3.49v-.57Zm-11-6.59h.56c2.21,0,3.31-1,3.31-3,0-2.32-1.07-3.49-3.21-3.49l-.66,0Z"/><path d="M178.64,67.54V80h-4.7l-.08-.93c-.1-1.6-.55-2.4-1.34-2.4-1,0-1.45.61-1.45,1.83,0,1.4.84,2.61,2.51,3.65,2.63,1.65,4.31,3.16,5,4.53s1.08,3.77,1.08,7.2q0,9.54-4.86,9.54-2.61,0-4.19-3.08v2.51h-4.42V89.41h4.42v.51c0,2.33.61,3.49,1.83,3.49s1.71-.82,1.71-2.45a4.38,4.38,0,0,0-1.94-3.86l-2.58-1.78q-3.89-2.66-3.88-8.76,0-9.61,4.73-9.62,2.35,0,3.72,3.08V67.54Z"/><path d="M195.39,67.54V81.65h-4.08V76.56h-3.46v6.33h4.31v3.62h-4.31v6.88h3.46V88.24h4.42v14.58H181.2V93.39h1.71V76.56H181.2v-9Z"/><path d="M210.26,67.54V80h-4.71l-.07-.93q-.16-2.4-1.35-2.4c-1,0-1.44.61-1.44,1.83,0,1.4.83,2.61,2.5,3.65q3.94,2.47,5,4.53t1.07,7.2q0,9.54-4.86,9.54-2.61,0-4.19-3.08v2.51h-4.41V89.41h4.41v.51c0,2.33.61,3.49,1.84,3.49s1.71-.82,1.71-2.45a4.38,4.38,0,0,0-1.94-3.86l-2.59-1.78q-3.87-2.66-3.88-8.76,0-9.61,4.73-9.62,2.35,0,3.73,3.08V67.54Z"/><path d="M218.58,95.4v5.3q0,7.86-4.93,8.3v-2.85c1.18-.49,1.78-1.61,1.78-3.33h-1.78V95.4Z"/><path d="M48.06,116.4v9H46.51L42.56,136v6.23h1.72v9.43H35.73v-9.43h1.89V136l-4.34-10.6H31.93v-9h7.86v9H38.45l1.88,6.08,2.23-6.08H40.93v-9Z"/><path d="M63.67,116.4v14.12H59.59v-5.1H56.13v6.34h4.31v3.61H56.13v6.88h3.46v-5.14H64v14.57H49.48v-9.43h1.71V125.42H49.48v-9Z"/><path d="M80.6,135.37v16.31H66v-9.43h1.75V125.42H66v-9h8.55v9H72.72v16.83h3.46v-6.88Z"/><path d="M96.84,135.37v16.31H82.26v-9.43H84V125.42H82.26v-9h8.56v9H89v16.83h3.46v-6.88Z"/><path d="M98.64,138.3v-7.86q0-8.89,1.38-11.75c.91-1.9,2.79-2.86,5.63-2.86q4,0,5.35,3c.89,2,1.35,5.88,1.35,11.7v7.81q0,8.05-1.45,11t-5.43,2.94q-4.06,0-5.44-2.83T98.64,138.3Zm5.2-7.73v6.56q0,5.15,1.71,5.15c1.06,0,1.6-1.74,1.6-5.2v-6.75l-.05-1.52,0-1.06c-.07-1.48-.59-2.22-1.57-2.22S103.84,127.21,103.84,130.57Z"/><path d="M136.64,116.4v9H135l-3.41,26.26h-4.39L125.5,137l-1.83,14.68h-4.48l-3.54-26.26H114v-9h7.49v9h-1.13l1.63,14.06,1.73-14.06h-1.24v-9h7.13v9h-1.21L130,139.07l1.6-13.65h-1.19v-9Z"/><path d="M166.44,116.4v12.44h-4.7l-.08-.94c-.1-1.6-.55-2.4-1.34-2.4-1,0-1.45.61-1.45,1.84,0,1.39.84,2.61,2.51,3.64,2.64,1.65,4.31,3.17,5,4.54s1.08,3.77,1.08,7.2q0,9.53-4.86,9.53-2.61,0-4.19-3.07v2.5H154V138.27h4.42v.52c0,2.32.62,3.49,1.83,3.49s1.71-.82,1.71-2.46A4.35,4.35,0,0,0,160,136l-2.58-1.78c-2.59-1.78-3.87-4.7-3.87-8.77q0-9.61,4.72-9.61,2.35,0,3.72,3.07V116.4Z"/><path d="M169.16,138.3v-7.86q0-8.89,1.37-11.75c.91-1.9,2.79-2.86,5.63-2.86,2.67,0,4.46,1,5.35,3s1.35,5.88,1.35,11.7v7.81q0,8.05-1.45,11c-1,2-2.77,2.94-5.43,2.94s-4.52-.94-5.44-2.83S169.16,143.83,169.16,138.3Zm5.2-7.73v6.56c0,3.43.56,5.15,1.7,5.15s1.61-1.74,1.61-5.2v-6.75l-.06-1.52,0-1.06c-.08-1.48-.6-2.22-1.58-2.22S174.36,127.21,174.36,130.57Z"/><path d="M194.08,118.42v-2h4.41v14.12h-4.41v-.65c0-2.9-.59-4.34-1.76-4.34-.81,0-1.31.47-1.48,1.43a63.58,63.58,0,0,0-.27,8c0,4.84.58,7.27,1.75,7.27s1.63-1.35,1.63-4v-2.79h4.85c.18,1.88.27,3.78.27,5.69,0,7.41-2.25,11.11-6.72,11.11q-4.59,0-5.83-3.18t-1.26-14.7q0-11.18,1.07-14.85t4.26-3.69A3.7,3.7,0,0,1,194.08,118.42Z"/><path d="M217.06,116.4v9h-1.9l-3.3,5.56,4.29,11.27h1.42v9.43h-7.65v-9.43h1.37l-2.66-7-1.22,2.48v4.55h1.22v9.43h-7.86v-9.43h1.71V125.42h-1.71v-9h7.86v9h-1.22v6.52l4.14-6.52h-1.63v-9Z"/><path d="M231.72,116.4v12.44H227l-.07-.94q-.16-2.4-1.35-2.4c-1,0-1.45.61-1.45,1.84,0,1.39.84,2.61,2.51,3.64,2.63,1.65,4.31,3.17,5,4.54s1.07,3.77,1.07,7.2q0,9.53-4.86,9.53-2.61,0-4.19-3.07v2.5h-4.42V138.27h4.42v.52c0,2.32.61,3.49,1.84,3.49s1.71-.82,1.71-2.46A4.38,4.38,0,0,0,225.3,136l-2.58-1.78q-3.87-2.67-3.88-8.77,0-9.61,4.73-9.61,2.35,0,3.72,3.07V116.4Z"/><path d="M143.12,175.68v5.64h-1.57a34.48,34.48,0,0,1-3.49,10.13l-.38.75c1.51,3.57,3.33,5.61,5.44,6.13v2.22h-7.51l-1.11-3c-1.67,2.4-3.5,3.6-5.46,3.6q-7.16,0-7.16-11.07,0-8,4.78-10.88l.52-.31a2.58,2.58,0,0,1,.31-.23l-.77-2.12a12.77,12.77,0,0,1-.83-4.39q0-7.43,6-7.42c3.75,0,5.63,2.07,5.63,6.23q0,4.8-5,8.5l3.41,8.89a19.85,19.85,0,0,0,2.53-7h-1.14v-5.64ZM132.58,192.3l-3.69-10a6.82,6.82,0,0,0-2.25,5.25q0,5.92,3.43,5.92A3.2,3.2,0,0,0,132.58,192.3Zm-1.37-15.74a4,4,0,0,0,1.92-3.13c0-1.11-.49-1.68-1.45-1.68s-1.38.55-1.38,1.63A9.71,9.71,0,0,0,131.21,176.56Z"/><path d="M100.05,214.13h6.67c3.31,0,5.48.6,6.52,1.78s1.57,3.69,1.57,7.5q0,4.22-.84,5.7c-.56,1-1.73,1.66-3.5,2q3.06.85,3.85,2.27c.53.93.8,2.94.8,6q0,6.06-1.57,8t-6.31,2h-7.19V240h1.73V223.15h-1.73Zm6.67,9v6.13h.93c1.36,0,2-1,2-3.1s-.72-3-2.17-3Zm0,10V240h.8q2.48,0,2.48-3.72c0-2.07-.84-3.11-2.51-3.11Z"/><path d="M117.32,236v-7.85q0-8.89,1.37-11.75t5.63-2.86c2.68,0,4.46,1,5.36,3s1.34,5.87,1.34,11.7V236q0,8.07-1.45,11c-1,2-2.77,2.94-5.43,2.94s-4.52-.94-5.44-2.83S117.32,241.56,117.32,236Zm5.2-7.72v6.56c0,3.43.56,5.14,1.7,5.14s1.61-1.73,1.61-5.19v-6.75l-.06-1.52,0-1.06c-.07-1.48-.6-2.22-1.58-2.22S122.52,224.94,122.52,228.3Z"/><path d="M147.85,233.1v16.31H133.27V240H135V223.15h-1.76v-9h8.56v9H140V240h3.46V233.1Z"/><path d="M149.5,214.13h6.67c3.53,0,5.82.78,6.85,2.33s1.55,5,1.55,10.28v8.12c0,6.26-.5,10.24-1.48,12s-3.3,2.58-6.92,2.58H149.5V240h1.74V223.15H149.5Zm6.67,9V240l.75,0c1.1,0,1.79-.23,2.06-.71a10,10,0,0,0,.39-3.66v-7.13A13.65,13.65,0,0,0,159,224c-.27-.56-1-.85-2.12-.85Z"/><path d="M24.46,263h6.67q5,0,6.53,1.78t1.56,7.49q0,4.22-.84,5.7c-.56,1-1.72,1.66-3.5,2,2,.57,3.32,1.32,3.85,2.26s.8,2.94.8,6q0,6-1.56,8c-1,1.32-3.15,2-6.32,2H24.46v-9.44H26.2V272H24.46Zm6.67,9v6.12h.93c1.36,0,2-1,2-3.1s-.72-3-2.17-3Zm0,10v6.82h.8c1.66,0,2.48-1.24,2.48-3.72,0-2.07-.83-3.1-2.5-3.1Z"/><path d="M55.76,263v14.11H51.68V272H48.21v6.33h4.32V282H48.21v6.87h3.47V283.7H56.1v14.58H41.57v-9.44h1.71V272H41.57v-9Z"/><path d="M72.3,263v14.11H68.22V272H64.75v6.33h4.32V282H64.75v6.87h3.47V283.7h4.42v14.58H58.11v-9.44h1.71V272H58.11v-9Z"/><path d="M91.07,263v9H89.34v16.82h1.73v9.44h-7.5v-9.44h.83V282H81.3v6.87h.86v9.44h-7.5v-9.44h1.71V272H74.66v-9h7.5v9H81.3v6.33h3.1V272h-.83v-9Z"/><path d="M101.67,263v9H99.81v16.82h1.86v9.44H93.12v-9.44h1.75V272H93.12v-9Z"/><path d="M118.83,263v9h-1.27l-3.38,26.26h-5.92L104.59,272h-1.53v-9h7.86v9h-1.5l2.79,18.32,2-18.32h-2v-9Z"/><path d="M134.44,263v14.11h-4.08V272h-3.47v6.33h4.32V282h-4.32v6.87h3.47V283.7h4.42v14.58H120.25v-9.44H122V272h-1.71v-9Z"/><path d="M167.71,263v9h-1.78v16.85l0,2.71-.23,2.64c-.59,3.08-2.47,4.63-5.66,4.63q-6,0-6-7.71V272H152.3v-9h7.86v9H159v11.91c0,3.29.5,4.94,1.52,4.94s1.73-1.71,1.73-5.12V272h-1.14v-9Z"/><path d="M178,288.84v9.44h-8.56v-9.44h1.7V272h-1.7v-9h7.05q4.54,0,6.08,2.17t1.53,8.63c0,3.76-.46,6.24-1.36,7.46s-2.76,1.82-5.55,1.82h-1.11v5.76ZM176.06,272v7.18h1.06c1.46,0,2.2-1.14,2.2-3.41,0-2.52-.86-3.77-2.56-3.77Z"/><path d="M185.55,263h6.66q5.29,0,6.86,2.32t1.55,10.29v8.12q0,9.38-1.49,12t-6.92,2.59h-6.66v-9.44h1.73V272h-1.73Zm6.66,9v16.82l.76,0c1.09,0,1.78-.24,2.05-.71a9.94,9.94,0,0,0,.4-3.66v-7.14a13.5,13.5,0,0,0-.42-4.44c-.27-.57-1-.85-2.11-.85Z"/><path d="M203,284.89V277q0-8.89,1.37-11.75c.91-1.9,2.8-2.85,5.63-2.85,2.68,0,4.46,1,5.36,3s1.34,5.87,1.34,11.69v7.81c0,5.37-.48,9.05-1.45,11s-2.77,3-5.43,3-4.52-1-5.44-2.84S203,290.42,203,284.89Zm5.2-7.73v6.57c0,3.42.56,5.14,1.7,5.14s1.61-1.73,1.61-5.2v-6.74l-.06-1.53,0-1.06c-.07-1.48-.6-2.22-1.58-2.22S208.19,273.8,208.19,277.16Z"/><path d="M224.29,263v4.67q0,7.06-4.42,7.42v-2.56c1-.43,1.58-1.43,1.58-3h-1.58V263Z"/><path d="M239.83,263v12.43h-4.71l-.07-.93c-.11-1.61-.56-2.41-1.35-2.41-1,0-1.44.62-1.44,1.84,0,1.39.83,2.61,2.5,3.64q3.94,2.49,5,4.54t1.07,7.2q0,9.54-4.86,9.54-2.61,0-4.19-3.08v2.51H227.4V284.86h4.41v.52c0,2.33.61,3.49,1.84,3.49s1.71-.82,1.71-2.46a4.38,4.38,0,0,0-1.94-3.85l-2.59-1.78Q227,278.11,227,272q0-9.61,4.73-9.62,2.35,0,3.73,3.08V263Z"/><path d="M542.83,81V59.09h8.26a19.74,19.74,0,0,1,3.33.21,6.68,6.68,0,0,1,2.71,1,5.42,5.42,0,0,1,1.76,2.11,7.15,7.15,0,0,1-1.12,7.72c-1.18,1.29-3.33,1.94-6.42,1.94h-5.62V81Zm2.9-11.49h5.66a6,6,0,0,0,4-1.05,3.71,3.71,0,0,0,1.18-2.94,4,4,0,0,0-.69-2.35,3.27,3.27,0,0,0-1.83-1.3,13.17,13.17,0,0,0-2.71-.19h-5.6Z"/><path d="M563.41,81V59.09h15.84v2.59H566.31v6.71h12.12V71H566.31v7.46h13.45V81Z"/><path d="M583.71,81V59.09h9.71a12.76,12.76,0,0,1,4.46.6,4.85,4.85,0,0,1,2.43,2.08,6.21,6.21,0,0,1,.91,3.3A5.47,5.47,0,0,1,599.71,69a7.6,7.6,0,0,1-4.66,2,7.49,7.49,0,0,1,1.75,1.1A14.69,14.69,0,0,1,599.21,75L603,81h-3.65l-2.9-4.56c-.85-1.31-1.54-2.32-2.09-3A6.7,6.7,0,0,0,592.91,72a4.42,4.42,0,0,0-1.33-.58,8.44,8.44,0,0,0-1.61-.11h-3.36V81Zm2.9-12.24h6.23a9.2,9.2,0,0,0,3.11-.41,3.28,3.28,0,0,0,1.7-1.31,3.57,3.57,0,0,0,.58-2,3.25,3.25,0,0,0-1.12-2.55,5.27,5.27,0,0,0-3.57-1h-6.93Z"/><path d="M604.85,74l2.73-.24a6.07,6.07,0,0,0,.91,2.7,4.93,4.93,0,0,0,2.2,1.7,8.27,8.27,0,0,0,3.37.65,8,8,0,0,0,2.92-.49,4.05,4.05,0,0,0,1.89-1.35,3.1,3.1,0,0,0,.62-1.88,2.86,2.86,0,0,0-.59-1.8,4.48,4.48,0,0,0-2-1.29,38.82,38.82,0,0,0-3.9-1.07,20.11,20.11,0,0,1-4.22-1.36,5.92,5.92,0,0,1-2.34-2,5,5,0,0,1-.77-2.73,5.53,5.53,0,0,1,.94-3.1,5.84,5.84,0,0,1,2.75-2.19,10.36,10.36,0,0,1,4-.75,10.84,10.84,0,0,1,4.29.79,6.24,6.24,0,0,1,2.87,2.3,6.72,6.72,0,0,1,1.07,3.46l-2.78.21a4.49,4.49,0,0,0-1.51-3.14,5.92,5.92,0,0,0-3.82-1.06,6.19,6.19,0,0,0-3.84,1,2.89,2.89,0,0,0-1.2,2.32,2.53,2.53,0,0,0,.85,2c.56.5,2,1,4.37,1.56a28.12,28.12,0,0,1,4.85,1.4,6.59,6.59,0,0,1,2.83,2.23,5.41,5.41,0,0,1,.91,3.11,5.94,5.94,0,0,1-1,3.3,6.68,6.68,0,0,1-2.88,2.41,10,10,0,0,1-4.22.85,12.56,12.56,0,0,1-5-.86,7.06,7.06,0,0,1-3.16-2.61A7.4,7.4,0,0,1,604.85,74Z"/><path d="M623.79,81.53l8.75-20.08,7.58,3.3a20.6,20.6,0,0,1,3,1.52,6.67,6.67,0,0,1,2.07,2,5.38,5.38,0,0,1,.77,2.64,7.14,7.14,0,0,1-4.11,6.63q-2.4,1.06-6.66-.79L630,74.52l-3.56,8.17ZM631,72.16l5.19,2.26a6,6,0,0,0,4.08.63,3.73,3.73,0,0,0,2.26-2.23,4,4,0,0,0,.3-2.43,3.31,3.31,0,0,0-1.16-1.92,13.17,13.17,0,0,0-2.4-1.26L634.16,65Z"/><path d="M644,91.49l6.55-20.91,15.12,4.74-.78,2.47-12.35-3.87-2,6.4L662.07,84l-.77,2.45-11.56-3.63-2.23,7.12,12.83,4-.77,2.47Z"/><path d="M684.44,87.67l3-.13a9.8,9.8,0,0,1-1.57,6.16,9,9,0,0,1-5,3.46,10.32,10.32,0,0,1-5.92.28,8.94,8.94,0,0,1-4.44-3,15,15,0,0,1-2.81-5.29,12.8,12.8,0,0,1-.46-6.09,8.86,8.86,0,0,1,2.44-4.78,10.92,10.92,0,0,1,4.71-2.8,9,9,0,0,1,5.77,0,8.68,8.68,0,0,1,4.35,3.6L682,80.54a6.78,6.78,0,0,0-3.12-2.7,6,6,0,0,0-3.81,0,7.11,7.11,0,0,0-3.69,2.38A6.34,6.34,0,0,0,670,84a13.14,13.14,0,0,0,.55,4.22,13.35,13.35,0,0,0,2.19,4.44,6.1,6.1,0,0,0,3.32,2.25,7.13,7.13,0,0,0,3.86-.08,6.2,6.2,0,0,0,3.54-2.54A7.11,7.11,0,0,0,684.44,87.67Z"/><path d="M698.66,88.52l-6.81-18.08L685.09,73l-.91-2.42,16.25-6.12.92,2.42-6.79,2.56,6.81,18.08Z"/><path d="M709.64,86.12l1-21.88,2.9.14-1.05,21.88Z"/><path d="M723.76,86.8l-7.43-22.29,3.14.15,4.92,16.17c.4,1.3.72,2.51,1,3.64.4-1.18.84-2.35,1.35-3.52l6.67-15.62,3,.14L726.73,87Z"/><path d="M738.08,87.49l1-21.88,15.82.76L754.82,69l-12.92-.62-.32,6.7,12.1.58-.12,2.57-12.11-.58-.35,7.45,13.43.64-.13,2.58Z"/><path d="M542,260.49l.91-23.45,3-1,15.54,17.86L558.28,255l-4.55-5.46-8.68,2.95-.14,7.05Zm3.09-10.56,7-2.39-4.12-5c-1.25-1.53-2.23-2.79-2.93-3.81a29.75,29.75,0,0,1,.23,4.35Z"/><path d="M563.66,253.12l-7-20.74,15-5.1.84,2.45-12.26,4.17,2.16,6.35,11.48-3.9.82,2.43-11.47,3.9,2.4,7.06,12.73-4.33.83,2.45Z"/><path d="M579.73,240.23l2.51-1.11a6.06,6.06,0,0,0,1.72,2.26,4.89,4.89,0,0,0,2.64.91,8.36,8.36,0,0,0,3.39-.47,8.06,8.06,0,0,0,2.62-1.41,4.08,4.08,0,0,0,1.35-1.89,3.09,3.09,0,0,0,0-2A2.88,2.88,0,0,0,592.8,235a4.5,4.5,0,0,0-2.29-.58,37.63,37.63,0,0,0-4,.24,20.43,20.43,0,0,1-4.45.07,6.08,6.08,0,0,1-2.87-1.18,5,5,0,0,1-1.6-2.34,5.57,5.57,0,0,1-.11-3.24,5.86,5.86,0,0,1,1.9-2.95,10.32,10.32,0,0,1,3.57-2,10.74,10.74,0,0,1,4.32-.64,6.13,6.13,0,0,1,3.45,1.26,6.63,6.63,0,0,1,2.13,2.92l-2.57,1.09a4.46,4.46,0,0,0-2.44-2.48,5.88,5.88,0,0,0-4,.23,6.17,6.17,0,0,0-3.32,2.14,2.91,2.91,0,0,0-.39,2.59,2.47,2.47,0,0,0,1.43,1.56c.69.31,2.24.33,4.64.08a27.88,27.88,0,0,1,5-.24,6.69,6.69,0,0,1,3.4,1.21,5.44,5.44,0,0,1,1.86,2.65,5.83,5.83,0,0,1,.11,3.44,6.61,6.61,0,0,1-1.94,3.21,10,10,0,0,1-3.72,2.17,12.52,12.52,0,0,1-5,.78,7,7,0,0,1-3.83-1.45A7.48,7.48,0,0,1,579.73,240.23Z"/><path d="M607.53,238.21l-6.22-18.29-6.83,2.32-.83-2.45,16.44-5.59.83,2.45L604.06,219l6.21,18.3Z"/><path d="M620,234l-7-20.74,2.74-.93,2.9,8.51,10.78-3.66-2.9-8.52,2.75-.93,7,20.74-2.75.93-3.32-9.77-10.78,3.66,3.32,9.78Z"/><path d="M640.93,226.86l-7-20.74,15-5.1.83,2.45-12.25,4.16,2.16,6.35,11.47-3.9.83,2.44-11.47,3.9,2.4,7.06,12.73-4.33.83,2.45Z"/><path d="M665.48,218.51l-6.22-18.29-6.83,2.32-.83-2.44L668,194.51l.83,2.45L662,199.29l6.22,18.29Z"/><path d="M678.37,214.13l-7-20.74,2.75-.93,7,20.74Z"/><path d="M698.28,199.25l3-.24a9.78,9.78,0,0,1-1.35,6.22,9.11,9.11,0,0,1-4.88,3.64,10.35,10.35,0,0,1-5.92.48,9,9,0,0,1-4.54-2.86,15,15,0,0,1-3-5.19,12.94,12.94,0,0,1-.68-6.07,9,9,0,0,1,2.28-4.87,10.86,10.86,0,0,1,4.6-3,9,9,0,0,1,5.78-.19,8.66,8.66,0,0,1,4.47,3.45l-2.49,1.55a6.77,6.77,0,0,0-3.21-2.58,5.91,5.91,0,0,0-3.81.14,7.1,7.1,0,0,0-3.6,2.5,6.3,6.3,0,0,0-1.21,3.85,12.81,12.81,0,0,0,.7,4.2,13.34,13.34,0,0,0,2.34,4.36,6.1,6.1,0,0,0,3.4,2.14,7.1,7.1,0,0,0,3.85-.23,6.28,6.28,0,0,0,3.46-2.65A7.2,7.2,0,0,0,698.28,199.25Z"/><path d="M703.68,198.1l2.51-1.11a6,6,0,0,0,1.73,2.26,4.86,4.86,0,0,0,2.63.91,8.31,8.31,0,0,0,3.39-.47,7.88,7.88,0,0,0,2.62-1.41,4,4,0,0,0,1.35-1.89,3.16,3.16,0,0,0,0-2,2.83,2.83,0,0,0-1.15-1.51,4.33,4.33,0,0,0-2.28-.59,37.64,37.64,0,0,0-4,.24,20.34,20.34,0,0,1-4.44.07,6,6,0,0,1-2.87-1.18,5,5,0,0,1-1.61-2.34,5.57,5.57,0,0,1-.11-3.24,5.86,5.86,0,0,1,1.9-3,10.32,10.32,0,0,1,3.57-2,10.79,10.79,0,0,1,4.32-.64,6.13,6.13,0,0,1,3.45,1.26,6.63,6.63,0,0,1,2.13,2.92l-2.56,1.1a4.49,4.49,0,0,0-2.45-2.49,5.88,5.88,0,0,0-4,.23,6.17,6.17,0,0,0-3.32,2.14,2.91,2.91,0,0,0-.39,2.59,2.49,2.49,0,0,0,1.43,1.56c.7.31,2.24.33,4.65.08a27.85,27.85,0,0,1,5-.24,6.69,6.69,0,0,1,3.39,1.21,5.39,5.39,0,0,1,1.87,2.65,6,6,0,0,1,.11,3.44,6.59,6.59,0,0,1-2,3.21,10,10,0,0,1-3.72,2.17,12.49,12.49,0,0,1-5,.78,6.91,6.91,0,0,1-3.82-1.45A7.37,7.37,0,0,1,703.68,198.1Z"/><path d="M540.37,41.67l8.42-21.9h3.12l9,21.9h-3.31L555,35h-9.16l-2.41,6.63Zm6.33-9h7.42l-2.28-6.07q-1.05-2.76-1.56-4.54a27.77,27.77,0,0,1-1.18,4.18Z"/><path d="M586.61,39.33a17.42,17.42,0,0,0,3.72,2l-.85,2a17.3,17.3,0,0,1-4.71-2.69,10.92,10.92,0,0,1-5.38,1.36A10.33,10.33,0,0,1,574,40.61a9.51,9.51,0,0,1-3.73-4A12.88,12.88,0,0,1,569,30.72a13.08,13.08,0,0,1,1.32-5.9A9.25,9.25,0,0,1,574,20.77a10.71,10.71,0,0,1,5.43-1.39,10.57,10.57,0,0,1,5.47,1.44,9.36,9.36,0,0,1,3.71,4,12.9,12.9,0,0,1,1.28,5.85,13.54,13.54,0,0,1-.82,4.86A10.33,10.33,0,0,1,586.61,39.33Zm-6.38-3.71a10.91,10.91,0,0,1,4.14,2.09c1.7-1.55,2.55-3.89,2.55-7a11.15,11.15,0,0,0-.9-4.65A6.91,6.91,0,0,0,583.37,23a7.6,7.6,0,0,0-9.28,1.12q-2.15,2.22-2.14,6.63c0,2.85.71,5,2.11,6.56a7,7,0,0,0,5.41,2.29,7.53,7.53,0,0,0,2.92-.58,9.33,9.33,0,0,0-2.86-1.26Z"/><path d="M608.19,19.77h2.9V32.43a14.88,14.88,0,0,1-.75,5.24,6.43,6.43,0,0,1-2.7,3.16,9.58,9.58,0,0,1-5.12,1.22,10.46,10.46,0,0,1-5-1.06,6.06,6.06,0,0,1-2.8-3.07,14.81,14.81,0,0,1-.83-5.49V19.77h2.89V32.41a12.19,12.19,0,0,0,.54,4.21,4,4,0,0,0,1.82,2.08,6.29,6.29,0,0,0,3.16.73q3.19,0,4.56-1.45c.9-1,1.36-2.82,1.36-5.57Z"/><path d="M616,41.67V19.77h15.84v2.58H618.87v6.71H631v2.57H618.87v7.46h13.45v2.58Z"/><path d="M636.38,41.67V19.77h15.84v2.58H639.28v6.71H651.4v2.57H639.28v7.46h13.45v2.58Z"/><path d="M656.78,41.67V19.77h9.71a12.8,12.8,0,0,1,4.46.59,4.9,4.9,0,0,1,2.43,2.08,6.22,6.22,0,0,1,.91,3.31,5.54,5.54,0,0,1-1.5,3.93,7.69,7.69,0,0,1-4.67,2,7.51,7.51,0,0,1,1.75,1.09,15.29,15.29,0,0,1,2.41,2.91l3.81,6h-3.65l-2.9-4.55c-.85-1.32-1.54-2.32-2.09-3A6.7,6.7,0,0,0,666,32.63a4.63,4.63,0,0,0-1.32-.58A8.85,8.85,0,0,0,663,32h-3.36v9.72Zm2.9-12.23h6.23A9.46,9.46,0,0,0,669,29a3.35,3.35,0,0,0,1.7-1.32,3.55,3.55,0,0,0,.59-2,3.28,3.28,0,0,0-1.13-2.56,5.27,5.27,0,0,0-3.57-1h-6.93Z"/><path d="M541.39,109.88q0-4.41,2.45-6.53a7.36,7.36,0,0,1,5-1.77,7.13,7.13,0,0,1,5.35,2.15,8.17,8.17,0,0,1,2.08,5.92,10.54,10.54,0,0,1-.92,4.82,6.59,6.59,0,0,1-2.68,2.73,7.76,7.76,0,0,1-3.83,1,7.13,7.13,0,0,1-5.39-2.14A8.51,8.51,0,0,1,541.39,109.88Zm2.76,0a6.78,6.78,0,0,0,1.33,4.56,4.27,4.27,0,0,0,3.35,1.52,4.22,4.22,0,0,0,3.33-1.53,6.87,6.87,0,0,0,1.33-4.64,6.5,6.5,0,0,0-1.34-4.46,4.43,4.43,0,0,0-6.67,0A6.75,6.75,0,0,0,544.15,109.88Z"/><path d="M559.41,117.81V101.94h2.42v2.26a5.69,5.69,0,0,1,5-2.62,6.55,6.55,0,0,1,2.64.52,4.12,4.12,0,0,1,1.8,1.35,5.18,5.18,0,0,1,.83,2,14.33,14.33,0,0,1,.15,2.61v9.76h-2.69v-9.65a7.23,7.23,0,0,0-.31-2.46,2.59,2.59,0,0,0-1.11-1.3,3.61,3.61,0,0,0-1.88-.49,4.38,4.38,0,0,0-3,1.09c-.84.73-1.25,2.11-1.25,4.14v8.67Z"/><path d="M590.8,115.4l.39,2.38a9.93,9.93,0,0,1-2,.24,4.72,4.72,0,0,1-2.27-.46,2.62,2.62,0,0,1-1.14-1.22,9.59,9.59,0,0,1-.33-3.18V104h-2v-2.09h2V98l2.68-1.61v5.54h2.7V104h-2.7v9.28a4.86,4.86,0,0,0,.14,1.48,1.06,1.06,0,0,0,.46.52,1.79,1.79,0,0,0,.92.2A8.86,8.86,0,0,0,590.8,115.4Z"/><path d="M593.43,117.81V95.9h2.69v7.86a6,6,0,0,1,4.76-2.18,6.34,6.34,0,0,1,3.06.7,4,4,0,0,1,1.86,1.92,8.87,8.87,0,0,1,.56,3.55v10.06h-2.69V107.75a4.15,4.15,0,0,0-.87-2.93,3.24,3.24,0,0,0-2.48-.92,4.44,4.44,0,0,0-2.25.62,3.49,3.49,0,0,0-1.5,1.68,7.69,7.69,0,0,0-.45,2.93v8.68Z"/><path d="M621.32,112.7l2.78.34a6.73,6.73,0,0,1-2.44,3.78,8.23,8.23,0,0,1-10.06-.8,8.35,8.35,0,0,1-2-6,8.76,8.76,0,0,1,2.06-6.22,7,7,0,0,1,5.35-2.21,6.78,6.78,0,0,1,5.2,2.17,8.62,8.62,0,0,1,2,6.1c0,.15,0,.39,0,.71H612.34a6.09,6.09,0,0,0,1.48,4,4.41,4.41,0,0,0,3.31,1.39,4.12,4.12,0,0,0,2.53-.78A5.14,5.14,0,0,0,621.32,112.7Zm-8.83-4.35h8.86a5.34,5.34,0,0,0-1-3,4.11,4.11,0,0,0-3.33-1.56,4.3,4.3,0,0,0-3.12,1.24A4.94,4.94,0,0,0,612.49,108.35Z"/><path d="M553.25,151l2.78.35a6.83,6.83,0,0,1-2.43,3.78,7.4,7.4,0,0,1-4.55,1.34,7.25,7.25,0,0,1-5.52-2.14,8.39,8.39,0,0,1-2-6,8.77,8.77,0,0,1,2.06-6.21,7,7,0,0,1,5.35-2.21,6.78,6.78,0,0,1,5.2,2.16,8.6,8.6,0,0,1,2,6.1c0,.16,0,.4,0,.72H544.27a6.12,6.12,0,0,0,1.48,4,4.39,4.39,0,0,0,3.32,1.39,4.11,4.11,0,0,0,2.52-.78A5.09,5.09,0,0,0,553.25,151Zm-8.83-4.34h8.86a5.46,5.46,0,0,0-1-3,4.15,4.15,0,0,0-3.34-1.55,4.25,4.25,0,0,0-3.11,1.24A4.92,4.92,0,0,0,544.42,146.61Z"/><path d="M559.41,156.06V140.19h2.4v2.23a5.67,5.67,0,0,1,2-1.87,5.53,5.53,0,0,1,2.83-.71,5.21,5.21,0,0,1,2.89.73,3.93,3.93,0,0,1,1.59,2.05,5.68,5.68,0,0,1,4.9-2.78,4.84,4.84,0,0,1,3.63,1.3,5.6,5.6,0,0,1,1.27,4v10.89h-2.67v-10a7.56,7.56,0,0,0-.26-2.33,2.28,2.28,0,0,0-1-1.14,3,3,0,0,0-1.62-.43,3.78,3.78,0,0,0-2.78,1.11,4.93,4.93,0,0,0-1.1,3.56v9.22h-2.69V145.75a4.54,4.54,0,0,0-.66-2.69,2.5,2.5,0,0,0-2.15-.89,4,4,0,0,0-2.1.59,3.45,3.45,0,0,0-1.4,1.75,9.87,9.87,0,0,0-.43,3.32v8.23Z"/><path d="M595.76,151l2.78.35a6.78,6.78,0,0,1-2.43,3.78,7.37,7.37,0,0,1-4.54,1.34,7.28,7.28,0,0,1-5.53-2.14,8.39,8.39,0,0,1-2-6,8.72,8.72,0,0,1,2.07-6.21,6.94,6.94,0,0,1,5.35-2.21,6.8,6.8,0,0,1,5.2,2.16,8.65,8.65,0,0,1,2,6.1c0,.16,0,.4,0,.72H586.78a6.17,6.17,0,0,0,1.48,4,4.39,4.39,0,0,0,3.32,1.39,4.12,4.12,0,0,0,2.53-.78A5.08,5.08,0,0,0,595.76,151Zm-8.83-4.34h8.86a5.3,5.3,0,0,0-1-3,4.14,4.14,0,0,0-3.33-1.55,4.26,4.26,0,0,0-3.12,1.24A4.92,4.92,0,0,0,586.93,146.61Z"/><path d="M601.89,156.06V140.19h2.42v2.41a6.62,6.62,0,0,1,1.71-2.23,3.07,3.07,0,0,1,1.73-.53,5.26,5.26,0,0,1,2.76.86l-.92,2.5a3.86,3.86,0,0,0-2-.58,2.53,2.53,0,0,0-1.58.53,2.84,2.84,0,0,0-1,1.47,10.4,10.4,0,0,0-.45,3.14v8.3Z"/><path d="M611.62,157.38l2.61.39a2.5,2.5,0,0,0,.92,1.76,4.45,4.45,0,0,0,2.73.75,4.77,4.77,0,0,0,2.88-.75,3.67,3.67,0,0,0,1.38-2.09,16.5,16.5,0,0,0,.19-3.45,5.53,5.53,0,0,1-4.39,2.07,6,6,0,0,1-5.07-2.36,9.11,9.11,0,0,1-1.79-5.66,10.51,10.51,0,0,1,.82-4.19,6.57,6.57,0,0,1,2.39-3,6.48,6.48,0,0,1,3.67-1,5.68,5.68,0,0,1,4.63,2.27v-1.92h2.48v13.72a12.94,12.94,0,0,1-.76,5.26,5.52,5.52,0,0,1-2.39,2.44,8.24,8.24,0,0,1-4,.89,7.59,7.59,0,0,1-4.59-1.27A4.32,4.32,0,0,1,611.62,157.38Zm2.23-9.53a6.84,6.84,0,0,0,1.24,4.55,3.91,3.91,0,0,0,3.1,1.44,4,4,0,0,0,3.11-1.43,6.63,6.63,0,0,0,1.26-4.47,6.53,6.53,0,0,0-1.29-4.4,4,4,0,0,0-3.12-1.48,3.89,3.89,0,0,0-3,1.46A6.45,6.45,0,0,0,613.85,147.85Z"/><path d="M640,151l2.78.35a6.85,6.85,0,0,1-2.44,3.78,7.35,7.35,0,0,1-4.54,1.34,7.25,7.25,0,0,1-5.52-2.14,8.39,8.39,0,0,1-2-6,8.72,8.72,0,0,1,2.06-6.21,7,7,0,0,1,5.35-2.21,6.8,6.8,0,0,1,5.2,2.16,8.65,8.65,0,0,1,2,6.1c0,.16,0,.4,0,.72H631a6.06,6.06,0,0,0,1.48,4,4.37,4.37,0,0,0,3.31,1.39,4.12,4.12,0,0,0,2.53-.78A5.09,5.09,0,0,0,640,151Zm-8.83-4.34H640a5.38,5.38,0,0,0-1-3,4.14,4.14,0,0,0-3.33-1.55,4.26,4.26,0,0,0-3.12,1.24A4.87,4.87,0,0,0,631.17,146.61Z"/><path d="M646.15,156.06V140.19h2.42v2.26a5.71,5.71,0,0,1,5-2.61,6.68,6.68,0,0,1,2.64.51,4.21,4.21,0,0,1,1.8,1.35,5.19,5.19,0,0,1,.84,2,15.39,15.39,0,0,1,.15,2.62v9.75h-2.69v-9.65a7.53,7.53,0,0,0-.31-2.46,2.61,2.61,0,0,0-1.12-1.3,3.56,3.56,0,0,0-1.87-.48,4.34,4.34,0,0,0-3,1.09c-.83.72-1.25,2.11-1.25,4.14v8.66Z"/><path d="M673.53,150.25l2.64.35a6.77,6.77,0,0,1-2.22,4.28,6.46,6.46,0,0,1-4.38,1.54,6.82,6.82,0,0,1-5.24-2.13,8.63,8.63,0,0,1-2-6.1,11.22,11.22,0,0,1,.85-4.5,5.93,5.93,0,0,1,2.6-2.89,7.7,7.7,0,0,1,3.78-1,6.57,6.57,0,0,1,4.23,1.3,6,6,0,0,1,2.11,3.72l-2.62.4a4.37,4.37,0,0,0-1.32-2.41,3.44,3.44,0,0,0-2.29-.8,4.15,4.15,0,0,0-3.3,1.45,6.92,6.92,0,0,0-1.27,4.61c0,2.14.4,3.69,1.22,4.65a4,4,0,0,0,3.2,1.45,3.73,3.73,0,0,0,2.64-1A4.81,4.81,0,0,0,673.53,150.25Z"/><path d="M689.34,151l2.78.35a6.8,6.8,0,0,1-2.44,3.78,7.35,7.35,0,0,1-4.54,1.34,7.25,7.25,0,0,1-5.52-2.14,8.39,8.39,0,0,1-2-6,8.77,8.77,0,0,1,2.06-6.21,7,7,0,0,1,5.35-2.21,6.79,6.79,0,0,1,5.2,2.16,8.6,8.6,0,0,1,2,6.1c0,.16,0,.4,0,.72H680.36a6.06,6.06,0,0,0,1.48,4,4.37,4.37,0,0,0,3.31,1.39,4.12,4.12,0,0,0,2.53-.78A5.09,5.09,0,0,0,689.34,151Zm-8.83-4.34h8.86a5.38,5.38,0,0,0-1-3,4.13,4.13,0,0,0-3.33-1.55,4.28,4.28,0,0,0-3.12,1.24A4.92,4.92,0,0,0,680.51,146.61Z"/><path d="M703,148.13c0-2.94.81-5.12,2.45-6.53a7.35,7.35,0,0,1,5-1.76,7.13,7.13,0,0,1,5.35,2.14,8.19,8.19,0,0,1,2.08,5.93,10.5,10.5,0,0,1-.92,4.81,6.53,6.53,0,0,1-2.68,2.73,7.76,7.76,0,0,1-3.83,1,7.15,7.15,0,0,1-5.39-2.13A8.55,8.55,0,0,1,703,148.13Zm2.76,0a6.78,6.78,0,0,0,1.33,4.56,4.43,4.43,0,0,0,6.68,0A6.92,6.92,0,0,0,715.1,148a6.52,6.52,0,0,0-1.34-4.46,4.43,4.43,0,0,0-6.67,0A6.78,6.78,0,0,0,705.76,148.13Z"/><path d="M721.66,156.06V142.29h-2.38v-2.1h2.38v-1.68a7.41,7.41,0,0,1,.28-2.38,3.49,3.49,0,0,1,1.37-1.7,5,5,0,0,1,2.74-.65,13,13,0,0,1,2.51.27l-.4,2.35a9,9,0,0,0-1.58-.15,2.37,2.37,0,0,0-1.74.52,2.84,2.84,0,0,0-.5,2v1.46h3.09v2.1h-3.09v13.77Z"/><path d="M558.36,186.78l2.9.73A9.78,9.78,0,0,1,558,193a9,9,0,0,1-5.79,1.87,10.42,10.42,0,0,1-5.76-1.44,9,9,0,0,1-3.38-4.18,14.92,14.92,0,0,1-1.15-5.87,12.94,12.94,0,0,1,1.3-6,8.92,8.92,0,0,1,3.72-3.87,10.9,10.9,0,0,1,5.32-1.32,9,9,0,0,1,5.52,1.67,8.71,8.71,0,0,1,3.13,4.71l-2.86.67a6.72,6.72,0,0,0-2.21-3.48,5.87,5.87,0,0,0-3.64-1.09,7.09,7.09,0,0,0-4.23,1.21,6.41,6.41,0,0,0-2.38,3.25,13,13,0,0,0-.69,4.21,13.44,13.44,0,0,0,.82,4.88,6.06,6.06,0,0,0,2.53,3.11,7.1,7.1,0,0,0,3.72,1,6.28,6.28,0,0,0,4.13-1.4A7.25,7.25,0,0,0,558.36,186.78Z"/><path d="M562.43,194.46l8.41-21.91H574l9,21.91h-3.3l-2.56-6.64h-9.16l-2.4,6.64Zm6.32-9h7.42l-2.28-6.06c-.7-1.85-1.22-3.36-1.56-4.55a27.89,27.89,0,0,1-1.18,4.19Z"/><path d="M585.16,194.46V172.55h4.36l5.18,15.51c.48,1.45.83,2.53,1,3.25.25-.8.64-2,1.17-3.52l5.24-15.24h3.9v21.91h-2.79V176.12l-6.37,18.34h-2.61L588,175.81v18.65Z"/><path d="M610.74,194.46V172.55H619a19.82,19.82,0,0,1,3.33.21,6.67,6.67,0,0,1,2.71,1,5.35,5.35,0,0,1,1.75,2.12,6.63,6.63,0,0,1,.67,3,6.72,6.72,0,0,1-1.78,4.73c-1.18,1.29-3.33,1.93-6.42,1.93h-5.62v8.91Zm2.9-11.49h5.66a6,6,0,0,0,4-1.05,3.72,3.72,0,0,0,1.18-2.94,4,4,0,0,0-.69-2.36,3.31,3.31,0,0,0-1.83-1.29,12.47,12.47,0,0,0-2.71-.19h-5.6Z"/><path d="M542.61,275.55v-3.1h2.69v3.1Zm0,18.81V278.49h2.69v15.87Z"/><path d="M549.44,294.36V278.49h2.42v2.26a5.69,5.69,0,0,1,5-2.62,6.55,6.55,0,0,1,2.64.52,4.12,4.12,0,0,1,1.8,1.35,5.18,5.18,0,0,1,.83,2,15.25,15.25,0,0,1,.15,2.61v9.76h-2.69v-9.65a7.23,7.23,0,0,0-.31-2.46,2.55,2.55,0,0,0-1.11-1.3,3.51,3.51,0,0,0-1.88-.49,4.37,4.37,0,0,0-3,1.09c-.84.73-1.25,2.11-1.25,4.14v8.67Z"/><path d="M590.92,286.68l2.89.73a9.67,9.67,0,0,1-3.28,5.45,9,9,0,0,1-5.79,1.87,10.42,10.42,0,0,1-5.76-1.44,8.94,8.94,0,0,1-3.37-4.18,14.75,14.75,0,0,1-1.16-5.87,12.94,12.94,0,0,1,1.31-6,8.92,8.92,0,0,1,3.72-3.87,10.89,10.89,0,0,1,5.31-1.32,9,9,0,0,1,5.53,1.67,8.75,8.75,0,0,1,3.12,4.71l-2.85.67a6.84,6.84,0,0,0-2.21-3.48,5.9,5.9,0,0,0-3.65-1.09,7,7,0,0,0-4.22,1.21,6.43,6.43,0,0,0-2.39,3.25,13.3,13.3,0,0,0-.68,4.21,13.45,13.45,0,0,0,.81,4.88,6.07,6.07,0,0,0,2.53,3.11,7.11,7.11,0,0,0,3.73,1,6.25,6.25,0,0,0,4.12-1.4A7.26,7.26,0,0,0,590.92,286.68Z"/><path d="M597.59,294.36V272.45h2.9v9h11.39v-9h2.9v21.91h-2.9V284H600.49v10.33Z"/><path d="M620.13,294.36V272.45H623v21.91Z"/><path d="M631.28,294l-5.44-21.22,2.8-.72,4.81,18.71,10.45-2.68.64,2.5Z"/><path d="M649.53,288.68l-8.21-20.31,7-2.83a17.92,17.92,0,0,1,3.74-1.17,7.42,7.42,0,0,1,3.56.25,8.92,8.92,0,0,1,3.81,2.5,15,15,0,0,1,2.75,4.51,15.3,15.3,0,0,1,1.11,4.32,10.74,10.74,0,0,1-.19,3.52,7.94,7.94,0,0,1-1.1,2.59,8.32,8.32,0,0,1-2,2,14.64,14.64,0,0,1-3.12,1.67Zm1.72-3.48,4.34-1.76a11.67,11.67,0,0,0,3-1.64A4.93,4.93,0,0,0,660,280a6.9,6.9,0,0,0,.45-3.17,13.22,13.22,0,0,0-1-4.13,10.19,10.19,0,0,0-3-4.48,5.63,5.63,0,0,0-3.47-1.26,11.31,11.31,0,0,0-3.64,1L645,269.68Z"/><path d="M669.27,279.22l-5.87-21.11,9.36-2.6a13.15,13.15,0,0,1,4.44-.63,4.87,4.87,0,0,1,2.91,1.36,6.24,6.24,0,0,1,1.76,2.94,5.51,5.51,0,0,1-.4,4.19,7.66,7.66,0,0,1-3.94,3.21,7.53,7.53,0,0,1,2,.58,14.78,14.78,0,0,1,3.1,2.16l5.27,4.72-3.51,1-4-3.61c-1.17-1-2.11-1.82-2.82-2.35a6.91,6.91,0,0,0-1.81-1,4.26,4.26,0,0,0-1.43-.2,8.36,8.36,0,0,0-1.58.33l-3.24.9,2.6,9.37Zm-.49-12.57,6-1.67a9.13,9.13,0,0,0,2.89-1.23A3.38,3.38,0,0,0,679,262a3.58,3.58,0,0,0,0-2,3.27,3.27,0,0,0-1.77-2.16,5.25,5.25,0,0,0-3.7,0l-6.68,1.86Z"/><path d="M686.68,276.85l8.2-20.31,14.69,5.93-1,2.4-12-4.85-2.51,6.22,11.24,4.54-1,2.38-11.23-4.54-2.79,6.92,12.47,5-1,2.4Z"/><path d="M703.93,283.94,717.85,267l2.3,1.89-2,20.59L729,276.23l2.15,1.76-13.92,16.92L715,293l2-20.6-10.94,13.29Z"/><path d="M730,293.14l2.68-.6a6,6,0,0,0,1.26,2.55,5,5,0,0,0,2.41,1.39,8.41,8.41,0,0,0,3.42.19,8.1,8.1,0,0,0,2.84-.88,4.17,4.17,0,0,0,1.69-1.6,3.15,3.15,0,0,0,.36-1.94,2.83,2.83,0,0,0-.83-1.7,4.42,4.42,0,0,0-2.13-1,39.25,39.25,0,0,0-4-.53,19.83,19.83,0,0,1-4.38-.79,6,6,0,0,1-2.59-1.7,5,5,0,0,1-1.13-2.6,5.58,5.58,0,0,1,.51-3.2,5.92,5.92,0,0,1,2.43-2.54,10.44,10.44,0,0,1,3.89-1.28,11,11,0,0,1,4.36.2A6.18,6.18,0,0,1,744,279a6.79,6.79,0,0,1,1.53,3.27l-2.73.59a4.46,4.46,0,0,0-1.92-2.91,6,6,0,0,0-3.93-.54,6.12,6.12,0,0,0-3.67,1.48,2.88,2.88,0,0,0-.88,2.46,2.52,2.52,0,0,0,1.11,1.81c.62.43,2.13.75,4.54,1a28.4,28.4,0,0,1,5,.73,6.68,6.68,0,0,1,3.11,1.83,5.47,5.47,0,0,1,1.32,3,6.06,6.06,0,0,1-.55,3.4,6.63,6.63,0,0,1-2.53,2.77,10.05,10.05,0,0,1-4.07,1.42,12.56,12.56,0,0,1-5-.19,7,7,0,0,1-3.47-2.16A7.32,7.32,0,0,1,730,293.14Z"/><path d="M547.65,333.4V314.08h-7.22v-2.59h17.36v2.59h-7.24V333.4Z"/><path d="M560.83,333.4V311.49h15.84v2.59H563.73v6.71h12.12v2.57H563.73v7.45h13.45v2.59Z"/><path d="M581.06,333.4V311.49H584v19.32h10.79v2.59Z"/><path d="M598.26,333.4V311.49H614.1v2.59H601.16v6.71h12.12v2.57H601.16v7.45h13.45v2.59Z"/><path d="M624.87,333.4l-8.48-21.91h3.13l5.7,15.92c.46,1.27.84,2.47,1.15,3.58.34-1.19.73-2.39,1.18-3.58l5.92-15.92h3l-8.58,21.91Z"/><path d="M639.52,333.4V311.49h2.9V333.4Z"/><path d="M646.54,326.36l2.74-.24a6.07,6.07,0,0,0,.9,2.7,5,5,0,0,0,2.2,1.7,8.51,8.51,0,0,0,3.37.65,8.07,8.07,0,0,0,2.93-.49,4.1,4.1,0,0,0,1.89-1.35,3.18,3.18,0,0,0,.62-1.88,2.83,2.83,0,0,0-.6-1.8,4.5,4.5,0,0,0-2-1.29,37.66,37.66,0,0,0-3.9-1.07,19.54,19.54,0,0,1-4.23-1.37,5.92,5.92,0,0,1-2.34-2,5,5,0,0,1-.77-2.73,5.58,5.58,0,0,1,.94-3.1,5.89,5.89,0,0,1,2.75-2.19,10.62,10.62,0,0,1,4-.74,11.07,11.07,0,0,1,4.3.78,6.23,6.23,0,0,1,2.86,2.31,6.53,6.53,0,0,1,1.07,3.45l-2.78.21a4.51,4.51,0,0,0-1.51-3.14,5.94,5.94,0,0,0-3.82-1.06,6.07,6.07,0,0,0-3.83,1,2.89,2.89,0,0,0-1.21,2.32,2.49,2.49,0,0,0,.85,1.94q.84.77,4.38,1.56a28.88,28.88,0,0,1,4.84,1.4,6.61,6.61,0,0,1,2.83,2.24,5.41,5.41,0,0,1,.91,3.11,5.94,5.94,0,0,1-1,3.3,6.54,6.54,0,0,1-2.88,2.4,9.89,9.89,0,0,1-4.22.86,12.55,12.55,0,0,1-5-.87,7,7,0,0,1-3.16-2.6A7.52,7.52,0,0,1,646.54,326.36Z"/><path d="M668.43,333.4V311.49h2.9V333.4Z"/><path d="M675.56,322.73c0-3.64,1-6.48,2.93-8.54a10,10,0,0,1,7.56-3.09,10.52,10.52,0,0,1,5.47,1.45,9.47,9.47,0,0,1,3.71,4,14.06,14.06,0,0,1-.06,11.85,9.22,9.22,0,0,1-3.81,4,10.93,10.93,0,0,1-5.32,1.35,10.41,10.41,0,0,1-5.53-1.49,9.64,9.64,0,0,1-3.69-4.08A12.36,12.36,0,0,1,675.56,322.73Zm3,0a8.78,8.78,0,0,0,2.13,6.24,7.43,7.43,0,0,0,10.73,0,9.29,9.29,0,0,0,2.11-6.53,11.28,11.28,0,0,0-.9-4.67A6.86,6.86,0,0,0,690,314.7a7,7,0,0,0-3.9-1.1,7.42,7.42,0,0,0-5.3,2.11C679.29,317.12,678.55,319.48,678.55,322.77Z"/><path d="M700.22,333.4V311.49h3l11.51,17.2v-17.2h2.78V333.4h-3L703,316.18V333.4Z"/></svg>