<svg id="Laag_1" data-name="Laag 1" xmlns="http://www.w3.org/2000/svg" xmlns:xlink="http://www.w3.org/1999/xlink" viewBox="0 0 136.02 1009.91"><defs><style>.cls-1{fill:url(#Naamloos_verloop_26);}.cls-2{fill:#f0f;}.cls-3{fill:red;}</style><linearGradient id="Naamloos_verloop_26" x1="68.01" y1="1009.91" x2="68.01" gradientUnits="userSpaceOnUse"><stop offset="0.12" stop-color="#ff0"/><stop offset="0.4" stop-color="aqua"/><stop offset="0.64" stop-color="lime"/><stop offset="0.67" stop-color="#34ff34"/><stop offset="0.7" stop-color="#63ff63"/><stop offset="0.73" stop-color="#8dff8d"/><stop offset="0.77" stop-color="#b0ffb0"/><stop offset="0.8" stop-color="#cdffcd"/><stop offset="0.84" stop-color="#e3ffe3"/><stop offset="0.88" stop-color="#f3fff3"/><stop offset="0.93" stop-color="#fcfffc"/><stop offset="1" stop-color="#fff"/></linearGradient></defs><path class="cls-1" d="M0,0V1000l21.4,5.65,14.26-5.36,7.62,6.91,51.38,2.69,29.22-9.89,12.14,2.55V0ZM5.59,261.77h46.7L19.34,228.82l9.38-9.38,31.4,31.41V206.4H73.39v45.51l33.06-33.06,9.38,9.37L82.28,261.77H130.2V275H84.34l32.51,32.51-9.38,9.4L73.39,282.87V331H60.12V284l-32.4,32.4L18.33,307,50.26,275H5.59Zm124.46,387.8a14.61,14.61,0,0,1-14.61,14.61H20.35A14.61,14.61,0,0,1,5.74,649.57v-54a14.61,14.61,0,0,1,14.61-14.6h95.09a14.61,14.61,0,0,1,14.61,14.6Zm.22-294.37H5.65V341.93H130.27Zm0-327.36H5.65V14.57H130.27Z"/><rect x="-28.99" y="742.9" width="124.62" height="13.27" transform="translate(782.85 716.22) rotate(90)"/><rect x="37.64" y="742.9" width="124.62" height="13.27" transform="translate(849.48 649.59) rotate(90)"/><path d="M6,397.82V385.16h4.78a11.51,11.51,0,0,1,1.92.12,3.87,3.87,0,0,1,1.57.59,3.14,3.14,0,0,1,1,1.22,3.85,3.85,0,0,1,.39,1.73,3.89,3.89,0,0,1-1,2.73c-.69.75-1.93,1.12-3.72,1.12H7.7v5.15Zm1.67-6.64H11a3.46,3.46,0,0,0,2.31-.61,2.16,2.16,0,0,0,.68-1.7,2.35,2.35,0,0,0-.4-1.36,1.87,1.87,0,0,0-1.06-.75,7.67,7.67,0,0,0-1.57-.11H7.7Z"/><path d="M17.93,397.82V385.16h9.15v1.49H19.6v3.88h7V392h-7v4.31h7.78v1.49Z"/><path d="M29.66,397.82V385.16h5.62a7.39,7.39,0,0,1,2.57.34,2.83,2.83,0,0,1,1.41,1.2,3.64,3.64,0,0,1,.53,1.91,3.14,3.14,0,0,1-.88,2.27,4.41,4.41,0,0,1-2.69,1.18,4.22,4.22,0,0,1,1,.63,8.88,8.88,0,0,1,1.39,1.68l2.2,3.45h-2.1L37,395.19c-.49-.76-.89-1.35-1.21-1.75a4.2,4.2,0,0,0-.85-.85,2.46,2.46,0,0,0-.77-.33,5,5,0,0,0-.93-.06H31.34v5.62Zm1.68-7.07h3.6a5.35,5.35,0,0,0,1.8-.24,1.89,1.89,0,0,0,1-.76,2,2,0,0,0,.34-1.14,1.88,1.88,0,0,0-.65-1.47,3,3,0,0,0-2.06-.58h-4Z"/><path d="M41.88,393.75l1.58-.14a3.43,3.43,0,0,0,.53,1.56,2.78,2.78,0,0,0,1.27,1,4.88,4.88,0,0,0,2,.37,4.68,4.68,0,0,0,1.69-.28,2.35,2.35,0,0,0,1.09-.78,1.8,1.8,0,0,0,.36-1.09,1.61,1.61,0,0,0-.35-1,2.69,2.69,0,0,0-1.14-.75c-.34-.13-1.09-.33-2.25-.61a12,12,0,0,1-2.45-.79A3.5,3.5,0,0,1,42.81,390a3,3,0,0,1-.44-1.58,3.21,3.21,0,0,1,.54-1.79,3.34,3.34,0,0,1,1.59-1.27,6,6,0,0,1,2.32-.43,6.43,6.43,0,0,1,2.49.45A3.57,3.57,0,0,1,51,386.73a3.71,3.71,0,0,1,.62,2l-1.6.13A2.62,2.62,0,0,0,49.1,387a3.41,3.41,0,0,0-2.21-.61,3.47,3.47,0,0,0-2.21.56,1.66,1.66,0,0,0-.7,1.34,1.44,1.44,0,0,0,.5,1.12,6.39,6.39,0,0,0,2.52.9,17.18,17.18,0,0,1,2.81.81,3.87,3.87,0,0,1,1.63,1.29,3.19,3.19,0,0,1,.52,1.8,3.49,3.49,0,0,1-.57,1.91,3.78,3.78,0,0,1-1.67,1.39,5.78,5.78,0,0,1-2.44.5,7.4,7.4,0,0,1-2.88-.5A4.1,4.1,0,0,1,42.58,396,4.35,4.35,0,0,1,41.88,393.75Z"/><path d="M52.83,398.13l5.06-11.61,4.38,1.91a10.58,10.58,0,0,1,1.72.88,3.82,3.82,0,0,1,1.2,1.16,3.18,3.18,0,0,1,.44,1.53,3.86,3.86,0,0,1-.34,1.74,3.92,3.92,0,0,1-2,2.09c-.93.41-2.21.26-3.86-.46l-3-1.29-2.06,4.72ZM57,392.71l3,1.3a3.43,3.43,0,0,0,2.36.37,2.19,2.19,0,0,0,1.31-1.29,2.23,2.23,0,0,0,.17-1.4,1.83,1.83,0,0,0-.67-1.11,7,7,0,0,0-1.39-.73l-3-1.29Z"/><path d="M64.5,403.88l3.79-12.08L77,394.54,76.58,396l-7.14-2.23-1.16,3.7L75,399.52l-.44,1.42-6.69-2.09L66.54,403,74,405.28l-.44,1.43Z"/><path d="M87.9,401.68l1.72-.08a5.66,5.66,0,0,1-.9,3.56,5.27,5.27,0,0,1-2.9,2,6.09,6.09,0,0,1-3.43.16,5.22,5.22,0,0,1-2.56-1.75,8.65,8.65,0,0,1-1.62-3.06,7.45,7.45,0,0,1-.27-3.52,5.16,5.16,0,0,1,1.41-2.76,6.21,6.21,0,0,1,2.72-1.62,5.15,5.15,0,0,1,3.34,0,5,5,0,0,1,2.51,2.09l-1.46.84A3.93,3.93,0,0,0,84.65,396a3.44,3.44,0,0,0-2.2,0,4.1,4.1,0,0,0-2.13,1.37,3.68,3.68,0,0,0-.78,2.2,7.48,7.48,0,0,0,.32,2.44,7.81,7.81,0,0,0,1.26,2.57,3.55,3.55,0,0,0,1.92,1.3,4.16,4.16,0,0,0,2.24-.05,3.63,3.63,0,0,0,2-1.46A4.26,4.26,0,0,0,87.9,401.68Z"/><path d="M96.11,402.17l-3.93-10.46-3.91,1.47-.52-1.39,9.39-3.54.53,1.4-3.92,1.47,3.93,10.46Z"/><path d="M102.46,400.78l.61-12.65,1.67.08-.61,12.65Z"/><path d="M110.63,401.17l-4.3-12.88,1.81.09,2.85,9.34c.23.75.42,1.45.57,2.11.23-.68.48-1.36.78-2l3.86-9,1.7.08-5.56,12.42Z"/><path d="M118.9,401.57l.61-12.65,9.14.44-.07,1.49-7.47-.35-.18,3.87,7,.34-.07,1.48-7-.33-.2,4.3,7.76.37-.07,1.5Z"/><path d="M5.55,501.58,6.08,488l1.71-.59,9,10.33-1.81.61-2.63-3.15-5,1.7L7.23,501Zm1.78-6.1,4.07-1.38L9,491.2c-.73-.87-1.29-1.61-1.7-2.19a14.92,14.92,0,0,1,.13,2.51Z"/><path d="M18.07,497.33l-4.08-12,8.67-2.94.48,1.41-7.08,2.41,1.25,3.67,6.63-2.25.48,1.41-6.63,2.25,1.39,4.08,7.36-2.5.48,1.41Z"/><path d="M27.36,489.87l1.45-.64a3.55,3.55,0,0,0,1,1.31,2.9,2.9,0,0,0,1.52.52,4.87,4.87,0,0,0,2-.27A4.6,4.6,0,0,0,34.8,490a2.3,2.3,0,0,0,.79-1.1,1.85,1.85,0,0,0,0-1.14,1.7,1.7,0,0,0-.66-.87,2.56,2.56,0,0,0-1.32-.34,21.1,21.1,0,0,0-2.34.14,11.83,11.83,0,0,1-2.57,0A3.52,3.52,0,0,1,27,486a2.85,2.85,0,0,1-.92-1.35A3.25,3.25,0,0,1,26,482.8a3.42,3.42,0,0,1,1.1-1.71,6.15,6.15,0,0,1,2.06-1.15,6.31,6.31,0,0,1,2.5-.37,3.57,3.57,0,0,1,2,.73A3.85,3.85,0,0,1,34.93,482l-1.49.63A2.59,2.59,0,0,0,32,481.18a3.49,3.49,0,0,0-2.29.13,3.54,3.54,0,0,0-1.91,1.24,1.65,1.65,0,0,0-.23,1.5,1.43,1.43,0,0,0,.83.9,6.61,6.61,0,0,0,2.68.05,15.94,15.94,0,0,1,2.91-.14,3.79,3.79,0,0,1,2,.7,3.09,3.09,0,0,1,1.08,1.53,3.45,3.45,0,0,1,.07,2A3.81,3.81,0,0,1,36,490.93a5.72,5.72,0,0,1-2.15,1.26,7.2,7.2,0,0,1-2.89.45,4,4,0,0,1-2.21-.84A4.26,4.26,0,0,1,27.36,489.87Z"/><path d="M43.43,488.7l-3.59-10.57-4,1.34-.48-1.41,9.5-3.23.48,1.41-4,1.35L45,488.17Z"/><path d="M50.66,486.25l-4.07-12,1.58-.54,1.68,4.92,6.23-2.12-1.67-4.92,1.58-.54,4.08,12-1.59.54-1.92-5.65-6.23,2.12,1.92,5.65Z"/><path d="M62.74,482.14l-4.07-12,8.67-2.95.48,1.42L60.74,471,62,474.7l6.64-2.26.48,1.41-6.64,2.26,1.39,4.08,7.36-2.51.48,1.42Z"/><path d="M76.93,477.32l-3.59-10.58-4,1.35-.48-1.42,9.5-3.23.48,1.41-4,1.35,3.59,10.58Z"/><path d="M84.39,474.79l-4.08-12,1.59-.53,4.07,12Z"/><path d="M95.9,466.18l1.72-.14a5.68,5.68,0,0,1-.78,3.6,5.26,5.26,0,0,1-2.82,2.1,6,6,0,0,1-3.42.28A5.16,5.16,0,0,1,88,470.36a8.63,8.63,0,0,1-1.73-3,7.56,7.56,0,0,1-.39-3.52A5.24,5.24,0,0,1,87.16,461a6.34,6.34,0,0,1,2.67-1.71,5.17,5.17,0,0,1,3.33-.11,5,5,0,0,1,2.59,2l-1.44.89a3.92,3.92,0,0,0-1.86-1.49,3.39,3.39,0,0,0-2.19.08,4.07,4.07,0,0,0-2.09,1.45,3.69,3.69,0,0,0-.7,2.22,8.23,8.23,0,0,0,1.76,4.95,3.46,3.46,0,0,0,2,1.23,4,4,0,0,0,2.22-.12,3.65,3.65,0,0,0,2-1.54A4.19,4.19,0,0,0,95.9,466.18Z"/><path d="M99,465.51l1.45-.63a3.51,3.51,0,0,0,1,1.3,2.87,2.87,0,0,0,1.52.53,4.87,4.87,0,0,0,2-.27,4.62,4.62,0,0,0,1.51-.82,2.32,2.32,0,0,0,.79-1.09,1.85,1.85,0,0,0,0-1.14,1.65,1.65,0,0,0-.67-.88,2.6,2.6,0,0,0-1.32-.34c-.36,0-1.14,0-2.33.14a11.21,11.21,0,0,1-2.57,0,3.38,3.38,0,0,1-1.66-.68,2.94,2.94,0,0,1-.93-1.35,3.3,3.3,0,0,1-.06-1.87,3.42,3.42,0,0,1,1.1-1.71,6.07,6.07,0,0,1,2.06-1.16,6.5,6.5,0,0,1,2.5-.37,3.62,3.62,0,0,1,2,.73,3.81,3.81,0,0,1,1.23,1.69l-1.48.63a2.6,2.6,0,0,0-1.41-1.43,3.42,3.42,0,0,0-2.29.13,3.52,3.52,0,0,0-1.92,1.24,1.65,1.65,0,0,0-.22,1.49,1.41,1.41,0,0,0,.82.91,6.74,6.74,0,0,0,2.69,0,16.93,16.93,0,0,1,2.91-.14,3.88,3.88,0,0,1,2,.7,3.14,3.14,0,0,1,1.08,1.54,3.45,3.45,0,0,1,.07,2,3.85,3.85,0,0,1-1.13,1.85,5.78,5.78,0,0,1-2.15,1.25,7.43,7.43,0,0,1-2.89.46,4.07,4.07,0,0,1-2.21-.84A4.29,4.29,0,0,1,99,465.51Z"/><path d="M4.61,375.09l4.86-12.67h1.81l5.18,12.67H14.55l-1.47-3.84H7.78l-1.39,3.84Zm3.65-5.2h4.3l-1.32-3.51c-.41-1.07-.71-1.94-.9-2.63a15.39,15.39,0,0,1-.69,2.42Z"/><path d="M31.34,373.73a10.18,10.18,0,0,0,2.15,1.18L33,376.07a10.05,10.05,0,0,1-2.72-1.55,6.33,6.33,0,0,1-3.11.78,5.92,5.92,0,0,1-3.12-.83,5.47,5.47,0,0,1-2.16-2.33,7.48,7.48,0,0,1-.75-3.39,7.59,7.59,0,0,1,.76-3.41A5.33,5.33,0,0,1,24.06,363a6.27,6.27,0,0,1,3.14-.8,6.14,6.14,0,0,1,3.16.83,5.44,5.44,0,0,1,2.15,2.33,7.61,7.61,0,0,1,.74,3.39,7.78,7.78,0,0,1-.48,2.81A6,6,0,0,1,31.34,373.73Zm-3.69-2.14A6.12,6.12,0,0,1,30,372.8a5.2,5.2,0,0,0,1.48-4.05,6.55,6.55,0,0,0-.52-2.69,4,4,0,0,0-1.53-1.78,4.37,4.37,0,0,0-5.37.64,6.51,6.51,0,0,0,0,7.63,4,4,0,0,0,3.12,1.32,4.18,4.18,0,0,0,1.69-.34,5.3,5.3,0,0,0-1.66-.72Z"/><path d="M43.81,362.42h1.68v7.32a8.86,8.86,0,0,1-.43,3,3.72,3.72,0,0,1-1.56,1.83,5.52,5.52,0,0,1-3,.7,6,6,0,0,1-2.91-.61A3.47,3.47,0,0,1,36,372.91a8.48,8.48,0,0,1-.48-3.17v-7.32H37.2v7.31a7.21,7.21,0,0,0,.31,2.43,2.39,2.39,0,0,0,1.05,1.21,3.7,3.7,0,0,0,1.83.42A3.51,3.51,0,0,0,43,373a4.85,4.85,0,0,0,.78-3.22Z"/><path d="M48.31,375.09V362.42h9.16v1.5H50v3.88h7v1.48H50v4.31h7.77v1.5Z"/><path d="M60.11,375.09V362.42h9.16v1.5H61.79v3.88h7v1.48h-7v4.31h7.77v1.5Z"/><path d="M71.91,375.09V362.42h5.61a7.6,7.6,0,0,1,2.57.34A2.81,2.81,0,0,1,81.5,364a3.59,3.59,0,0,1,.53,1.91,3.19,3.19,0,0,1-.87,2.27,4.35,4.35,0,0,1-2.7,1.17,4.54,4.54,0,0,1,1,.64,8.57,8.57,0,0,1,1.39,1.68l2.21,3.45H81l-1.68-2.64c-.49-.76-.89-1.34-1.21-1.74a3.54,3.54,0,0,0-.85-.85,2.69,2.69,0,0,0-.76-.34,5.1,5.1,0,0,0-.94-.06H73.58v5.63ZM73.58,368h3.6a5.35,5.35,0,0,0,1.8-.24,1.84,1.84,0,0,0,1-.76,2,2,0,0,0,.34-1.13,1.91,1.91,0,0,0-.65-1.48,3.07,3.07,0,0,0-2.06-.58h-4Z"/><path d="M5.2,414.51a4.73,4.73,0,0,1,1.41-3.77,4.27,4.27,0,0,1,2.89-1A4.1,4.1,0,0,1,12.59,411a4.71,4.71,0,0,1,1.2,3.42,6.16,6.16,0,0,1-.53,2.79,3.75,3.75,0,0,1-1.55,1.58,4.51,4.51,0,0,1-2.21.56,4.12,4.12,0,0,1-3.12-1.24A4.94,4.94,0,0,1,5.2,414.51Zm1.59,0a3.91,3.91,0,0,0,.77,2.64A2.45,2.45,0,0,0,9.5,418a2.43,2.43,0,0,0,1.92-.88,4,4,0,0,0,.77-2.69,3.79,3.79,0,0,0-.77-2.58,2.58,2.58,0,0,0-3.86,0A3.9,3.9,0,0,0,6.79,414.51Z"/><path d="M15.61,419.1v-9.17H17v1.3a3.3,3.3,0,0,1,2.92-1.51,3.83,3.83,0,0,1,1.53.3,2.44,2.44,0,0,1,1,.78A2.92,2.92,0,0,1,23,412a8.54,8.54,0,0,1,.09,1.51v5.64H21.51v-5.58a4.21,4.21,0,0,0-.18-1.42,1.42,1.42,0,0,0-.64-.75,2,2,0,0,0-1.09-.28,2.51,2.51,0,0,0-1.71.63,3.11,3.11,0,0,0-.72,2.39v5Z"/><path d="M33.76,417.71l.23,1.37a5.3,5.3,0,0,1-1.18.14A2.64,2.64,0,0,1,31.5,419a1.49,1.49,0,0,1-.66-.7,5.76,5.76,0,0,1-.19-1.84v-5.27H29.51v-1.21h1.14v-2.28l1.55-.93v3.21h1.56v1.21H32.2v5.36a3,3,0,0,0,.08.86.77.77,0,0,0,.27.3,1.07,1.07,0,0,0,.53.11A5.07,5.07,0,0,0,33.76,417.71Z"/><path d="M35.28,419.1V406.44h1.56V411a3.47,3.47,0,0,1,2.75-1.26,3.67,3.67,0,0,1,1.77.4,2.34,2.34,0,0,1,1.07,1.11,5,5,0,0,1,.33,2.06v5.81H41.2v-5.81a2.43,2.43,0,0,0-.5-1.7,1.91,1.91,0,0,0-1.43-.53,2.5,2.5,0,0,0-1.3.36,2,2,0,0,0-.87,1,4.5,4.5,0,0,0-.26,1.69v5Z"/><path d="M51.4,416.15l1.61.19a3.89,3.89,0,0,1-1.41,2.19,4.77,4.77,0,0,1-5.82-.46,4.89,4.89,0,0,1-1.18-3.48A5,5,0,0,1,45.8,411a4,4,0,0,1,3.09-1.28,3.94,3.94,0,0,1,3,1.25,5,5,0,0,1,1.16,3.53c0,.09,0,.23,0,.41H46.21a3.52,3.52,0,0,0,.86,2.32A2.55,2.55,0,0,0,49,418a2.37,2.37,0,0,0,1.46-.45A2.92,2.92,0,0,0,51.4,416.15Zm-5.1-2.52h5.12a3,3,0,0,0-.59-1.73,2.36,2.36,0,0,0-1.92-.9,2.47,2.47,0,0,0-1.8.71A2.83,2.83,0,0,0,46.3,413.63Z"/><path d="M12.05,438.26l1.61.2a3.89,3.89,0,0,1-1.41,2.19,4.26,4.26,0,0,1-2.62.77,4.21,4.21,0,0,1-3.2-1.24,4.84,4.84,0,0,1-1.17-3.47,5,5,0,0,1,1.19-3.6,4,4,0,0,1,3.09-1.28,3.92,3.92,0,0,1,3,1.26,5,5,0,0,1,1.16,3.52c0,.09,0,.23,0,.42H6.86a3.54,3.54,0,0,0,.86,2.31,2.52,2.52,0,0,0,1.92.8,2.45,2.45,0,0,0,1.46-.44A3,3,0,0,0,12.05,438.26ZM7,435.75h5.12a3.09,3.09,0,0,0-.59-1.74,2.36,2.36,0,0,0-1.92-.9,2.44,2.44,0,0,0-1.8.72A2.83,2.83,0,0,0,7,435.75Z"/><path d="M15.61,441.22V432H17v1.29a3.43,3.43,0,0,1,1.15-1.09,3.27,3.27,0,0,1,1.64-.41,3,3,0,0,1,1.67.43,2.27,2.27,0,0,1,.92,1.18,3.29,3.29,0,0,1,2.83-1.61,2.81,2.81,0,0,1,2.1.76,3.22,3.22,0,0,1,.73,2.33v6.3H26.5v-5.78a4.33,4.33,0,0,0-.15-1.35,1.35,1.35,0,0,0-.55-.66,1.71,1.71,0,0,0-.93-.25,2.16,2.16,0,0,0-1.61.65,2.79,2.79,0,0,0-.64,2.06v5.33H21.06v-6a2.57,2.57,0,0,0-.38-1.55,1.41,1.41,0,0,0-1.24-.52,2.25,2.25,0,0,0-1.21.35,2,2,0,0,0-.81,1,5.6,5.6,0,0,0-.25,1.92v4.76Z"/><path d="M36.63,438.26l1.61.2a4,4,0,0,1-1.41,2.19,4.28,4.28,0,0,1-2.63.77A4.19,4.19,0,0,1,31,440.18a4.84,4.84,0,0,1-1.18-3.47,5.09,5.09,0,0,1,1.19-3.6,4.06,4.06,0,0,1,3.1-1.28,3.9,3.9,0,0,1,3,1.26,5,5,0,0,1,1.17,3.52c0,.09,0,.23,0,.42H31.44a3.54,3.54,0,0,0,.85,2.31,2.55,2.55,0,0,0,1.92.8,2.43,2.43,0,0,0,1.46-.44A2.9,2.9,0,0,0,36.63,438.26Zm-5.1-2.51h5.12a3.16,3.16,0,0,0-.59-1.74,2.38,2.38,0,0,0-1.93-.9,2.47,2.47,0,0,0-1.8.72A2.87,2.87,0,0,0,31.53,435.75Z"/><path d="M40.17,441.22V432h1.4v1.39a3.92,3.92,0,0,1,1-1.29,1.79,1.79,0,0,1,1-.31,3.08,3.08,0,0,1,1.6.5l-.54,1.45a2.18,2.18,0,0,0-1.14-.34,1.43,1.43,0,0,0-.91.31,1.63,1.63,0,0,0-.58.85,5.82,5.82,0,0,0-.26,1.81v4.81Z"/><path d="M45.8,442l1.51.22a1.41,1.41,0,0,0,.53,1,2.56,2.56,0,0,0,1.58.43,2.73,2.73,0,0,0,1.66-.43,2.15,2.15,0,0,0,.8-1.21,9.75,9.75,0,0,0,.11-2,3.21,3.21,0,0,1-2.54,1.21,3.47,3.47,0,0,1-2.93-1.37,5.25,5.25,0,0,1-1-3.27,6.05,6.05,0,0,1,.47-2.43,3.81,3.81,0,0,1,1.38-1.71,3.75,3.75,0,0,1,2.12-.61,3.29,3.29,0,0,1,2.68,1.32V432h1.43V440a7.59,7.59,0,0,1-.43,3,3.31,3.31,0,0,1-1.39,1.41,4.71,4.71,0,0,1-2.32.52,4.43,4.43,0,0,1-2.66-.74A2.48,2.48,0,0,1,45.8,442Zm1.28-5.52a4,4,0,0,0,.72,2.64,2.36,2.36,0,0,0,3.59,0,3.8,3.8,0,0,0,.73-2.58,3.74,3.74,0,0,0-.75-2.54,2.32,2.32,0,0,0-1.8-.86,2.24,2.24,0,0,0-1.76.84A3.77,3.77,0,0,0,47.08,436.46Z"/><path d="M62.2,438.26l1.61.2a3.89,3.89,0,0,1-1.41,2.19,4.28,4.28,0,0,1-2.63.77,4.19,4.19,0,0,1-3.19-1.24,4.84,4.84,0,0,1-1.18-3.47,5.05,5.05,0,0,1,1.2-3.6,4,4,0,0,1,3.09-1.28,3.9,3.9,0,0,1,3,1.26,5,5,0,0,1,1.17,3.52c0,.09,0,.23,0,.42H57a3.49,3.49,0,0,0,.86,2.31,2.52,2.52,0,0,0,1.91.8,2.43,2.43,0,0,0,1.46-.44A2.9,2.9,0,0,0,62.2,438.26Zm-5.1-2.51h5.12a3.16,3.16,0,0,0-.59-1.74,2.37,2.37,0,0,0-1.92-.9,2.48,2.48,0,0,0-1.81.72A2.87,2.87,0,0,0,57.1,435.75Z"/><path d="M65.76,441.22V432h1.4v1.31a3.3,3.3,0,0,1,2.92-1.52,3.78,3.78,0,0,1,1.52.3,2.48,2.48,0,0,1,1.05.78,3,3,0,0,1,.48,1.15,8.54,8.54,0,0,1,.09,1.51v5.65H71.66v-5.59a4.25,4.25,0,0,0-.18-1.42,1.55,1.55,0,0,0-.64-.75,2.13,2.13,0,0,0-1.09-.28,2.51,2.51,0,0,0-1.71.63,3.12,3.12,0,0,0-.72,2.4v5Z"/><path d="M81.59,437.86l1.53.19a4,4,0,0,1-1.29,2.48,3.76,3.76,0,0,1-2.53.89,3.93,3.93,0,0,1-3-1.23,5,5,0,0,1-1.14-3.53,6.38,6.38,0,0,1,.49-2.6,3.4,3.4,0,0,1,1.5-1.67,4.46,4.46,0,0,1,2.19-.56,3.82,3.82,0,0,1,2.44.76A3.48,3.48,0,0,1,83,434.74l-1.51.23a2.51,2.51,0,0,0-.77-1.39,2,2,0,0,0-1.32-.47,2.41,2.41,0,0,0-1.91.84,4,4,0,0,0-.74,2.67,4.16,4.16,0,0,0,.71,2.69,2.32,2.32,0,0,0,1.85.83,2.16,2.16,0,0,0,1.53-.56A2.77,2.77,0,0,0,81.59,437.86Z"/><path d="M90.73,438.26l1.6.2a3.93,3.93,0,0,1-1.4,2.19,4.32,4.32,0,0,1-2.63.77,4.17,4.17,0,0,1-3.19-1.24,4.8,4.8,0,0,1-1.18-3.47,5.09,5.09,0,0,1,1.19-3.6,4,4,0,0,1,3.09-1.28,3.92,3.92,0,0,1,3,1.26,5,5,0,0,1,1.17,3.52c0,.09,0,.23,0,.42H85.53a3.54,3.54,0,0,0,.86,2.31,2.52,2.52,0,0,0,1.92.8,2.45,2.45,0,0,0,1.46-.44A3,3,0,0,0,90.73,438.26Zm-5.11-2.51h5.12a3.17,3.17,0,0,0-.58-1.74,2.39,2.39,0,0,0-1.93-.9,2.46,2.46,0,0,0-1.8.72A2.83,2.83,0,0,0,85.62,435.75Z"/><path d="M98.62,436.63a4.76,4.76,0,0,1,1.42-3.78,4.26,4.26,0,0,1,2.88-1,4.14,4.14,0,0,1,3.1,1.24,4.73,4.73,0,0,1,1.2,3.43,6.08,6.08,0,0,1-.53,2.78,3.75,3.75,0,0,1-1.55,1.58,4.44,4.44,0,0,1-2.22.56,4.13,4.13,0,0,1-3.11-1.23A5,5,0,0,1,98.62,436.63Zm1.6,0a3.94,3.94,0,0,0,.77,2.64,2.47,2.47,0,0,0,1.93.87,2.43,2.43,0,0,0,1.93-.88,4,4,0,0,0,.77-2.68,3.8,3.8,0,0,0-.77-2.58,2.57,2.57,0,0,0-3.86,0A3.92,3.92,0,0,0,100.22,436.63Z"/><path d="M109.41,441.22v-8H108V432h1.37v-1a4.26,4.26,0,0,1,.17-1.38,2,2,0,0,1,.79-1,2.82,2.82,0,0,1,1.58-.37,7.85,7.85,0,0,1,1.45.15l-.23,1.36a5,5,0,0,0-.92-.09,1.37,1.37,0,0,0-1,.3,1.67,1.67,0,0,0-.29,1.13V432h1.79v1.21H111v8Z"/><path d="M15,459l1.67.42a5.62,5.62,0,0,1-1.89,3.15,5.21,5.21,0,0,1-3.35,1.09,6,6,0,0,1-3.33-.84,5.23,5.23,0,0,1-1.95-2.41,8.56,8.56,0,0,1-.67-3.4,7.53,7.53,0,0,1,.75-3.45A5.23,5.23,0,0,1,8.4,451.3a6.27,6.27,0,0,1,3.07-.77,5.15,5.15,0,0,1,3.19,1,5,5,0,0,1,1.81,2.72l-1.65.39a3.94,3.94,0,0,0-1.28-2,3.41,3.41,0,0,0-2.11-.63,4.16,4.16,0,0,0-2.44.69,3.79,3.79,0,0,0-1.38,1.88A7.74,7.74,0,0,0,7.22,457a7.65,7.65,0,0,0,.47,2.82,3.51,3.51,0,0,0,1.46,1.8,4.16,4.16,0,0,0,2.15.59,3.62,3.62,0,0,0,2.39-.81A4.14,4.14,0,0,0,15,459Z"/><path d="M17.36,463.41l4.86-12.66H24l5.18,12.66H27.3l-1.48-3.83H20.53l-1.39,3.83Zm3.65-5.2h4.3L24,454.7c-.4-1.06-.7-1.94-.89-2.62a16.54,16.54,0,0,1-.69,2.42Z"/><path d="M30.5,463.41V450.75H33l3,9c.27.84.48,1.46.6,1.88.15-.46.37-1.14.68-2l3-8.81h2.25v12.66H41v-10.6l-3.68,10.6H35.78l-3.67-10.78v10.78Z"/><path d="M45.29,463.41V450.75h4.77a11.65,11.65,0,0,1,1.93.12,3.77,3.77,0,0,1,1.56.59,3.08,3.08,0,0,1,1,1.22,4.15,4.15,0,0,1-.64,4.46c-.69.75-1.93,1.12-3.72,1.12H47v5.15ZM47,456.77h3.28a3.41,3.41,0,0,0,2.3-.61,2.14,2.14,0,0,0,.69-1.7,2.28,2.28,0,0,0-.41-1.36,1.85,1.85,0,0,0-1-.75,7.67,7.67,0,0,0-1.57-.11H47Z"/><path d="M5.9,510.29V508.5H7.46v1.79Zm0,10.87V512H7.46v9.17Z"/><path d="M9.85,521.16V512h1.4v1.3a3.31,3.31,0,0,1,2.92-1.51,3.78,3.78,0,0,1,1.52.3,2.38,2.38,0,0,1,1,.78,2.91,2.91,0,0,1,.49,1.15,8.82,8.82,0,0,1,.08,1.51v5.64H15.75v-5.58a4.25,4.25,0,0,0-.18-1.42,1.52,1.52,0,0,0-.65-.75,2,2,0,0,0-1.08-.28,2.51,2.51,0,0,0-1.71.63,3.07,3.07,0,0,0-.73,2.39v5Z"/><path d="M33.83,516.72l1.67.43a5.69,5.69,0,0,1-1.89,3.15,5.26,5.26,0,0,1-3.35,1.08,6.09,6.09,0,0,1-3.33-.83A5.14,5.14,0,0,1,25,518.13a8.51,8.51,0,0,1-.67-3.39,7.5,7.5,0,0,1,.75-3.45,5.14,5.14,0,0,1,2.16-2.24,6.27,6.27,0,0,1,3.07-.77,5.21,5.21,0,0,1,3.19,1A5,5,0,0,1,35.29,512l-1.65.39a3.94,3.94,0,0,0-1.28-2,3.41,3.41,0,0,0-2.11-.63,4.09,4.09,0,0,0-2.44.7,3.71,3.71,0,0,0-1.38,1.88,8.24,8.24,0,0,0,.08,5.25,3.51,3.51,0,0,0,1.46,1.8,4.08,4.08,0,0,0,2.15.6,3.58,3.58,0,0,0,2.39-.82A4.14,4.14,0,0,0,33.83,516.72Z"/><path d="M37.69,521.16V508.5h1.67v5.2H46v-5.2h1.67v12.66H46v-6H39.36v6Z"/><path d="M50.72,521.16V508.5h1.67v12.66Z"/><path d="M57.17,520.94,54,508.68l1.62-.42,2.78,10.82,6-1.55.37,1.45Z"/><path d="M67.71,517.88,63,506.14l4-1.64a11.2,11.2,0,0,1,2.16-.67,4.33,4.33,0,0,1,2.07.14,5.23,5.23,0,0,1,2.19,1.45A8.41,8.41,0,0,1,75,508a9,9,0,0,1,.65,2.5,6.28,6.28,0,0,1-.11,2,4.31,4.31,0,0,1-1.8,2.66,9.24,9.24,0,0,1-1.81,1Zm1-2,2.5-1a6.46,6.46,0,0,0,1.74-1,2.92,2.92,0,0,0,.81-1A4.09,4.09,0,0,0,74,511a7.87,7.87,0,0,0-.61-2.38,5.86,5.86,0,0,0-1.75-2.59,3.25,3.25,0,0,0-2-.73,6.67,6.67,0,0,0-2.11.57l-2.47,1Z"/><path d="M79.12,512.41l-3.39-12.2,5.41-1.5a7.37,7.37,0,0,1,2.57-.37,2.86,2.86,0,0,1,1.68.79,3.61,3.61,0,0,1,1,1.7,3.21,3.21,0,0,1-.23,2.42,4.42,4.42,0,0,1-2.28,1.85,4.45,4.45,0,0,1,1.14.34,8.7,8.7,0,0,1,1.79,1.25l3,2.73-2,.56-2.32-2.08a20.43,20.43,0,0,0-1.64-1.36,4,4,0,0,0-1-.59,2.46,2.46,0,0,0-.83-.12,5.26,5.26,0,0,0-.91.19l-1.88.52L80.74,512Zm-.28-7.26,3.47-1a5.2,5.2,0,0,0,1.67-.71,1.9,1.9,0,0,0,.74-1,2.06,2.06,0,0,0,0-1.18,1.93,1.93,0,0,0-1-1.25,3,3,0,0,0-2.14,0l-3.86,1.07Z"/><path d="M89.19,511l4.74-11.74,8.49,3.43-.56,1.38-6.94-2.8-1.45,3.6,6.5,2.62-.56,1.38-6.49-2.62-1.62,4,7.21,2.91L98,514.58Z"/><path d="M99.16,515.14l8-9.78,1.33,1.1-1.19,11.9,6.32-7.68,1.24,1-8,9.78-1.33-1.09,1.19-11.91-6.33,7.68Z"/><path d="M114.26,520.46l1.54-.35a3.6,3.6,0,0,0,.73,1.48,2.9,2.9,0,0,0,1.4.8,5.17,5.17,0,0,0,3.61-.4,2.31,2.31,0,0,0,1-.92,1.87,1.87,0,0,0,.21-1.13,1.61,1.61,0,0,0-.48-1,2.62,2.62,0,0,0-1.23-.59,22.13,22.13,0,0,0-2.32-.3,11.66,11.66,0,0,1-2.53-.46,3.48,3.48,0,0,1-1.5-1,3,3,0,0,1-.65-1.51,3.15,3.15,0,0,1,.3-1.85,3.33,3.33,0,0,1,1.4-1.46,6.1,6.1,0,0,1,2.25-.75,6.51,6.51,0,0,1,2.52.12,3.56,3.56,0,0,1,1.82,1.1,3.85,3.85,0,0,1,.88,1.89l-1.57.34a2.63,2.63,0,0,0-1.12-1.68,3.4,3.4,0,0,0-2.27-.31,3.58,3.58,0,0,0-2.12.85,1.63,1.63,0,0,0-.5,1.42,1.42,1.42,0,0,0,.64,1.05,6.54,6.54,0,0,0,2.62.55,17.57,17.57,0,0,1,2.89.43,3.81,3.81,0,0,1,1.79,1.06,3.12,3.12,0,0,1,.76,1.71,3.49,3.49,0,0,1-.31,2,3.91,3.91,0,0,1-1.46,1.6,5.91,5.91,0,0,1-2.36.82,7.29,7.29,0,0,1-2.92-.11,4.06,4.06,0,0,1-2-1.25A4.22,4.22,0,0,1,114.26,520.46Z"/><path d="M8.81,543.73V532.56H4.64v-1.49h10v1.49H10.49v11.17Z"/><path d="M16.43,543.73V531.07h9.16v1.49H18.11v3.88h7v1.49h-7v4.31h7.77v1.49Z"/><path d="M28.13,543.73V531.07h1.68v11.17H36v1.49Z"/><path d="M38.07,543.73V531.07h9.16v1.49H39.75v3.88h7v1.49h-7v4.31h7.77v1.49Z"/><path d="M53.46,543.73l-4.91-12.66h1.82l3.29,9.2q.41,1.11.66,2.07.3-1,.69-2.07l3.42-9.2h1.71l-5,12.66Z"/><path d="M61.93,543.73V531.07H63.6v12.66Z"/><path d="M66,539.66l1.58-.13a3.42,3.42,0,0,0,.52,1.55,2.89,2.89,0,0,0,1.27,1,4.88,4.88,0,0,0,2,.38,4.64,4.64,0,0,0,1.69-.29,2.3,2.3,0,0,0,1.09-.78,1.8,1.8,0,0,0,.36-1.09,1.66,1.66,0,0,0-.34-1,2.59,2.59,0,0,0-1.14-.74,20.11,20.11,0,0,0-2.26-.62,11.3,11.3,0,0,1-2.44-.79,3.46,3.46,0,0,1-1.36-1.18,3,3,0,0,1-.44-1.58,3.24,3.24,0,0,1,.54-1.79,3.44,3.44,0,0,1,1.59-1.27,6.72,6.72,0,0,1,4.81,0,3.49,3.49,0,0,1,1.65,1.33,3.82,3.82,0,0,1,.63,2l-1.61.12a2.62,2.62,0,0,0-.88-1.82,3.38,3.38,0,0,0-2.2-.61,3.58,3.58,0,0,0-2.22.56,1.68,1.68,0,0,0-.7,1.34,1.44,1.44,0,0,0,.5,1.12,6.51,6.51,0,0,0,2.52.91,16.16,16.16,0,0,1,2.81.8,3.76,3.76,0,0,1,1.63,1.3,3.15,3.15,0,0,1,.53,1.8,3.42,3.42,0,0,1-.58,1.9,3.81,3.81,0,0,1-1.66,1.39,5.86,5.86,0,0,1-2.45.5,7.4,7.4,0,0,1-2.88-.5,4.1,4.1,0,0,1-1.82-1.51A4.25,4.25,0,0,1,66,539.66Z"/><path d="M78.64,543.73V531.07h1.68v12.66Z"/><path d="M82.76,537.56a6.91,6.91,0,0,1,1.69-4.93,5.79,5.79,0,0,1,4.38-1.79,6,6,0,0,1,3.16.84A5.45,5.45,0,0,1,94.13,534a8.12,8.12,0,0,1,0,6.84,5.31,5.31,0,0,1-2.21,2.31,6.28,6.28,0,0,1-3.07.78,6,6,0,0,1-3.2-.87,5.5,5.5,0,0,1-2.13-2.35A7.09,7.09,0,0,1,82.76,537.56Zm1.73,0a5.08,5.08,0,0,0,1.23,3.61,4.3,4.3,0,0,0,6.2,0,5.33,5.33,0,0,0,1.23-3.77,6.47,6.47,0,0,0-.53-2.7,3.89,3.89,0,0,0-1.53-1.79,4.16,4.16,0,0,0-2.26-.63,4.27,4.27,0,0,0-3.06,1.22C84.92,534.32,84.49,535.68,84.49,537.59Z"/><path d="M97,543.73V531.07h1.71l6.66,9.94v-9.94H107v12.66h-1.72l-6.65-10v10Z"/><circle class="cls-2" cx="66.58" cy="929.78" r="62.48"/><path class="cls-3" d="M129.17,929.78A62.49,62.49,0,0,0,66.69,867.3v125A62.48,62.48,0,0,0,129.17,929.78Z"/><path d="M57,47.23v-4.5q0-5.1.79-6.73c.52-1.09,1.6-1.64,3.22-1.64a3,3,0,0,1,3.07,1.7q.77,1.69.77,6.7v4.47c0,3.08-.27,5.18-.83,6.3a3.13,3.13,0,0,1-3.11,1.69,3.12,3.12,0,0,1-3.11-1.62Q57,52,57,47.23Zm3-4.43v3.76c0,2,.32,2.95,1,2.95s.92-1,.92-3V42.67l0-.88v-.6c0-.85-.34-1.28-.9-1.28S60,40.88,60,42.8Z"/><path d="M76.55,34.69v5.16h-1v15H72.47l-3.41-16V49.49h1.16V54.9H66.13V49.49h1V39.85h-1V34.69H70.6l3,14.12v-9H72.47V34.69Z"/><path d="M26.89,75.35c.11,1.14.16,2.1.16,2.9q0,4.78-2.27,4.79c-1.46,0-2.18-1.66-2.18-5V76.73l0-1.35c0-1.21-.58-1.82-1.75-1.82h-.26v3.91h1.06v5.41h-4.9V77.48h1V67.84h-1V62.68h4.59c1.67,0,2.78.35,3.35,1.07s.84,2.14.84,4.26c0,2.57-.78,4-2.36,4.42l-.33.08c1.34.22,2,.83,2.11,1.82l.08,1.39.06,1.11c0,.56.18.85.47.85s.61-.67.61-2v-.33Zm-6.27-3.77h.32c1.26,0,1.9-.59,1.9-1.75,0-1.33-.62-2-1.84-2h-.38Z"/><path d="M35.85,62.68v8.08H33.51V67.84h-2v3.63H34v2.07H31.53v3.94h2V74.54H36v8.35H27.72V77.48h1V67.84h-1V62.68Z"/><path d="M37.2,62.68H41c2,0,3.33.44,3.92,1.33s.89,2.85.89,5.89v4.65q0,5.37-.85,6.86c-.57,1-1.89,1.48-4,1.48H37.2V77.48h1V67.84h-1ZM41,67.84v9.64h.43c.63,0,1-.14,1.18-.41A5.69,5.69,0,0,0,42.85,75V70.88a7.93,7.93,0,0,0-.23-2.55c-.16-.32-.56-.49-1.22-.49Z"/><path d="M61.09,77.48v5.41h-4.9V77.48h1V67.84h-1V62.68h4c1.74,0,2.9.41,3.48,1.24s.88,2.48.88,5c0,2.15-.26,3.57-.78,4.27s-1.58,1-3.18,1H60v3.3ZM60,67.84V72h.61c.84,0,1.25-.65,1.25-1.95s-.48-2.17-1.46-2.17Z"/><path d="M74.05,62.68v5.16H73V79.05l-.13,1.51a3,3,0,0,1-3.24,2.65q-3.45,0-3.45-4.41v-11h-1V62.68h4.5v5.16H69v6.83c0,1.88.3,2.83.88,2.83s1-1,1-2.93V67.84h-.65V62.68Z"/><path d="M85.14,75.35c.11,1.14.16,2.1.16,2.9Q85.3,83,83,83t-2.18-5l0-1.33,0-1.35a1.58,1.58,0,0,0-1.75-1.82h-.27v3.91h1.07v5.41H75V77.48h1V67.84H75V62.68h4.59c1.67,0,2.78.35,3.34,1.07s.85,2.14.85,4.26c0,2.57-.79,4-2.36,4.42l-.34.08c1.35.22,2,.83,2.12,1.82l.07,1.39.06,1.11c0,.56.19.85.48.85s.6-.67.6-2v-.33Zm-6.28-3.77h.33c1.26,0,1.89-.59,1.89-1.75,0-1.33-.61-2-1.83-2h-.39Z"/><path d="M93.14,62.68V69.8h-2.7l0-.53c-.06-.92-.32-1.38-.77-1.38s-.83.35-.83,1A2.51,2.51,0,0,0,90.23,71a8,8,0,0,1,2.88,2.6,9.65,9.65,0,0,1,.62,4.12q0,5.46-2.79,5.46a2.7,2.7,0,0,1-2.4-1.76v1.44H86V75.2h2.53v.3c0,1.33.35,2,1.06,2s1-.47,1-1.41a2.49,2.49,0,0,0-1.12-2.2l-1.48-1c-1.48-1-2.22-2.69-2.22-5,0-3.67.91-5.5,2.71-5.5.9,0,1.61.58,2.13,1.76V62.68Z"/><path d="M102.73,62.68v8.08h-2.34V67.84h-2v3.63h2.47v2.07H98.41v3.94h2V74.54h2.53v8.35H94.6V77.48h1V67.84h-1V62.68Z"/><path d="M111.24,62.68V69.8h-2.69l0-.53c-.06-.92-.32-1.38-.77-1.38s-.83.35-.83,1A2.51,2.51,0,0,0,108.34,71a8,8,0,0,1,2.88,2.6,9.65,9.65,0,0,1,.62,4.12q0,5.46-2.79,5.46a2.7,2.7,0,0,1-2.4-1.76v1.44h-2.53V75.2h2.53v.3c0,1.33.35,2,1,2s1-.47,1-1.41a2.48,2.48,0,0,0-1.11-2.2l-1.48-1c-1.48-1-2.22-2.69-2.22-5,0-3.67.91-5.5,2.71-5.5.9,0,1.61.58,2.13,1.76V62.68Z"/><path d="M116,78.64v3q0,4.5-2.82,4.76V84.8a1.86,1.86,0,0,0,1-1.91h-1V78.64Z"/><path d="M18.33,90.67v5.16h-.88l-2.27,6.08v3.56h1v5.41h-4.9v-5.41h1.08v-3.56L9.87,95.83H9.1V90.67h4.5v5.16h-.77l1.08,3.48,1.27-3.48h-.93V90.67Z"/><path d="M27.28,90.67v8.08H24.94V95.83H23v3.63h2.48v2.08H23v3.93h2v-2.94h2.53v8.35H19.15v-5.41h1V95.83h-1V90.67Z"/><path d="M37,101.54v9.34H28.63v-5.41h1V95.83h-1V90.67h4.9v5.16H32.46v9.64h2v-3.93Z"/><path d="M46.27,101.54v9.34H37.92v-5.41h1V95.83h-1V90.67h4.91v5.16H41.76v9.64h2v-3.93Z"/><path d="M47.31,103.21v-4.5q0-5.1.79-6.73c.52-1.09,1.6-1.64,3.22-1.64A3,3,0,0,1,54.39,92q.77,1.69.77,6.7v4.47q0,4.62-.83,6.31a3.15,3.15,0,0,1-3.11,1.68,3.13,3.13,0,0,1-3.12-1.62Q47.31,108,47.31,103.21Zm3-4.43v3.76c0,2,.32,2.95,1,2.95s.92-1,.92-3V98.65l0-.88v-.6c0-.85-.34-1.28-.9-1.28S50.29,96.86,50.29,98.78Z"/><path d="M69.08,90.67v5.16h-1l-2,15H63.66l-1-8.41-1,8.41H59.08l-2-15h-1V90.67h4.29v5.16h-.65l.93,8.06,1-8.06h-.71V90.67H65v5.16h-.7l.94,7.82.91-7.82H65.5V90.67Z"/><path d="M86.15,90.67v7.12h-2.7l0-.53c-.06-.92-.32-1.38-.77-1.38s-.83.35-.83,1.05A2.51,2.51,0,0,0,83.25,99a7.93,7.93,0,0,1,2.87,2.6,9.68,9.68,0,0,1,.62,4.12q0,5.46-2.78,5.46a2.69,2.69,0,0,1-2.4-1.76v1.44H79v-7.69h2.53v.3c0,1.33.35,2,1,2s1-.47,1-1.41a2.49,2.49,0,0,0-1.11-2.2l-1.49-1c-1.48-1-2.21-2.69-2.21-5q0-5.51,2.7-5.5c.9,0,1.61.58,2.13,1.76V90.67Z"/><path d="M87.7,103.21v-4.5q0-5.1.79-6.73c.52-1.09,1.6-1.64,3.22-1.64A3,3,0,0,1,94.78,92q.77,1.69.77,6.7v4.47q0,4.62-.83,6.31a3.77,3.77,0,0,1-6.23.06Q87.7,108,87.7,103.21Zm3-4.43v3.76c0,2,.32,2.95,1,2.95s.93-1,.93-3V98.65l0-.88v-.6c0-.85-.34-1.28-.9-1.28S90.68,96.86,90.68,98.78Z"/><path d="M102,91.82V90.67h2.53v8.08H102v-.37c0-1.66-.34-2.49-1-2.49-.46,0-.75.28-.85.83a35.55,35.55,0,0,0-.16,4.61c0,2.77.34,4.16,1,4.16s.93-.77.93-2.31v-1.6h2.78c.1,1.08.15,2.16.15,3.26q0,6.36-3.84,6.36c-1.75,0-2.87-.6-3.34-1.82s-.72-4-.72-8.42.2-7.1.61-8.51A2.45,2.45,0,0,1,100,90.34,2.12,2.12,0,0,1,102,91.82Z"/><path d="M115.14,90.67v5.16h-1.08L112.16,99l2.46,6.45h.82v5.41h-4.39v-5.41h.79l-1.53-4-.7,1.42v2.6h.7v5.41h-4.5v-5.41h1V95.83h-1V90.67h4.5v5.16h-.7v3.74L112,95.83h-.93V90.67Z"/><path d="M123.54,90.67v7.12h-2.7l0-.53c-.06-.92-.32-1.38-.77-1.38s-.83.35-.83,1.05A2.51,2.51,0,0,0,120.63,99a8,8,0,0,1,2.88,2.6,9.68,9.68,0,0,1,.62,4.12q0,5.46-2.79,5.46a2.71,2.71,0,0,1-2.4-1.76v1.44h-2.52v-7.69h2.52v.3c0,1.33.35,2,1.06,2s1-.47,1-1.41a2.5,2.5,0,0,0-1.12-2.2l-1.48-1c-1.48-1-2.22-2.69-2.22-5,0-3.67.91-5.5,2.71-5.5.9,0,1.61.58,2.13,1.76V90.67Z"/><path d="M72.79,124.63v3.22h-.9a19.82,19.82,0,0,1-2,5.81l-.22.43c.86,2,1.91,3.21,3.12,3.51v1.27H68.48l-.63-1.73a4,4,0,0,1-3.13,2.05q-4.09,0-4.1-6.33,0-4.58,2.74-6.24l.3-.17a.77.77,0,0,1,.17-.14l-.44-1.21a7.35,7.35,0,0,1-.47-2.52q0-4.24,3.45-4.25,3.22,0,3.22,3.57,0,2.76-2.88,4.87l2,5.1a11.51,11.51,0,0,0,1.45-4h-.65v-3.22Zm-6,9.52-2.12-5.75a3.9,3.9,0,0,0-1.28,3c0,2.26.65,3.39,2,3.39A1.84,1.84,0,0,0,66.75,134.15Zm-.79-9a2.27,2.27,0,0,0,1.1-1.79c0-.64-.28-1-.83-1s-.78.32-.78.94A5.57,5.57,0,0,0,66,125.13Z"/><path d="M48.12,146.65h3.82c1.89,0,3.14.34,3.73,1s.9,2.11.9,4.29a7.5,7.5,0,0,1-.48,3.27,2.75,2.75,0,0,1-2,1.15,3.51,3.51,0,0,1,2.21,1.29,8.32,8.32,0,0,1,.46,3.44c0,2.31-.3,3.85-.9,4.61s-1.8,1.14-3.62,1.14H48.12v-5.4h1v-9.64h-1Zm3.82,5.17v3.51h.53c.78,0,1.17-.6,1.17-1.78s-.42-1.73-1.25-1.73Zm0,5.73v3.91h.45c1,0,1.42-.72,1.42-2.14,0-1.18-.47-1.77-1.43-1.77Z"/><path d="M58,159.19v-4.5q0-5.1.78-6.73c.52-1.09,1.6-1.64,3.23-1.64a3,3,0,0,1,3.07,1.7q.76,1.69.77,6.7v4.47q0,4.62-.83,6.31a3.16,3.16,0,0,1-3.12,1.69,3.12,3.12,0,0,1-3.11-1.63Q58,163.94,58,159.19Zm3-4.43v3.76c0,2,.32,2.95,1,2.95s.92-1,.92-3v-3.86l0-.87v-.61c-.05-.85-.35-1.27-.91-1.27S61,152.84,61,154.76Z"/><path d="M75.5,157.52v9.34H67.14v-5.4h1v-9.64h-1v-5.17h4.91v5.17H71v9.64h2v-3.94Z"/><path d="M76.44,146.65h3.82c2,0,3.34.44,3.93,1.33s.89,2.85.89,5.89v4.65c0,3.59-.29,5.87-.86,6.86s-1.89,1.48-4,1.48H76.44v-5.4h1v-9.64h-1Zm3.82,5.17v9.64l.43,0c.63,0,1-.14,1.18-.41a5.61,5.61,0,0,0,.23-2.09v-4.09a7.81,7.81,0,0,0-.24-2.55c-.15-.32-.56-.48-1.21-.48Z"/><path d="M4.82,174.64H8.64c1.89,0,3.14.34,3.74,1s.89,2.11.89,4.3a7.47,7.47,0,0,1-.48,3.26,2.75,2.75,0,0,1-2,1.15,3.48,3.48,0,0,1,2.2,1.29,8.17,8.17,0,0,1,.46,3.45c0,2.31-.3,3.84-.9,4.6s-1.8,1.14-3.62,1.14H4.82v-5.4h1v-9.64h-1Zm3.82,5.17v3.51h.53c.78,0,1.17-.6,1.17-1.78s-.42-1.73-1.24-1.73Zm0,5.73v3.91H9.1c.94,0,1.42-.71,1.42-2.14q0-1.77-1.44-1.77Z"/><path d="M22.74,174.64v8.08H20.41v-2.91h-2v3.62h2.47v2.08H18.42v3.94h2V186.5h2.53v8.35H14.62v-5.4h1v-9.64h-1v-5.17Z"/><path d="M32.22,174.64v8.08H29.88v-2.91h-2v3.62h2.47v2.08H27.9v3.94h2V186.5h2.54v8.35H24.09v-5.4h1v-9.64h-1v-5.17Z"/><path d="M43,174.64v5.17H42v9.64h1v5.4H38.68v-5.4h.47v-3.94H37.37v3.94h.49v5.4H33.57v-5.4h1v-9.64h-1v-5.17h4.29v5.17h-.49v3.62h1.78v-3.62h-.47v-5.17Z"/><path d="M49,174.64v5.17H48v9.64H49v5.4h-4.9v-5.4h1v-9.64h-1v-5.17Z"/><path d="M58.87,174.64v5.17h-.72l-1.94,15H52.82l-2.1-15h-.88v-5.17h4.5v5.17h-.86l1.6,10.49,1.13-10.49H55.08v-5.17Z"/><path d="M67.81,174.64v8.08H65.48v-2.91h-2v3.62H66v2.08H63.49v3.94h2V186.5H68v8.35H59.69v-5.4h1v-9.64h-1v-5.17Z"/><path d="M86.87,174.64v5.17h-1V191l-.13,1.51a3,3,0,0,1-3.24,2.65q-3.45,0-3.45-4.42V179.81h-1v-5.17h4.5v5.17h-.68v6.82c0,1.89.29,2.83.87,2.83s1-1,1-2.93v-6.72h-.65v-5.17Z"/><path d="M92.75,189.45v5.4h-4.9v-5.4h1v-9.64h-1v-5.17h4c1.74,0,2.9.41,3.48,1.24s.88,2.48.88,5c0,2.15-.26,3.57-.78,4.27s-1.58,1-3.18,1h-.64v3.31Zm-1.1-9.64v4.11h.61q1.26,0,1.26-1.95c0-1.44-.49-2.16-1.46-2.16Z"/><path d="M97.09,174.64h3.82c2,0,3.33.44,3.92,1.33s.89,2.86.89,5.9v4.64c0,3.59-.28,5.87-.85,6.86s-1.89,1.48-4,1.48H97.09v-5.4h1v-9.64h-1Zm3.82,5.17v9.64l.43,0c.63,0,1-.13,1.18-.41a5.69,5.69,0,0,0,.22-2.09v-4.09a7.81,7.81,0,0,0-.23-2.54c-.16-.33-.56-.49-1.21-.49Z"/><path d="M107.08,187.18v-4.5c0-3.4.27-5.64.79-6.73s1.6-1.64,3.22-1.64a3,3,0,0,1,3.07,1.7q.77,1.69.77,6.7v4.47q0,4.62-.83,6.31a3.75,3.75,0,0,1-6.23.06C107.35,192.47,107.08,190.35,107.08,187.18Zm3-4.43v3.76c0,2,.32,3,1,3s.92-1,.92-3v-3.86l0-.87v-.61c0-.85-.34-1.27-.9-1.27S110.06,180.83,110.06,182.75Z"/><path d="M119.29,174.64v2.68q0,4-2.54,4.25V180.1a1.63,1.63,0,0,0,.9-1.71h-.9v-3.75Z"/><path d="M128.18,174.64v7.12h-2.69l0-.53c-.06-.92-.32-1.38-.77-1.38s-.83.35-.83,1.05a2.49,2.49,0,0,0,1.43,2.09,8,8,0,0,1,2.88,2.6,9.68,9.68,0,0,1,.62,4.12c0,3.64-.93,5.47-2.79,5.47a2.7,2.7,0,0,1-2.4-1.77v1.44h-2.53v-7.68h2.53v.29c0,1.33.35,2,1,2s1-.47,1-1.41a2.49,2.49,0,0,0-1.11-2.2l-1.48-1q-2.22-1.53-2.22-5,0-5.51,2.71-5.51c.9,0,1.61.59,2.13,1.76v-1.42Z"/><rect x="4.49" y="680.05" width="124.62" height="13.27"/><path d="M5,836.76V824.1H7.51l3,9c.28.83.48,1.46.6,1.87.15-.46.37-1.13.68-2l3-8.81h2.25v12.66H15.46V826.17l-3.68,10.59H10.27L6.6,826v10.78Z"/><path d="M20.06,836.76V824.1h1.68v12.66Z"/><path d="M24.62,836.76V824.1H26.3v6.28l6.29-6.28h2.27l-5.31,5.13,5.54,7.53H32.88l-4.51-6.41-2.07,2v4.38Z"/><path d="M35.1,836.76,40,824.1h1.8L47,836.76H45.05l-1.48-3.83h-5.3l-1.39,3.83Zm3.66-5.2h4.29l-1.32-3.5c-.41-1.07-.7-1.94-.9-2.63a16.5,16.5,0,0,1-.68,2.42Z"/><path d="M46.5,854.81l1.58-.14a3.31,3.31,0,0,0,.52,1.56,2.83,2.83,0,0,0,1.27,1,4.88,4.88,0,0,0,2,.37,4.64,4.64,0,0,0,1.69-.28,2.35,2.35,0,0,0,1.09-.78,1.83,1.83,0,0,0,.36-1.09,1.64,1.64,0,0,0-.34-1,2.73,2.73,0,0,0-1.14-.75c-.34-.13-1.1-.33-2.26-.61a11.9,11.9,0,0,1-2.44-.79,3.46,3.46,0,0,1-1.36-1.18,3,3,0,0,1-.44-1.58,3.21,3.21,0,0,1,.54-1.79,3.44,3.44,0,0,1,1.59-1.27,6,6,0,0,1,2.33-.43,6.38,6.38,0,0,1,2.48.45,3.57,3.57,0,0,1,1.65,1.34,3.81,3.81,0,0,1,.63,2l-1.61.12a2.6,2.6,0,0,0-.88-1.81,3.39,3.39,0,0,0-2.2-.61,3.55,3.55,0,0,0-2.22.55,1.7,1.7,0,0,0-.7,1.35,1.44,1.44,0,0,0,.5,1.12,6.55,6.55,0,0,0,2.52.9,16.87,16.87,0,0,1,2.81.81,3.87,3.87,0,0,1,1.63,1.29,3.17,3.17,0,0,1,.53,1.8,3.51,3.51,0,0,1-.58,1.91,3.85,3.85,0,0,1-1.67,1.39,5.78,5.78,0,0,1-2.44.5,7.21,7.21,0,0,1-2.88-.51,4,4,0,0,1-1.82-1.5A4.25,4.25,0,0,1,46.5,854.81Z"/><path d="M67.9,854.44l1.68.42a5.64,5.64,0,0,1-1.9,3.15,5.24,5.24,0,0,1-3.35,1.09,6,6,0,0,1-3.33-.84,5.23,5.23,0,0,1-2-2.41,8.59,8.59,0,0,1-.67-3.4,7.4,7.4,0,0,1,.76-3.45,5.17,5.17,0,0,1,2.15-2.24,6.27,6.27,0,0,1,3.07-.76,5.18,5.18,0,0,1,3.2,1,5,5,0,0,1,1.8,2.72l-1.65.39a4,4,0,0,0-1.28-2,3.47,3.47,0,0,0-2.1-.63,4.17,4.17,0,0,0-2.45.7A3.72,3.72,0,0,0,60.51,850a7.46,7.46,0,0,0-.4,2.43,7.78,7.78,0,0,0,.47,2.82A3.5,3.5,0,0,0,62,857.07a4.2,4.2,0,0,0,2.16.59,3.59,3.59,0,0,0,2.38-.81A4.14,4.14,0,0,0,67.9,854.44Z"/><path d="M71.69,858.88V846.22h1.68v5.2H80v-5.2h1.68v12.66H80v-6H73.37v6Z"/><path d="M83,858.88l4.86-12.66H89.7l5.18,12.66H93L91.49,855H86.2l-1.39,3.84Zm3.65-5.2H91l-1.33-3.51c-.4-1.06-.7-1.94-.89-2.62a16.08,16.08,0,0,1-.69,2.41Z"/><path d="M96.15,858.88V846.22h1.68v11.17h6.23v1.49Z"/><path d="M106,858.88V846.22h1.68v6.28l6.28-6.28h2.28l-5.32,5.13,5.55,7.53h-2.21l-4.51-6.41-2.07,2v4.39Z"/><path d="M117.29,854.81l1.58-.14a3.55,3.55,0,0,0,.52,1.56,2.86,2.86,0,0,0,1.28,1,4.8,4.8,0,0,0,1.94.37,4.64,4.64,0,0,0,1.69-.28,2.38,2.38,0,0,0,1.1-.78,1.82,1.82,0,0,0,.35-1.09,1.64,1.64,0,0,0-.34-1,2.6,2.6,0,0,0-1.14-.75c-.34-.13-1.09-.33-2.26-.61a12.12,12.12,0,0,1-2.44-.79,3.36,3.36,0,0,1-1.35-1.18,2.88,2.88,0,0,1-.45-1.58,3.15,3.15,0,0,1,.55-1.79,3.34,3.34,0,0,1,1.59-1.27,6,6,0,0,1,2.32-.43,6.34,6.34,0,0,1,2.48.45,3.65,3.65,0,0,1,1.66,1.34,3.89,3.89,0,0,1,.62,2l-1.61.12a2.55,2.55,0,0,0-.87-1.81,3.42,3.42,0,0,0-2.21-.61,3.59,3.59,0,0,0-2.22.55,1.69,1.69,0,0,0-.69,1.35,1.43,1.43,0,0,0,.49,1.12,6.55,6.55,0,0,0,2.53.9,17,17,0,0,1,2.8.81,3.81,3.81,0,0,1,1.63,1.29,3.1,3.1,0,0,1,.53,1.8,3.42,3.42,0,0,1-.58,1.91,3.87,3.87,0,0,1-1.66,1.39,5.85,5.85,0,0,1-2.44.5,7.14,7.14,0,0,1-2.88-.51,4,4,0,0,1-1.83-1.5A4.25,4.25,0,0,1,117.29,854.81Z"/></svg>