<svg id="Laag_1" data-name="Laag 1" xmlns="http://www.w3.org/2000/svg" xmlns:xlink="http://www.w3.org/1999/xlink" viewBox="0 0 341.55 510.06"><defs><style>.cls-1,.cls-5{fill:none;}.cls-2{fill:#ff0;}.cls-3{fill:#1d1d1b;}.cls-4{clip-path:url(#clip-path);}.cls-5{stroke:#000;stroke-width:7px;}</style><clipPath id="clip-path"><rect class="cls-1" x="98.14" y="303.01" width="145.28" height="170.78"/></clipPath></defs><path class="cls-2" d="M281.61,0H59.94A60,60,0,0,0,0,59.94V450.11a60,60,0,0,0,59.94,59.95H281.61a60,60,0,0,0,59.94-59.95V59.94A60,60,0,0,0,281.61,0ZM296.4,75.16H266.63v38.28H296.4V203.7H247.6v39.57h36.34V359.65H64.45v-41H54.06V256.46H64.45V243.27H95.94V203.7H47.14V149.34H31.56V111.07H47.14V40.78H296.4Z"/><path class="cls-3" d="M131.5,423.7v-7.16h1.43l1.69,5.07c.16.47.27.83.35,1.06.08-.26.2-.64.38-1.14l1.71-5h1.27v7.16h-.91v-6l-2.08,6h-.85l-2.07-6.09v6.09Z"/><path class="cls-3" d="M140,423.7v-7.16H141v7.16Z"/><path class="cls-3" d="M142.6,423.7v-7.16h1v3.55l3.55-3.55h1.29l-3,2.91,3.13,4.25h-1.25l-2.55-3.62-1.17,1.14v2.48Z"/><path class="cls-3" d="M148.52,423.7l2.75-7.16h1l2.93,7.16h-1.08l-.83-2.17h-3l-.79,2.17Zm2.07-2.94H153l-.75-2c-.23-.6-.4-1.1-.51-1.48a9.49,9.49,0,0,1-.38,1.36Z"/><path class="cls-3" d="M164.58,421.4l.9-.08a2,2,0,0,0,.29.89,1.65,1.65,0,0,0,.72.55,2.77,2.77,0,0,0,1.1.22,2.61,2.61,0,0,0,1-.17,1.24,1.24,0,0,0,.61-.44,1,1,0,0,0,.21-.61.94.94,0,0,0-.2-.59,1.37,1.37,0,0,0-.64-.42,11.65,11.65,0,0,0-1.28-.35,6.65,6.65,0,0,1-1.38-.45,1.92,1.92,0,0,1-.76-.66,1.65,1.65,0,0,1-.26-.89,1.88,1.88,0,0,1,.31-1,2,2,0,0,1,.9-.71,3.29,3.29,0,0,1,1.31-.25,3.62,3.62,0,0,1,1.41.26,2,2,0,0,1,.93.75,2.22,2.22,0,0,1,.36,1.13l-.91.07a1.51,1.51,0,0,0-.5-1,1.94,1.94,0,0,0-1.25-.34,2,2,0,0,0-1.25.31,1,1,0,0,0-.39.76.81.81,0,0,0,.28.64,3.91,3.91,0,0,0,1.43.51,9.24,9.24,0,0,1,1.58.45,2.25,2.25,0,0,1,.92.73,1.8,1.8,0,0,1,.3,1,2,2,0,0,1-.33,1.08,2.08,2.08,0,0,1-.94.78,3.24,3.24,0,0,1-1.38.28,4.06,4.06,0,0,1-1.62-.28,2.22,2.22,0,0,1-1-.85A2.49,2.49,0,0,1,164.58,421.4Z"/><path class="cls-3" d="M176.68,421.19l.95.24a3.23,3.23,0,0,1-1.07,1.78,3,3,0,0,1-1.89.61,3.37,3.37,0,0,1-1.89-.47,2.94,2.94,0,0,1-1.1-1.36,4.94,4.94,0,0,1-.38-1.92,4.13,4.13,0,0,1,.43-1.95,2.84,2.84,0,0,1,1.21-1.26,3.57,3.57,0,0,1,1.74-.44,3,3,0,0,1,1.81.55,2.92,2.92,0,0,1,1,1.54l-.94.22a2.17,2.17,0,0,0-.72-1.14,1.89,1.89,0,0,0-1.19-.36,2.28,2.28,0,0,0-1.38.4,2.09,2.09,0,0,0-.78,1.06,4.24,4.24,0,0,0-.22,1.38,4.57,4.57,0,0,0,.26,1.59,2.07,2.07,0,0,0,.83,1,2.38,2.38,0,0,0,1.22.33,2,2,0,0,0,1.34-.45A2.35,2.35,0,0,0,176.68,421.19Z"/><path class="cls-3" d="M178.83,423.7v-7.16h.94v2.94h3.72v-2.94h.95v7.16h-.95v-3.37h-3.72v3.37Z"/><path class="cls-3" d="M185.23,423.7l2.75-7.16h1l2.93,7.16h-1.08l-.83-2.17h-3l-.78,2.17Zm2.07-2.94h2.42l-.74-2c-.23-.6-.4-1.1-.51-1.48a8.39,8.39,0,0,1-.39,1.36Z"/><path class="cls-3" d="M192.65,423.7v-7.16h.95v6.32h3.52v.84Z"/><path class="cls-3" d="M198.21,423.7v-7.16h.95v3.55l3.55-3.55H204l-3,2.91,3.14,4.25h-1.25l-2.55-3.62-1.17,1.14v2.48Z"/><path class="cls-3" d="M204.6,421.4l.89-.08a1.91,1.91,0,0,0,.3.89,1.54,1.54,0,0,0,.72.55,2.72,2.72,0,0,0,1.09.22,2.57,2.57,0,0,0,1-.17,1.27,1.27,0,0,0,.62-.44,1,1,0,0,0,.2-.61.93.93,0,0,0-.19-.59,1.41,1.41,0,0,0-.65-.42,11.24,11.24,0,0,0-1.27-.35,6.44,6.44,0,0,1-1.38-.45,2,2,0,0,1-.77-.66,1.64,1.64,0,0,1-.25-.89,1.8,1.8,0,0,1,.31-1,1.86,1.86,0,0,1,.9-.71,3.26,3.26,0,0,1,1.31-.25,3.57,3.57,0,0,1,1.4.26,2,2,0,0,1,.94.75,2.21,2.21,0,0,1,.35,1.13l-.91.07a1.51,1.51,0,0,0-.49-1,2,2,0,0,0-1.25-.34,2,2,0,0,0-1.25.31.94.94,0,0,0-.4.76.85.85,0,0,0,.28.64,4,4,0,0,0,1.43.51,9,9,0,0,1,1.58.45,2.28,2.28,0,0,1,.93.73,1.79,1.79,0,0,1,.29,1,1.94,1.94,0,0,1-.32,1.08,2.08,2.08,0,0,1-.94.78,3.24,3.24,0,0,1-1.38.28,4.11,4.11,0,0,1-1.63-.28,2.27,2.27,0,0,1-1-.85A2.39,2.39,0,0,1,204.6,421.4Z"/><g class="cls-4"><line class="cls-5" x1="108.08" y1="398.81" x2="236.59" y2="398.81"/></g><line class="cls-5" x1="135.2" y1="398.81" x2="135.2" y2="412.32"/><line class="cls-5" x1="135.2" y1="429.29" x2="135.2" y2="509.56"/><line class="cls-5" x1="205.68" y1="398.81" x2="205.68" y2="412.32"/><line class="cls-5" x1="205.68" y1="429.29" x2="205.68" y2="509.56"/></svg>