<svg id="Laag_1" data-name="Laag 1" xmlns="http://www.w3.org/2000/svg" viewBox="0 0 341.55 510.06"><defs><style>.cls-1{fill:#f0f;}.cls-2{fill:#fff;}</style></defs><path class="cls-1" d="M281.61,0H59.94A60,60,0,0,0,0,59.94V450.11a60,60,0,0,0,59.94,59.95H281.61a60,60,0,0,0,59.94-59.95V59.94A60,60,0,0,0,281.61,0Z"/><path d="M156.59,65.5V58.85c0-5,.39-8.33,1.16-9.94s2.36-2.41,4.77-2.41q3.39,0,4.52,2.5t1.14,9.89V65.5q0,6.82-1.22,9.31t-4.6,2.5c-2.28,0-3.82-.8-4.6-2.4S156.59,70.18,156.59,65.5ZM161,59v5.55c0,2.91.48,4.36,1.44,4.36s1.36-1.47,1.36-4.4V58.76l0-1.29,0-.89c-.06-1.26-.5-1.88-1.33-1.88S161,56.12,161,59Z"/><path d="M185.48,47v7.63H184V76.83h-4.57l-5-23.58V68.84h1.71v8h-6v-8h1.49V54.61h-1.49V47h6.61l4.48,20.86V54.61h-1.73V47Z"/><path d="M112.13,119.44c.16,1.67.24,3.1.24,4.28q0,7.07-3.36,7.06c-2.15,0-3.22-2.44-3.22-7.34l0-2,0-2c0-1.79-.86-2.69-2.58-2.69l-.4,0v5.77h1.58v8H97.2v-8h1.49V108.35H97.2v-7.63H104q3.69,0,4.94,1.58t1.25,6.29q0,5.7-3.48,6.54l-.5.11c2,.33,3,1.23,3.12,2.69l.11,2,.09,1.64c0,.83.28,1.25.7,1.25.6,0,.9-1,.9-3v-.48Zm-9.27-5.58h.48c1.87,0,2.8-.86,2.8-2.58,0-2-.9-3-2.71-3-.12,0-.3,0-.57,0Z"/><path d="M125.36,100.72v11.94h-3.45v-4.31H119v5.36h3.65v3.06H119v5.81h2.93v-4.35h3.74v12.34H113.36v-8h1.44V108.35h-1.44v-7.63Z"/><path d="M127.35,100.72H133c3,0,4.92.65,5.79,2s1.31,4.21,1.31,8.7v6.86c0,5.3-.42,8.67-1.25,10.13s-2.79,2.19-5.85,2.19h-5.65v-8h1.47V108.35h-1.47Zm5.65,7.63v14.23l.63,0q1.4,0,1.74-.6a8.32,8.32,0,0,0,.34-3.09v-6a11.72,11.72,0,0,0-.35-3.76c-.24-.48-.83-.72-1.8-.72Z"/><path d="M162.65,122.58v8h-7.24v-8h1.44V108.35h-1.44v-7.63h6c2.56,0,4.28.61,5.14,1.83s1.29,3.66,1.29,7.31q0,4.77-1.15,6.31c-.77,1-2.33,1.54-4.69,1.54H161v4.87ZM161,108.35v6.08h.9c1.23,0,1.85-1,1.85-2.89,0-2.13-.72-3.19-2.16-3.19Z"/><path d="M181.78,100.72v7.63h-1.51v14.26l0,2.29-.19,2.23a4.39,4.39,0,0,1-4.79,3.92q-5.1,0-5.1-6.52V108.35h-1.46v-7.63h6.65v7.63h-1v10.08c0,2.78.43,4.18,1.29,4.18s1.47-1.45,1.47-4.33v-9.93h-1v-7.63Z"/><path d="M198.16,119.44c.16,1.67.24,3.1.24,4.28q0,7.07-3.37,7.06c-2.14,0-3.21-2.44-3.21-7.34l0-2,0-2c0-1.79-.86-2.69-2.58-2.69l-.39,0v5.77h1.57v8h-7.24v-8h1.49V108.35h-1.49v-7.63H190c2.47,0,4.11.53,4.95,1.58s1.24,3.16,1.24,6.29q0,5.7-3.48,6.54l-.5.11c2,.33,3,1.23,3.13,2.69l.11,2,.09,1.64c0,.83.27,1.25.7,1.25.59,0,.89-1,.89-3v-.48Zm-9.27-5.58h.48c1.86,0,2.8-.86,2.8-2.58,0-2-.91-3-2.71-3-.12,0-.31,0-.57,0Z"/><path d="M210,100.72v10.52h-4l-.07-.79c-.08-1.36-.46-2-1.13-2s-1.23.52-1.23,1.56a3.7,3.7,0,0,0,2.12,3.08q3.34,2.1,4.26,3.84t.9,6.09q0,8.07-4.11,8.07-2.21,0-3.54-2.6v2.12h-3.74V119.22h3.74v.43c0,2,.52,3,1.55,3s1.44-.7,1.44-2.08a3.67,3.67,0,0,0-1.64-3.26l-2.18-1.51q-3.29-2.25-3.28-7.41,0-8.13,4-8.14,2,0,3.15,2.61v-2.1Z"/><path d="M224.14,100.72v11.94h-3.46v-4.31h-2.93v5.36h3.65v3.06h-3.65v5.81h2.93v-4.35h3.74v12.34H212.13v-8h1.45V108.35h-1.45v-7.63Z"/><path d="M236.71,100.72v10.52h-4l-.06-.79q-.13-2-1.14-2c-.82,0-1.22.52-1.22,1.56a3.68,3.68,0,0,0,2.12,3.08c2.23,1.4,3.64,2.68,4.25,3.84s.91,3.19.91,6.09q0,8.07-4.11,8.07-2.22,0-3.55-2.6v2.12h-3.74V119.22h3.74v.43c0,2,.52,3,1.56,3s1.44-.7,1.44-2.08a3.7,3.7,0,0,0-1.64-3.26l-2.19-1.51c-2.18-1.5-3.28-4-3.28-7.41q0-8.13,4-8.14,2,0,3.15,2.61v-2.1Z"/><path d="M243.75,124.29v4.48q0,6.64-4.17,7v-2.4a2.74,2.74,0,0,0,1.51-2.82h-1.51v-6.28Z"/><path d="M99.5,154.46v7.63H98.18l-3.34,9v5.27H96.3v8H89.06v-8h1.6v-5.27l-3.67-9H85.85v-7.63H92.5v7.63H91.36l1.6,5.14,1.88-5.14H93.46v-7.63Z"/><path d="M112.7,154.46V166.4h-3.45v-4.31h-2.93v5.36H110v3.06h-3.65v5.82h2.93V172H113v12.34H100.7v-8h1.44V162.09H100.7v-7.63Z"/><path d="M127,170.51v13.8H114.69v-8h1.49V162.09h-1.49v-7.63h7.24v7.63h-1.57v14.24h2.93v-5.82Z"/><path d="M140.76,170.51v13.8H128.43v-8h1.48V162.09h-1.48v-7.63h7.23v7.63h-1.57v14.24H137v-5.82Z"/><path d="M142.29,173v-6.65c0-5,.39-8.33,1.16-9.94s2.36-2.41,4.77-2.41c2.26,0,3.76.83,4.52,2.5s1.14,5,1.14,9.9V173c0,4.55-.41,7.65-1.23,9.32s-2.34,2.49-4.59,2.49-3.82-.8-4.6-2.4S142.29,177.66,142.29,173Zm4.4-6.54V172q0,4.35,1.44,4.35c.9,0,1.35-1.47,1.35-4.4v-5.7l0-1.3,0-.89c-.06-1.26-.5-1.88-1.33-1.88S146.69,163.6,146.69,166.44Z"/><path d="M174.44,154.46v7.63H173l-2.89,22.22h-3.72L165,171.89l-1.55,12.42h-3.79l-3-22.22h-1.44v-7.63h6.34v7.63h-1L162,174l1.47-11.9h-1.05v-7.63h6v7.63h-1l1.37,11.55,1.36-11.55h-1v-7.63Z"/><path d="M199.65,154.46V165h-4l-.07-.79c-.08-1.36-.46-2-1.13-2-.82,0-1.23.51-1.23,1.55a3.7,3.7,0,0,0,2.12,3.08q3.34,2.1,4.26,3.84t.9,6.09q0,8.07-4.11,8.07-2.21,0-3.54-2.6v2.12h-3.74V173h3.74v.44c0,2,.52,2.95,1.55,2.95s1.44-.69,1.44-2.08a3.69,3.69,0,0,0-1.64-3.26L192,169.5q-3.28-2.25-3.28-7.41,0-8.13,4-8.13c1.33,0,2.38.86,3.15,2.6v-2.1Z"/><path d="M201.94,173v-6.65c0-5,.39-8.33,1.16-9.94s2.37-2.41,4.77-2.41,3.77.83,4.53,2.5,1.13,5,1.13,9.9V173c0,4.55-.4,7.65-1.22,9.32s-2.35,2.49-4.59,2.49-3.83-.8-4.61-2.4S201.94,177.66,201.94,173Zm4.4-6.54V172q0,4.35,1.44,4.35c.91,0,1.36-1.47,1.36-4.4v-5.7l0-1.3,0-.89c-.06-1.26-.5-1.88-1.33-1.88S206.34,163.6,206.34,166.44Z"/><path d="M223,156.16v-1.7h3.74V166.4H223v-.55c0-2.45-.49-3.67-1.48-3.67-.69,0-1.11.4-1.26,1.21a55.94,55.94,0,0,0-.23,6.81q0,6.15,1.49,6.15c.92,0,1.38-1.14,1.38-3.41v-2.37H227c.14,1.59.21,3.2.21,4.82q0,9.39-5.68,9.4-3.87,0-4.93-2.69t-1.06-12.44q0-9.45.89-12.57t3.61-3.11A3.13,3.13,0,0,1,223,156.16Z"/><path d="M242.47,154.46v7.63h-1.6l-2.8,4.7,3.63,9.54h1.2v8h-6.47v-8h1.16l-2.25-6-1,2.1v3.85h1v8h-6.65v-8h1.44V162.09h-1.44v-7.63h6.65v7.63h-1v5.51l3.5-5.51h-1.38v-7.63Z"/><path d="M254.86,154.46V165h-4l-.06-.79c-.09-1.36-.47-2-1.14-2-.82,0-1.22.51-1.22,1.55a3.68,3.68,0,0,0,2.12,3.08q3.34,2.1,4.25,3.84t.91,6.09q0,8.07-4.11,8.07c-1.47,0-2.66-.87-3.54-2.6v2.12h-3.74V173h3.74v.44c0,2,.51,2.95,1.55,2.95s1.44-.69,1.44-2.08a3.71,3.71,0,0,0-1.64-3.26l-2.19-1.51c-2.18-1.5-3.28-4-3.28-7.41q0-8.13,4-8.13c1.32,0,2.37.86,3.14,2.6v-2.1Z"/><path d="M179.92,217v4.77h-1.33a29.13,29.13,0,0,1-3,8.57l-.33.64q1.92,4.51,4.61,5.18v1.88h-6.36l-.94-2.56q-2.12,3-4.61,3-6.06,0-6.06-9.36,0-6.75,4-9.21l.44-.26.26-.19-.65-1.8a10.88,10.88,0,0,1-.7-3.72q0-6.27,5.09-6.27,4.77,0,4.77,5.27,0,4.06-4.26,7.19l2.88,7.53a16.67,16.67,0,0,0,2.14-5.93h-1V217ZM171,231.07l-3.13-8.48A5.79,5.79,0,0,0,166,227c0,3.34,1,5,2.91,5A2.72,2.72,0,0,0,171,231.07Zm-1.16-13.31a3.37,3.37,0,0,0,1.62-2.65c0-1-.41-1.42-1.22-1.42s-1.16.46-1.16,1.38A8.13,8.13,0,0,0,169.84,217.76Z"/><path d="M143.48,261.94h5.64q4.2,0,5.53,1.51t1.32,6.34a11,11,0,0,1-.71,4.82,4.07,4.07,0,0,1-3,1.7c1.72.48,2.81,1.12,3.26,1.91s.68,2.49.68,5.09c0,3.41-.44,5.67-1.32,6.8s-2.67,1.68-5.35,1.68h-6.08v-8H145V269.57h-1.47Zm5.64,7.63v5.18h.79c1.15,0,1.73-.87,1.73-2.62s-.61-2.56-1.84-2.56Zm0,8.47v5.77h.68q2.1,0,2.1-3.15c0-1.75-.71-2.62-2.12-2.62Z"/><path d="M158.09,280.46v-6.65c0-5,.38-8.32,1.16-9.93s2.36-2.42,4.76-2.42,3.77.83,4.53,2.5,1.14,5,1.14,9.9v6.6q0,6.82-1.23,9.32t-4.59,2.49q-3.44,0-4.6-2.39T158.09,280.46Zm4.39-6.54v5.56c0,2.9.49,4.35,1.45,4.35s1.35-1.47,1.35-4.39v-5.71l0-1.29,0-.9c-.06-1.25-.51-1.88-1.34-1.88S162.48,271.08,162.48,273.92Z"/><path d="M183.91,278v13.8H171.58v-8h1.49V269.57h-1.49v-7.63h7.24v7.63h-1.57v14.24h2.93V278Z"/><path d="M185.31,261.94H191c3,0,4.92.66,5.79,2s1.31,4.21,1.31,8.7v6.87c0,5.29-.42,8.67-1.25,10.12s-2.79,2.19-5.85,2.19h-5.65v-8h1.47V269.57h-1.47Zm5.65,7.63v14.24l.63,0q1.4,0,1.74-.6a8.43,8.43,0,0,0,.34-3.1v-6a11.8,11.8,0,0,0-.35-3.77c-.24-.48-.83-.72-1.8-.72Z"/><path d="M79.53,315.68h5.64c2.8,0,4.64.51,5.52,1.51S92,320.31,92,323.53c0,2.38-.24,4-.71,4.82a4.09,4.09,0,0,1-3,1.7c1.72.48,2.81,1.12,3.26,1.91s.68,2.49.68,5.09q0,5.11-1.32,6.8t-5.35,1.68H79.53v-8H81V323.31H79.53Zm5.64,7.63v5.19H86c1.15,0,1.73-.88,1.73-2.63s-.62-2.56-1.84-2.56Zm0,8.47v5.77h.68q2.1,0,2.1-3.15c0-1.75-.71-2.62-2.12-2.62Z"/><path d="M106,315.68v11.94h-3.45v-4.31H99.63v5.36h3.65v3.06H99.63v5.82h2.93V333.2h3.74v12.33H94v-8h1.44V323.31H94v-7.63Z"/><path d="M120,315.68v11.94h-3.46v-4.31h-2.93v5.36h3.65v3.06h-3.65v5.82h2.93V333.2h3.74v12.33H108v-8h1.44V323.31H108v-7.63Z"/><path d="M135.88,315.68v7.63h-1.46v14.24h1.46v8h-6.34v-8h.7v-5.82h-2.62v5.82h.72v8H122v-8h1.44V323.31H122v-7.63h6.34v7.63h-.72v5.36h2.62v-5.36h-.7v-7.63Z"/><path d="M144.85,315.68v7.63h-1.58v14.24h1.58v8h-7.24v-8h1.49V323.31h-1.49v-7.63Z"/><path d="M159.37,315.68v7.63H158.3l-2.87,22.22h-5l-3.1-22.22H146v-7.63h6.65v7.63h-1.27l2.36,15.51,1.66-15.51h-1.66v-7.63Z"/><path d="M172.58,315.68v11.94h-3.46v-4.31h-2.93v5.36h3.65v3.06h-3.65v5.82h2.93V333.2h3.74v12.33H160.57v-8H162V323.31h-1.44v-7.63Z"/><path d="M200.72,315.68v7.63h-1.51v14.26l0,2.3L199,342.1a4.38,4.38,0,0,1-4.79,3.91q-5.1,0-5.1-6.51V323.31h-1.46v-7.63h6.64v7.63h-1v10.08c0,2.79.43,4.18,1.29,4.18s1.46-1.44,1.46-4.33v-9.93h-1v-7.63Z"/><path d="M209.4,337.55v8h-7.24v-8h1.45V323.31h-1.45v-7.63h6q3.85,0,5.14,1.84c.86,1.22,1.29,3.66,1.29,7.3q0,4.77-1.15,6.31c-.76,1-2.33,1.54-4.69,1.54h-.94v4.88Zm-1.62-14.24v6.08h.9q1.86,0,1.86-2.88c0-2.13-.72-3.2-2.17-3.2Z"/><path d="M215.81,315.68h5.64q4.49,0,5.79,2t1.32,8.7v6.87c0,5.29-.42,8.67-1.26,10.12s-2.79,2.19-5.85,2.19h-5.64v-8h1.46V323.31h-1.46Zm5.64,7.63v14.24l.63,0q1.41,0,1.74-.6a8.17,8.17,0,0,0,.34-3.1v-6a11.67,11.67,0,0,0-.35-3.76c-.23-.49-.83-.73-1.79-.73Z"/><path d="M230.57,334.2v-6.64c0-5,.38-8.33,1.16-9.94s2.36-2.42,4.76-2.42,3.77.84,4.53,2.5,1.14,5,1.14,9.9v6.6q0,6.82-1.23,9.32T236.34,346q-3.43,0-4.6-2.39T230.57,334.2Zm4.39-6.53v5.55c0,2.9.48,4.35,1.45,4.35s1.35-1.46,1.35-4.39v-5.71l0-1.29,0-.9c-.06-1.25-.51-1.88-1.34-1.88S235,324.82,235,327.67Z"/><path d="M248.59,315.68v4q0,6-3.74,6.28v-2.17c.89-.36,1.33-1.21,1.33-2.54h-1.33v-5.53Z"/><path d="M261.73,315.68V326.2h-4l-.07-.79c-.08-1.35-.46-2-1.13-2-.82,0-1.23.52-1.23,1.55a3.73,3.73,0,0,0,2.12,3.09q3.35,2.09,4.26,3.83t.9,6.09q0,8.07-4.11,8.07-2.21,0-3.54-2.6v2.12h-3.74V334.18H255v.44c0,2,.52,2.95,1.55,2.95s1.45-.69,1.45-2.08a3.69,3.69,0,0,0-1.64-3.25l-2.19-1.51c-2.19-1.5-3.28-4-3.28-7.42q0-8.13,4-8.13c1.33,0,2.38.87,3.15,2.6v-2.1Z"/><rect x="68.8" y="501.36" width="8.74" height="8.7"/><rect class="cls-2" x="60.06" y="501.36" width="8.74" height="8.7"/><rect x="86.28" y="501.36" width="8.74" height="8.7"/><rect class="cls-2" x="77.54" y="501.36" width="8.74" height="8.7"/><rect x="103.79" y="501.36" width="8.74" height="8.7"/><rect class="cls-2" x="95.05" y="501.36" width="8.74" height="8.7"/><rect x="121.26" y="501.36" width="8.74" height="8.7"/><rect class="cls-2" x="112.52" y="501.36" width="8.74" height="8.7"/><rect x="138.74" y="501.36" width="8.74" height="8.7"/><rect class="cls-2" x="130" y="501.36" width="8.74" height="8.7"/><rect x="156.21" y="501.36" width="8.74" height="8.7"/><rect class="cls-2" x="147.48" y="501.36" width="8.74" height="8.7"/><rect x="173.72" y="501.36" width="8.74" height="8.7"/><rect class="cls-2" x="164.99" y="501.36" width="8.74" height="8.7"/><rect x="191.2" y="501.36" width="8.74" height="8.7"/><rect class="cls-2" x="182.46" y="501.36" width="8.74" height="8.7"/><rect x="208.68" y="501.36" width="8.74" height="8.7"/><rect class="cls-2" x="199.94" y="501.36" width="8.74" height="8.7"/><rect x="226.15" y="501.36" width="8.74" height="8.7"/><rect class="cls-2" x="217.41" y="501.36" width="8.74" height="8.7"/><rect x="243.66" y="501.36" width="8.74" height="8.7"/><rect class="cls-2" x="234.92" y="501.36" width="8.74" height="8.7"/><rect x="261.14" y="501.36" width="8.74" height="8.7"/><rect class="cls-2" x="252.4" y="501.36" width="8.74" height="8.7"/><rect x="278.61" y="501.36" width="8.74" height="8.7"/><rect class="cls-2" x="269.88" y="501.36" width="8.74" height="8.7"/></svg>