<svg id="Laag_1" data-name="Laag 1" xmlns="http://www.w3.org/2000/svg" viewBox="0 0 341.55 510.06"><defs><style>.cls-1{fill:lime;}.cls-2{fill:#1d1d1b;}.cls-3{fill:#f0f;}.cls-4{fill:red;}</style></defs><path class="cls-1" d="M281.61,0H59.94A60,60,0,0,0,0,59.94V450.11a60,60,0,0,0,59.94,59.95H281.61a60,60,0,0,0,59.94-59.95V59.94A60,60,0,0,0,281.61,0Zm16.18,189.54-18.33,46.79,9.87,31.18-5.94,22.81,10.87,149.87-10,9.87H164.57l-24-7.05-23.26,3.52-9.16-6.34-29.6,6.34L42.88,435.25l4-76.8-4-22L50.39,314l-7.51-16.21,5.4-69.07q.34-52.16.7-104.31l-15.5-23.26L61,71.56,45.46,34.91l68.37-11.27,38.76,8.45L197,22.64h41.58L263.25,46.9l30.31,8.65-7.07,49.56,11.3,24.25Z"/><path class="cls-2" d="M22.43,371.73l11.64,5L34,378.39l-12,4.39.06-1.78,3.63-1.24.18-4.94-3.52-1.43Zm4.72,3.59-.15,4,3.32-1.11c1-.34,1.83-.59,2.48-.75a15.23,15.23,0,0,1-2.23-.72Z"/><path class="cls-2" d="M22.61,401.29a9.21,9.21,0,0,0-1.17,2l-1.07-.5a9.06,9.06,0,0,1,1.54-2.49,5.79,5.79,0,0,1-.63-2.92,5.58,5.58,0,0,1,.88-2.88,5.17,5.17,0,0,1,2.25-1.93A6.92,6.92,0,0,1,27.6,392a7.15,7.15,0,0,1,3.15.82,5,5,0,0,1,2.11,2.1,5.77,5.77,0,0,1,.64,3,5.69,5.69,0,0,1-.88,2.92,5.2,5.2,0,0,1-2.25,1.92,7,7,0,0,1-3.18.57,7.14,7.14,0,0,1-2.61-.54A5.41,5.41,0,0,1,22.61,401.29Zm2.12-3.36a5.91,5.91,0,0,1-1.21,2.19,4.89,4.89,0,0,0,3.73,1.51,6.08,6.08,0,0,0,2.52-.39,3.78,3.78,0,0,0,1.72-1.37,3.92,3.92,0,0,0,.67-2.08,3.88,3.88,0,0,0-1.09-3,5,5,0,0,0-3.53-1.28,5,5,0,0,0-3.58,1,3.77,3.77,0,0,0-1.34,2.87,4.08,4.08,0,0,0,.25,1.59,5.15,5.15,0,0,0,.74-1.53Z"/><path class="cls-2" d="M32.72,413.31l-.06,1.56-6.82-.25a8.3,8.3,0,0,1-2.81-.51,3.41,3.41,0,0,1-1.65-1.52,5.16,5.16,0,0,1-.56-2.78,5.61,5.61,0,0,1,.68-2.69,3.25,3.25,0,0,1,1.71-1.45,7.86,7.86,0,0,1,3-.34l6.83.25L33,407.14l-6.82-.25a6.58,6.58,0,0,0-2.27.21,2.11,2.11,0,0,0-1.16.94,3.23,3.23,0,0,0-.46,1.69,3.28,3.28,0,0,0,.69,2.48,4.5,4.5,0,0,0,3,.85Z"/><path class="cls-2" d="M20.76,417.08l11.81.43-.32,8.54L30.86,426l.25-7-3.61-.13-.24,6.53-1.39-.05.24-6.53-4-.15-.26,7.25-1.4-.05Z"/><path class="cls-2" d="M20.35,428.1l11.81.43-.31,8.54-1.4-.05.26-7-3.62-.13-.24,6.53-1.38-.05.24-6.53-4-.15L21.42,437l-1.39,0Z"/><path class="cls-2" d="M20,439.1l11.81.44-.2,5.23a6.82,6.82,0,0,1-.4,2.39A2.62,2.62,0,0,1,30,448.43a3.38,3.38,0,0,1-1.8.43A3,3,0,0,1,26.1,448a4.1,4.1,0,0,1-1-2.56,4,4,0,0,1-.63.92,7.35,7.35,0,0,1-1.62,1.24l-3.29,1.94.08-2,2.51-1.47A19.64,19.64,0,0,0,23.82,445a3.44,3.44,0,0,0,.82-.76,2.38,2.38,0,0,0,.34-.7,5.8,5.8,0,0,0,.09-.87l.06-1.81-5.24-.19Zm6.54,1.81-.13,3.36a5.29,5.29,0,0,0,.16,1.68,1.79,1.79,0,0,0,.68.94,1.92,1.92,0,0,0,1.05.36,1.79,1.79,0,0,0,1.4-.56,2.92,2.92,0,0,0,.61-1.9l.13-3.74Z"/><path class="cls-2" d="M32.37,465.94l-1.2-11.76,4.43-.45a11,11,0,0,1,1.8-.07,3.47,3.47,0,0,1,1.51.4,2.85,2.85,0,0,1,1.06,1,3.7,3.7,0,0,1,.52,1.56,3.64,3.64,0,0,1-.7,2.64c-.56.76-1.68,1.22-3.34,1.39l-3,.31.49,4.78Zm.93-6.33,3-.31a3.23,3.23,0,0,0,2.09-.78,2,2,0,0,0,.47-1.64,2.17,2.17,0,0,0-.5-1.23,1.79,1.79,0,0,0-1.06-.59,6.91,6.91,0,0,0-1.46,0l-3,.31Z"/><path class="cls-2" d="M42.94,465l.65-11.8,8.53.48-.07,1.39-7-.39-.2,3.62,6.52.36L51.33,460l-6.53-.36-.22,4,7.24.4-.08,1.39Z"/><path class="cls-2" d="M53.4,465.72l2.83-11.47,5.09,1.25a7.22,7.22,0,0,1,2.26.89,2.65,2.65,0,0,1,1,1.41,3.29,3.29,0,0,1,0,1.84,3,3,0,0,1-1.3,1.87,4.09,4.09,0,0,1-2.7.46,4,4,0,0,1,.77.8,8.21,8.21,0,0,1,.89,1.83l1.22,3.62-1.91-.47L60.67,465c-.27-.79-.51-1.41-.7-1.85a3.4,3.4,0,0,0-.59-.95,2.08,2.08,0,0,0-.61-.48,4.35,4.35,0,0,0-.83-.26L56.18,461l-1.26,5.1Zm3.1-6,3.26.8a5,5,0,0,0,1.68.19,1.81,1.81,0,0,0,1.07-.47,2,2,0,0,0,.56-.95,1.82,1.82,0,0,0-.26-1.49,2.9,2.9,0,0,0-1.74-1l-3.63-.9Z"/><path class="cls-2" d="M65.38,465.1l1.42.41a3.36,3.36,0,0,0-.06,1.53,2.74,2.74,0,0,0,.79,1.28,4.35,4.35,0,0,0,1.57,1,4.23,4.23,0,0,0,1.57.32,2.24,2.24,0,0,0,1.21-.32,1.7,1.7,0,0,0,.67-.83,1.56,1.56,0,0,0,0-1,2.39,2.39,0,0,0-.75-1,20.08,20.08,0,0,0-1.76-1.29,10.7,10.7,0,0,1-1.87-1.5,3.21,3.21,0,0,1-.79-1.48,2.66,2.66,0,0,1,.14-1.52,2.93,2.93,0,0,1,1.06-1.38,3.15,3.15,0,0,1,1.81-.58,5.5,5.5,0,0,1,2.17.4,5.83,5.83,0,0,1,2,1.22,3.35,3.35,0,0,1,1,1.71,3.62,3.62,0,0,1-.12,1.95l-1.44-.43a2.43,2.43,0,0,0-.17-1.88,3.17,3.17,0,0,0-1.72-1.26,3.29,3.29,0,0,0-2.12-.25,1.58,1.58,0,0,0-1,.94,1.34,1.34,0,0,0,.06,1.14,6.1,6.1,0,0,0,1.9,1.63,15.64,15.64,0,0,1,2.18,1.63,3.66,3.66,0,0,1,1,1.67,3,3,0,0,1-.14,1.75,3.31,3.31,0,0,1-1.14,1.47A3.56,3.56,0,0,1,71,471a5.36,5.36,0,0,1-2.29-.38,6.74,6.74,0,0,1-2.35-1.39,3.73,3.73,0,0,1-1.09-1.92A4,4,0,0,1,65.38,465.1Z"/><path class="cls-2" d="M77.4,473.51l.06-11.81,4.46,0a10,10,0,0,1,1.79.12,3.63,3.63,0,0,1,1.46.56,3,3,0,0,1,.94,1.15,3.85,3.85,0,0,1-.62,4.16c-.64.69-1.8,1-3.47,1H79l0,4.8ZM79,467.32l3.06,0a3.27,3.27,0,0,0,2.15-.55,2,2,0,0,0,.65-1.59,2.14,2.14,0,0,0-.37-1.27,1.76,1.76,0,0,0-1-.7,6.63,6.63,0,0,0-1.46-.11l-3,0Z"/><path class="cls-2" d="M90.66,471.92l-3.76-11.2L95,458l.44,1.32-6.61,2.23L90,465l6.19-2.08.45,1.31-6.2,2.08,1.28,3.82,6.88-2.32.44,1.33Z"/><path class="cls-2" d="M108.88,465.73l1.49.61a5.3,5.3,0,0,1-2.16,2.66,5,5,0,0,1-3.24.56,5.61,5.61,0,0,1-3-1.21,4.82,4.82,0,0,1-1.48-2.49,8.06,8.06,0,0,1-.18-3.22,7.09,7.09,0,0,1,1.15-3.09,4.87,4.87,0,0,1,2.29-1.78,5.89,5.89,0,0,1,2.93-.31,4.87,4.87,0,0,1,2.83,1.32,4.69,4.69,0,0,1,1.31,2.75l-1.57.14a3.73,3.73,0,0,0-.92-2,3.17,3.17,0,0,0-1.87-.86,3.81,3.81,0,0,0-2.34.33,3.41,3.41,0,0,0-1.52,1.55,7.57,7.57,0,0,0-.62,4.87,3.22,3.22,0,0,0,1.11,1.85,3.88,3.88,0,0,0,1.91.84,3.4,3.4,0,0,0,2.31-.44A3.91,3.91,0,0,0,108.88,465.73Z"/><path class="cls-2" d="M114.62,472.76l2.4-10.14-3.79-.9.33-1.35,9.11,2.16-.32,1.35-3.81-.9-2.4,10.14Z"/><path class="cls-2" d="M125.49,472.48l-3.3-11.34,1.5-.44L127,472Z"/><path class="cls-2" d="M132.54,470.44l-6.17-11.07,1.67-.24,4.23,8.08c.34.65.64,1.26.89,1.83.09-.66.21-1.33.36-2l2-9,1.58-.22-2.94,12.35Z"/><path class="cls-2" d="M139.26,469.89l2.36-11.58L150,460l-.28,1.37-6.84-1.4-.73,3.54,6.41,1.31-.28,1.36-6.4-1.31-.81,3.94,7.11,1.46-.28,1.36Z"/><path class="cls-2" d="M156,469.27a4.41,4.41,0,0,1,1.28-3.54,4,4,0,0,1,2.68-1,3.88,3.88,0,0,1,2.9,1.12A4.43,4.43,0,0,1,164,469a5.76,5.76,0,0,1-.46,2.61,3.54,3.54,0,0,1-1.43,1.49,4.15,4.15,0,0,1-2.06.55,3.87,3.87,0,0,1-2.92-1.12A4.58,4.58,0,0,1,156,469.27Zm1.49,0a3.71,3.71,0,0,0,.75,2.45,2.31,2.31,0,0,0,1.82.8,2.26,2.26,0,0,0,1.78-.85,3.74,3.74,0,0,0,.69-2.51,3.57,3.57,0,0,0-.75-2.4,2.39,2.39,0,0,0-3.6,0A3.66,3.66,0,0,0,157.45,469.25Z"/><path class="cls-2" d="M165.74,473.42l-.11-8.56h1.31v1.21a3.09,3.09,0,0,1,2.71-1.44,3.53,3.53,0,0,1,1.43.26,2.26,2.26,0,0,1,1,.72,2.84,2.84,0,0,1,.46,1.06,8.16,8.16,0,0,1,.1,1.41l.07,5.26-1.45,0-.07-5.2a3.87,3.87,0,0,0-.19-1.33,1.36,1.36,0,0,0-.61-.69,1.85,1.85,0,0,0-1-.25,2.34,2.34,0,0,0-1.59.61,2.89,2.89,0,0,0-.65,2.24l.06,4.68Z"/><path class="cls-2" d="M182.65,471.91l.23,1.28a5.16,5.16,0,0,1-1.09.14,2.47,2.47,0,0,1-1.23-.23,1.34,1.34,0,0,1-.62-.65,4.93,4.93,0,0,1-.2-1.71l-.07-4.93-1.06,0V464.7h1.06l0-2.12,1.43-.89,0,3,1.46,0,0,1.13-1.46,0,.06,5a2.47,2.47,0,0,0,.09.8.57.57,0,0,0,.25.28,1,1,0,0,0,.5.1C182.18,472,182.39,472,182.65,471.91Z"/><path class="cls-2" d="M184.1,473.19l-.16-11.82,1.46,0,0,4.24a3.28,3.28,0,0,1,2.55-1.21,3.53,3.53,0,0,1,1.66.36,2.17,2.17,0,0,1,1,1,4.72,4.72,0,0,1,.33,1.91l.07,5.43-1.45,0-.07-5.43a2.26,2.26,0,0,0-.49-1.57,1.74,1.74,0,0,0-1.34-.48,2.27,2.27,0,0,0-1.21.35,1.85,1.85,0,0,0-.8.91,4.13,4.13,0,0,0-.22,1.59l.06,4.68Z"/><path class="cls-2" d="M199.11,470.24l1.5.17a3.71,3.71,0,0,1-1.29,2,4,4,0,0,1-2.44.76,3.94,3.94,0,0,1-3-1.12,4.46,4.46,0,0,1-1.14-3.23,4.7,4.7,0,0,1,1.07-3.37,3.78,3.78,0,0,1,2.87-1.23,3.72,3.72,0,0,1,2.82,1.13,4.72,4.72,0,0,1,1.13,3.28c0,.09,0,.21,0,.39l-6.38.08a3.29,3.29,0,0,0,.82,2.15,2.4,2.4,0,0,0,1.8.72,2.19,2.19,0,0,0,1.36-.43A2.92,2.92,0,0,0,199.11,470.24Zm-4.8-2.29,4.78-.06a2.91,2.91,0,0,0-.56-1.61,2.41,2.41,0,0,0-3.49-.12A2.68,2.68,0,0,0,194.31,468Z"/><path class="cls-2" d="M212.89,470.06l1.5.17a3.74,3.74,0,0,1-1.29,2.06,3.94,3.94,0,0,1-2.44.75,3.86,3.86,0,0,1-3-1.12,4.5,4.5,0,0,1-1.15-3.23,4.75,4.75,0,0,1,1.07-3.36,3.73,3.73,0,0,1,2.87-1.23,3.62,3.62,0,0,1,2.82,1.13,4.63,4.63,0,0,1,1.13,3.27v.39L208,469a3.27,3.27,0,0,0,.82,2.15,2.37,2.37,0,0,0,1.8.73,2.21,2.21,0,0,0,1.36-.44A2.82,2.82,0,0,0,212.89,470.06Zm-4.8-2.28,4.78-.06a2.87,2.87,0,0,0-.57-1.62,2.23,2.23,0,0,0-1.81-.81,2.33,2.33,0,0,0-1.67.69A2.64,2.64,0,0,0,208.09,467.78Z"/><path class="cls-2" d="M216.24,472.78l-.11-8.56,1.3,0v1.2a3.14,3.14,0,0,1,1.06-1A3.08,3.08,0,0,1,220,464a2.9,2.9,0,0,1,1.57.38,2.14,2.14,0,0,1,.87,1.09,3.05,3.05,0,0,1,2.62-1.53,2.63,2.63,0,0,1,2,.68,3,3,0,0,1,.71,2.16l.08,5.88-1.44,0-.07-5.4a4,4,0,0,0-.16-1.25,1.27,1.27,0,0,0-.52-.61,1.66,1.66,0,0,0-.87-.22,2.07,2.07,0,0,0-1.5.62,2.67,2.67,0,0,0-.57,1.93l.07,5-1.45,0-.08-5.56a2.42,2.42,0,0,0-.37-1.45,1.36,1.36,0,0,0-1.17-.46,2,2,0,0,0-1.12.33,1.86,1.86,0,0,0-.75,1,5.29,5.29,0,0,0-.21,1.79l.06,4.44Z"/><path class="cls-2" d="M235.81,469.77l1.5.17A3.61,3.61,0,0,1,236,472a4.44,4.44,0,0,1-5.43-.36,4.54,4.54,0,0,1-1.14-3.23,4.75,4.75,0,0,1,1.07-3.37,3.8,3.8,0,0,1,2.87-1.23,3.72,3.72,0,0,1,2.82,1.13,4.72,4.72,0,0,1,1.13,3.28v.39l-6.39.08a3.3,3.3,0,0,0,.83,2.15,2.37,2.37,0,0,0,1.8.72,2.18,2.18,0,0,0,1.35-.43A2.77,2.77,0,0,0,235.81,469.77ZM231,467.48l4.78-.06a3,3,0,0,0-.57-1.61,2.4,2.4,0,0,0-3.48-.12A2.63,2.63,0,0,0,231,467.48Z"/><path class="cls-2" d="M239.15,472.48l-.11-8.56h1.31v1.29a3.63,3.63,0,0,1,.91-1.21,1.56,1.56,0,0,1,.93-.3,2.71,2.71,0,0,1,1.49.45l-.48,1.35a2.17,2.17,0,0,0-1.07-.3,1.34,1.34,0,0,0-.85.3,1.57,1.57,0,0,0-.53.8,6.06,6.06,0,0,0-.22,1.69l.06,4.49Z"/><path class="cls-2" d="M244.4,473.13l1.42.19a1.32,1.32,0,0,0,.5.94,2.43,2.43,0,0,0,1.48.39,2.55,2.55,0,0,0,1.55-.43,2,2,0,0,0,.73-1.14,9.11,9.11,0,0,0,.08-1.86,3,3,0,0,1-2.36,1.15,3.24,3.24,0,0,1-2.75-1.24,4.89,4.89,0,0,1-1-3,5.84,5.84,0,0,1,.41-2.27,3.54,3.54,0,0,1,1.27-1.61,3.47,3.47,0,0,1,2-.59,3.05,3.05,0,0,1,2.51,1.19v-1l1.34,0,.09,7.4a6.89,6.89,0,0,1-.37,2.84,3,3,0,0,1-1.27,1.34,4.58,4.58,0,0,1-2.17.51,4.13,4.13,0,0,1-2.48-.66A2.34,2.34,0,0,1,244.4,473.13Zm1.14-5.16a3.71,3.71,0,0,0,.7,2.45,2.11,2.11,0,0,0,1.69.75,2.13,2.13,0,0,0,1.66-.79,3.59,3.59,0,0,0,.65-2.42,3.54,3.54,0,0,0-.73-2.36,2.13,2.13,0,0,0-1.69-.78,2.08,2.08,0,0,0-1.63.81A3.42,3.42,0,0,0,245.54,468Z"/><path class="cls-2" d="M259.67,469.46l1.5.17a3.63,3.63,0,0,1-1.29,2.06,3.92,3.92,0,0,1-2.44.75,3.86,3.86,0,0,1-3-1.12,4.53,4.53,0,0,1-1.14-3.23,4.7,4.7,0,0,1,1.07-3.36,3.73,3.73,0,0,1,2.87-1.23,3.65,3.65,0,0,1,2.82,1.13,4.67,4.67,0,0,1,1.13,3.27v.39l-6.39.08a3.28,3.28,0,0,0,.83,2.15,2.34,2.34,0,0,0,1.8.73,2.18,2.18,0,0,0,1.35-.44A2.68,2.68,0,0,0,259.67,469.46Zm-4.79-2.28,4.78-.06a3,3,0,0,0-.57-1.61,2.21,2.21,0,0,0-1.81-.82,2.31,2.31,0,0,0-1.67.69A2.64,2.64,0,0,0,254.88,467.18Z"/><path class="cls-2" d="M263,472.18l-.11-8.56,1.31,0,0,1.22a3.07,3.07,0,0,1,2.7-1.45,3.71,3.71,0,0,1,1.43.26,2.26,2.26,0,0,1,1,.72,2.74,2.74,0,0,1,.46,1.07,8,8,0,0,1,.1,1.41l.07,5.26-1.45,0-.07-5.21a4.16,4.16,0,0,0-.18-1.32,1.43,1.43,0,0,0-.61-.7,2,2,0,0,0-1-.25,2.34,2.34,0,0,0-1.59.61,2.94,2.94,0,0,0-.65,2.24l.06,4.68Z"/><path class="cls-2" d="M277.76,468.85l1.43.17a3.63,3.63,0,0,1-1.17,2.32,3.44,3.44,0,0,1-2.35.87,3.71,3.71,0,0,1-2.84-1.11,4.68,4.68,0,0,1-1.11-3.28,5.9,5.9,0,0,1,.43-2.43,3.11,3.11,0,0,1,1.38-1.58,4.09,4.09,0,0,1,2-.55,3.58,3.58,0,0,1,2.29.68,3.16,3.16,0,0,1,1.16,2l-1.4.23a2.46,2.46,0,0,0-.73-1.29,1.93,1.93,0,0,0-1.25-.42,2.25,2.25,0,0,0-1.77.81,3.72,3.72,0,0,0-.65,2.5,3.83,3.83,0,0,0,.69,2.5,2.18,2.18,0,0,0,1.74.76,2,2,0,0,0,1.42-.55A2.6,2.6,0,0,0,277.76,468.85Z"/><path class="cls-2" d="M286.3,469.12l1.5.17a3.74,3.74,0,0,1-1.29,2.06,3.94,3.94,0,0,1-2.44.75,3.86,3.86,0,0,1-3-1.12,4.49,4.49,0,0,1-1.15-3.23,4.75,4.75,0,0,1,1.07-3.36,3.75,3.75,0,0,1,2.87-1.23,3.62,3.62,0,0,1,2.82,1.13,4.58,4.58,0,0,1,1.13,3.27V468l-6.38.08a3.27,3.27,0,0,0,.82,2.15,2.37,2.37,0,0,0,1.8.73,2.21,2.21,0,0,0,1.36-.44A2.82,2.82,0,0,0,286.3,469.12Zm-4.8-2.28,4.78-.06a2.87,2.87,0,0,0-.57-1.62,2.22,2.22,0,0,0-1.8-.81,2.33,2.33,0,0,0-1.68.69A2.64,2.64,0,0,0,281.5,466.84Z"/><path class="cls-2" d="M293.66,467.5a4.4,4.4,0,0,1,1.27-3.53,4,4,0,0,1,2.68-1,3.81,3.81,0,0,1,2.9,1.12,4.35,4.35,0,0,1,1.16,3.18,5.53,5.53,0,0,1-.46,2.61,3.52,3.52,0,0,1-1.42,1.49,4.28,4.28,0,0,1-2.06.55,3.87,3.87,0,0,1-2.92-1.12A4.61,4.61,0,0,1,293.66,467.5Zm1.49,0a3.6,3.6,0,0,0,.75,2.45,2.4,2.4,0,0,0,3.6-.05,3.72,3.72,0,0,0,.68-2.52,3.47,3.47,0,0,0-.75-2.39,2.28,2.28,0,0,0-1.8-.8,2.32,2.32,0,0,0-1.8.84A3.61,3.61,0,0,0,295.15,467.49Z"/><path class="cls-2" d="M303.79,471.66l-.1-7.44-1.28,0,0-1.13h1.29l0-.91a4.17,4.17,0,0,1,.14-1.29,1.87,1.87,0,0,1,.73-.92,2.65,2.65,0,0,1,1.47-.37,6.84,6.84,0,0,1,1.36.13l-.2,1.26a5.33,5.33,0,0,0-.86-.07,1.29,1.29,0,0,0-.93.3,1.51,1.51,0,0,0-.26,1.06v.79l1.67,0v1.13l-1.67,0,.1,7.43Z"/><path class="cls-2" d="M320.33,454.57l.74-1.44a5.25,5.25,0,0,1,2.47,2.38,4.88,4.88,0,0,1,.29,3.27,5.59,5.59,0,0,1-1.45,2.85,4.82,4.82,0,0,1-2.6,1.28,7.85,7.85,0,0,1-3.23-.1,6.94,6.94,0,0,1-3-1.4A4.82,4.82,0,0,1,312,459a5.88,5.88,0,0,1-.06-2.95,4.87,4.87,0,0,1,1.54-2.71,4.74,4.74,0,0,1,2.85-1.08l0,1.58a3.7,3.7,0,0,0-2.1.75,3.14,3.14,0,0,0-1,1.79,3.81,3.81,0,0,0,.13,2.36,3.5,3.5,0,0,0,1.42,1.65,7.06,7.06,0,0,0,2.13.86,7.3,7.3,0,0,0,2.67.16,3.29,3.29,0,0,0,1.94-1,3.81,3.81,0,0,0,1-1.84,3.36,3.36,0,0,0-.25-2.33A3.78,3.78,0,0,0,320.33,454.57Z"/><path class="cls-2" d="M324.63,451.6l-11.88-4.38,0-1.69,11.75-5,0,1.78-3.56,1.43.07,4.94,3.6,1.25Zm-4.9-3.35-.05-4-3.26,1.27c-1,.39-1.8.68-2.44.88a14.35,14.35,0,0,1,2.27.6Z"/><path class="cls-2" d="M324.45,439.39l-11.81.41-.08-2.36,8.26-3.08,1.73-.62-1.91-.56-8.31-2.55-.08-2.1,11.81-.41.06,1.51-9.89.34,10,3.09,0,1.41-9.94,3.76,10.06-.34Z"/><path class="cls-2" d="M323.94,425.65l-11.8.58-.22-4.45a10,10,0,0,1,0-1.8,3.45,3.45,0,0,1,.47-1.48,3,3,0,0,1,1.1-1,3.49,3.49,0,0,1,1.59-.43,3.59,3.59,0,0,1,2.59.83c.73.6,1.14,1.74,1.22,3.41l.15,3,4.8-.23Zm-6.26-1.26-.15-3.05a3.28,3.28,0,0,0-.68-2.12,2,2,0,0,0-1.61-.56,2.14,2.14,0,0,0-1.25.44,1.76,1.76,0,0,0-.65,1,6.24,6.24,0,0,0,0,1.46l.15,3Z"/><path class="cls-2" d="M323.27,412.61l-12.08-3.78-.11-1.68,11.49-5.58.11,1.78L319.2,405l.31,4.93,3.65,1.07Zm-5.06-3.1-.25-4L314.77,407c-1,.44-1.77.77-2.39,1a15.64,15.64,0,0,1,2.29.5Z"/><path class="cls-2" d="M322.47,400.32l-11.78.86-.62-8.52,1.39-.1.51,7,3.61-.26-.48-6.52,1.38-.1.48,6.52,4-.3-.53-7.23,1.39-.1Z"/><path class="cls-2" d="M317.93,390.23l-.25-1.46a3.21,3.21,0,0,0,1.41-.61,2.61,2.61,0,0,0,.82-1.25,4.6,4.6,0,0,0,.21-1.84,4.25,4.25,0,0,0-.4-1.55,2.22,2.22,0,0,0-.8-1,1.7,1.7,0,0,0-1-.25,1.52,1.52,0,0,0-.94.4,2.33,2.33,0,0,0-.61,1.11c-.1.33-.23,1-.41,2.15a10.33,10.33,0,0,1-.55,2.33,3.24,3.24,0,0,1-1,1.34,2.73,2.73,0,0,1-1.44.54,3.08,3.08,0,0,1-3-1.76,5.78,5.78,0,0,1-.58-2.13,5.87,5.87,0,0,1,.24-2.34,3.33,3.33,0,0,1,1.12-1.64,3.55,3.55,0,0,1,1.81-.73l.23,1.49a2.38,2.38,0,0,0-1.62.95,3.15,3.15,0,0,0-.41,2.1,3.36,3.36,0,0,0,.69,2,1.56,1.56,0,0,0,1.3.54,1.3,1.3,0,0,0,1-.54,6.26,6.26,0,0,0,.66-2.42,14.9,14.9,0,0,1,.54-2.67,3.64,3.64,0,0,1,1.07-1.61,3,3,0,0,1,1.64-.63,3.28,3.28,0,0,1,1.82.4,3.5,3.5,0,0,1,1.41,1.44,5.33,5.33,0,0,1,.65,2.23,7,7,0,0,1-.25,2.72,3.75,3.75,0,0,1-1.27,1.81A4,4,0,0,1,317.93,390.23Z"/><path class="cls-2" d="M320.51,375.43l-10.38.91.34,3.88-1.39.12-.81-9.33,1.39-.12.33,3.89,10.39-.9Z"/><path class="cls-2" d="M319.89,368.36l-11.77,1.1-.14-1.55,4.83-.46-.58-6.11-4.83.45-.14-1.55L319,359.13l.15,1.56-5.55.52.58,6.11,5.54-.52Z"/><path class="cls-2" d="M318.76,356.52,307,357.71l-.86-8.5,1.39-.14.7,6.94,3.6-.36-.66-6.51,1.38-.13.66,6.5,4-.41-.73-7.21,1.39-.14Z"/><path class="cls-2" d="M317.33,342.61,307,343.74l.43,3.87-1.39.15-1-9.31,1.38-.15.43,3.89,10.36-1.13Z"/><path class="cls-2" d="M316.53,335.37l-11.76,1.22-.16-1.56,11.75-1.22Z"/><path class="cls-2" d="M311.29,323.05l.27-1.59a5.24,5.24,0,0,1,3.06,1.54,4.88,4.88,0,0,1,1.26,3,5.66,5.66,0,0,1-.54,3.16,4.77,4.77,0,0,1-2.1,2,8.15,8.15,0,0,1-3.11.87,6.89,6.89,0,0,1-3.27-.45,4.89,4.89,0,0,1-2.24-1.84,5.86,5.86,0,0,1-.93-2.8,4.86,4.86,0,0,1,.67-3,4.7,4.7,0,0,1,2.4-1.87l.48,1.5a3.64,3.64,0,0,0-1.78,1.34,3.2,3.2,0,0,0-.43,2,3.79,3.79,0,0,0,.83,2.22,3.44,3.44,0,0,0,1.84,1.14,7.06,7.06,0,0,0,2.29.19,7,7,0,0,0,2.59-.64,3.26,3.26,0,0,0,1.57-1.49,3.84,3.84,0,0,0,.4-2.05,3.35,3.35,0,0,0-.93-2.15A3.87,3.87,0,0,0,311.29,323.05Z"/><path class="cls-2" d="M311.43,320l-.19-1.47a3.27,3.27,0,0,0,1.43-.55,2.63,2.63,0,0,0,.87-1.23,4.49,4.49,0,0,0,.27-1.83,4.16,4.16,0,0,0-.33-1.56,2.2,2.2,0,0,0-.77-1,1.67,1.67,0,0,0-1-.29,1.51,1.51,0,0,0-.95.36,2.31,2.31,0,0,0-.65,1.1,19.32,19.32,0,0,0-.49,2.12A10.47,10.47,0,0,1,309,318a3.12,3.12,0,0,1-1.05,1.31,2.67,2.67,0,0,1-1.45.48,3,3,0,0,1-1.69-.44,3.07,3.07,0,0,1-1.24-1.43,5.66,5.66,0,0,1-.5-2.15,5.75,5.75,0,0,1,.33-2.33,3.37,3.37,0,0,1,1.17-1.6,3.69,3.69,0,0,1,1.84-.66l.18,1.5a2.4,2.4,0,0,0-1.66.89,3.17,3.17,0,0,0-.48,2.08,3.34,3.34,0,0,0,.6,2,1.58,1.58,0,0,0,1.28.6,1.34,1.34,0,0,0,1-.51,6.18,6.18,0,0,0,.74-2.39,15.7,15.7,0,0,1,.64-2.64,3.6,3.6,0,0,1,1.14-1.58,3,3,0,0,1,1.66-.56,3.23,3.23,0,0,1,1.8.46,3.62,3.62,0,0,1,1.36,1.5,5.26,5.26,0,0,1,.56,2.25,6.76,6.76,0,0,1-.35,2.71,3.78,3.78,0,0,1-1.33,1.76A4.12,4.12,0,0,1,311.43,320Z"/><path class="cls-2" d="M304.58,304.11h-1.67v-1.45h1.67Zm10.15-.08-8.56.07v-1.45l8.56-.07Z"/><path class="cls-2" d="M314.7,300.41l-8.56-.09,0-1.31,1.21,0a3.12,3.12,0,0,1-1.38-2.75,3.72,3.72,0,0,1,.3-1.42,2.24,2.24,0,0,1,.74-1,2.76,2.76,0,0,1,1.08-.44,8.26,8.26,0,0,1,1.41-.06l5.26.06,0,1.45-5.2-.06a3.84,3.84,0,0,0-1.33.15,1.42,1.42,0,0,0-.71.6,1.82,1.82,0,0,0-.27,1,2.32,2.32,0,0,0,.57,1.61,2.85,2.85,0,0,0,2.22.7l4.68,0Z"/><path class="cls-2" d="M311.31,278l.48-1.54a5.35,5.35,0,0,1,2.84,1.92,4.91,4.91,0,0,1,.83,3.18,5.63,5.63,0,0,1-.94,3.06,4.92,4.92,0,0,1-2.35,1.7,8.13,8.13,0,0,1-3.2.45,7,7,0,0,1-3.18-.89,4.83,4.83,0,0,1-2-2.11,5.93,5.93,0,0,1-.56-2.9,4.85,4.85,0,0,1,1.07-2.93,4.7,4.7,0,0,1,2.63-1.55l.27,1.56a3.68,3.68,0,0,0-1.94,1.09,3.15,3.15,0,0,0-.69,1.93,3.75,3.75,0,0,0,.53,2.31,3.49,3.49,0,0,0,1.67,1.38,7.21,7.21,0,0,0,2.25.5,7.33,7.33,0,0,0,2.65-.3,3.32,3.32,0,0,0,1.76-1.27,3.89,3.89,0,0,0,.66-2,3.38,3.38,0,0,0-.63-2.27A3.9,3.9,0,0,0,311.31,278Z"/><path class="cls-2" d="M315.68,274.73l-11.77-1,.13-1.56,4.84.43.54-6.12-4.84-.42.14-1.56,11.77,1-.14,1.56-5.55-.49-.53,6.12,5.54.49Z"/><path class="cls-2" d="M316.82,262.66l-11.75-1.3.17-1.56L317,261.11Z"/><path class="cls-2" d="M315.67,254.66l-10.75,4.91-.65-1.42,9.48-4.33-2.42-5.29,1.27-.58Z"/><path class="cls-2" d="M312,246.82l-11.6,2.26-.77-4a9.53,9.53,0,0,1-.24-2.1,4.09,4.09,0,0,1,.5-1.86,4.83,4.83,0,0,1,1.72-1.76,7.81,7.81,0,0,1,2.67-1,8.42,8.42,0,0,1,2.4-.15,5.82,5.82,0,0,1,1.84.47,4.22,4.22,0,0,1,1.26.85,4.47,4.47,0,0,1,.85,1.27,8.07,8.07,0,0,1,.56,1.83Zm-1.66-1.27-.48-2.47a5.93,5.93,0,0,0-.57-1.76,2.65,2.65,0,0,0-.8-.93,3.75,3.75,0,0,0-1.64-.56,7.11,7.11,0,0,0-2.29.13,5.39,5.39,0,0,0-2.68,1.14,3.06,3.06,0,0,0-1,1.71,6,6,0,0,0,.15,2l.47,2.43Z"/><path class="cls-2" d="M310.07,236.35l-11.19-3.82,1.7-5a6.89,6.89,0,0,1,1.07-2.17,2.67,2.67,0,0,1,1.49-.88,3.34,3.34,0,0,1,1.85.11,3,3,0,0,1,1.74,1.46,4.1,4.1,0,0,1,.22,2.73,4,4,0,0,1,.87-.7,7.84,7.84,0,0,1,1.9-.72l3.71-.91-.63,1.86L310,229c-.82.2-1.45.38-1.9.54a3.49,3.49,0,0,0-1,.5,2.32,2.32,0,0,0-.52.57,4.05,4.05,0,0,0-.34.81l-.59,1.71,5,1.7Zm-5.75-3.62,1.09-3.18a5,5,0,0,0,.33-1.65,1.78,1.78,0,0,0-.37-1.1,1.85,1.85,0,0,0-.9-.64,1.78,1.78,0,0,0-1.51.13,2.84,2.84,0,0,0-1.13,1.64l-1.21,3.54Z"/><path class="cls-2" d="M315.42,225.78,304.8,220.6l3.74-7.68,1.25.61-3.05,6.28,3.25,1.58,2.86-5.87,1.25.6L311.23,222l3.62,1.76,3.18-6.52,1.25.61Z"/><path class="cls-2" d="M319.77,212.7l-11.8-.55.07-1.6,9.56-5.77-9.27-.43.07-1.5,11.81.55-.08,1.61-9.56,5.76,9.27.44Z"/><path class="cls-2" d="M316.53,201l.14-1.47a3.26,3.26,0,0,0,1.52-.22,2.69,2.69,0,0,0,1.12-1,4.46,4.46,0,0,0,.67-1.72,4.32,4.32,0,0,0,0-1.6,2.21,2.21,0,0,0-.53-1.14,1.78,1.78,0,0,0-.94-.51,1.52,1.52,0,0,0-1,.14,2.44,2.44,0,0,0-.88.92,20.89,20.89,0,0,0-.94,2,10.5,10.5,0,0,1-1.14,2.11,3.17,3.17,0,0,1-1.31,1,2.7,2.7,0,0,1-1.52.15,3,3,0,0,1-1.55-.8,3.2,3.2,0,0,1-.9-1.68,5.43,5.43,0,0,1,0-2.2,5.71,5.71,0,0,1,.83-2.2,3.39,3.39,0,0,1,1.5-1.3,3.63,3.63,0,0,1,1.94-.23l-.16,1.49a2.43,2.43,0,0,0-1.81.5,3.22,3.22,0,0,0-.94,1.92,3.34,3.34,0,0,0,.14,2.13,1.55,1.55,0,0,0,1.12.86,1.32,1.32,0,0,0,1.11-.26,6.15,6.15,0,0,0,1.25-2.17,15.8,15.8,0,0,1,1.22-2.43,3.59,3.59,0,0,1,1.46-1.29,3,3,0,0,1,1.74-.18,3.28,3.28,0,0,1,1.65.85,3.7,3.7,0,0,1,1,1.76,5.51,5.51,0,0,1,0,2.33,6.75,6.75,0,0,1-.94,2.56,3.8,3.8,0,0,1-1.69,1.42A3.94,3.94,0,0,1,316.53,201Z"/><path class="cls-2" d="M323.89,181.85l-10.4-.55-.21,3.88-1.39-.07.49-9.35,1.4.07-.21,3.91,10.41.55Z"/><path class="cls-2" d="M324.27,174.75l-11.8-.63.46-8.53,1.39.08-.37,7,3.61.19.35-6.53,1.38.07L319,172.9l4,.22.39-7.25,1.39.08Z"/><path class="cls-2" d="M324.85,163.84l-11.8-.63.09-1.56,10.4.55.31-5.81,1.4.07Z"/><path class="cls-2" d="M325.35,154.59l-11.8-.63.45-8.53,1.39.08-.37,7,3.62.19.34-6.53,1.39.08-.35,6.52,4,.22.38-7.25,1.4.08Z"/><path class="cls-2" d="M326.11,140.25l-12,3.94.09-1.69,8.73-2.61c.7-.21,1.36-.38,2-.51-.64-.22-1.27-.47-1.9-.74l-8.4-3.65.08-1.59,11.56,5.25Z"/><path class="cls-2" d="M326.53,132.35l-11.8-.63.08-1.56,11.8.63Z"/><path class="cls-2" d="M322.94,128.35l-.05-1.48a3.08,3.08,0,0,0,1.48-.41,2.63,2.63,0,0,0,1-1.13,4.68,4.68,0,0,0,.45-1.8,4.46,4.46,0,0,0-.18-1.59,2.2,2.2,0,0,0-.68-1.06,1.71,1.71,0,0,0-1-.38,1.55,1.55,0,0,0-1,.27,2.5,2.5,0,0,0-.75,1,21.2,21.2,0,0,0-.69,2.07,10.57,10.57,0,0,1-.85,2.24,3.21,3.21,0,0,1-1.17,1.2,2.63,2.63,0,0,1-1.49.34,2.94,2.94,0,0,1-1.64-.6,3.1,3.1,0,0,1-1.1-1.54,5.57,5.57,0,0,1-.29-2.19,6.12,6.12,0,0,1,.54-2.29,3.43,3.43,0,0,1,1.33-1.48,3.6,3.6,0,0,1,1.89-.48l0,1.51a2.41,2.41,0,0,0-1.73.72,3.19,3.19,0,0,0-.68,2,3.25,3.25,0,0,0,.41,2.09,1.57,1.57,0,0,0,1.21.72,1.34,1.34,0,0,0,1.08-.41,6.24,6.24,0,0,0,1-2.31,16.22,16.22,0,0,1,.89-2.57,3.63,3.63,0,0,1,1.29-1.45,2.89,2.89,0,0,1,1.7-.41,3.29,3.29,0,0,1,1.75.64,3.58,3.58,0,0,1,1.21,1.62,5.36,5.36,0,0,1,.34,2.3,6.64,6.64,0,0,1-.61,2.65,3.74,3.74,0,0,1-1.49,1.63A4,4,0,0,1,322.94,128.35Z"/><path class="cls-2" d="M327.37,116.62l-11.8-.62.08-1.57,11.8.63Z"/><path class="cls-2" d="M319.46,111.89a6.48,6.48,0,0,1-4.87.29A5.4,5.4,0,0,1,311.5,109a5.66,5.66,0,0,1-.4-3,5.16,5.16,0,0,1,1.25-2.68,7.58,7.58,0,0,1,5.92-2.41A4.92,4.92,0,0,1,321,102a5.79,5.79,0,0,1,1.77,2.37,5.67,5.67,0,0,1,.39,3.07,5.26,5.26,0,0,1-1.27,2.68A6.84,6.84,0,0,1,319.46,111.89Zm-.6-1.5a4.79,4.79,0,0,0,2.68-2.35,3.8,3.8,0,0,0,0-3.13,3.74,3.74,0,0,0-2.26-2.21,5,5,0,0,0-3.69.28,6.14,6.14,0,0,0-2.14,1.41,3.73,3.73,0,0,0-1,2,3.88,3.88,0,0,0,.25,2.17,4,4,0,0,0,2.15,2.21A5.1,5.1,0,0,0,318.86,110.39Z"/><path class="cls-2" d="M320.33,98l-11.78,1-.13-1.6,8.75-6.94-9.25.75-.12-1.49,11.78-1,.12,1.6L311,97.28l9.26-.75Z"/><rect x="82.87" y="501.36" width="23.99" height="8.7"/><rect class="cls-3" x="58.88" y="501.36" width="23.99" height="8.7"/><rect x="131.24" y="501.36" width="23.99" height="8.7"/><rect class="cls-3" x="107.25" y="501.36" width="23.99" height="8.7"/><rect x="209.53" y="501.36" width="23.99" height="8.7"/><rect class="cls-4" x="185.55" y="501.36" width="23.99" height="8.7"/><rect x="257.9" y="501.36" width="23.99" height="8.7"/><rect class="cls-4" x="233.92" y="501.36" width="23.99" height="8.7"/></svg>