<svg id="Laag_1" data-name="Laag 1" xmlns="http://www.w3.org/2000/svg" viewBox="0 0 340.16 255.12"><defs><style>.cls-1{fill:#ff0;}</style></defs><rect class="cls-1" x="0.13" width="340.16" height="255.12" rx="56.69"/><path d="M62,106.16V123H58.79v-7.08H56.33V134h1.82v10.18H48.92V134H51V115.89H48.44V123H45.21V106.16Z"/><path d="M78.86,106.16v15.23H74.45v-5.5H70.72v6.83h4.65v3.91H70.72V134h3.73v-5.55h4.77v15.73H63.55V134h1.84V115.89H63.55v-9.73Z"/><path d="M98.82,134v10.18H89.59V134h2L91,128.88H86.86L86.24,134h2.15v10.18H80.7V134h1.75l3.79-27.88h7L97.17,134ZM90.45,125l-1.53-11.71L87.33,125Z"/><path d="M113.84,106.16v13.41h-5.07l-.08-1c-.12-1.73-.6-2.59-1.46-2.59q-1.56,0-1.56,2,0,2.25,2.71,3.93,4.26,2.67,5.42,4.89c.77,1.48,1.16,4.06,1.16,7.76q0,10.29-5.24,10.29-2.82,0-4.52-3.32v2.71h-4.77V129.75h4.77v.56c0,2.5.66,3.76,2,3.76s1.84-.88,1.84-2.65a4.7,4.7,0,0,0-2.09-4.15l-2.79-1.93q-4.19-2.86-4.18-9.45,0-10.36,5.1-10.37,2.53,0,4,3.32v-2.68Z"/><path d="M131.9,106.16v15.23h-4.4v-5.5h-3.73v6.83h4.65v3.91h-4.65V134h3.73v-5.55h4.77v15.73H116.6V134h1.84V115.89H116.6v-9.73Z"/><path d="M153.48,130c.21,2.13.31,3.95.31,5.46q0,9-4.3,9-4.1,0-4.09-9.36l0-2.51,0-2.54c0-2.28-1.09-3.43-3.29-3.43l-.5,0V134h2v10.18h-9.23V134h1.9V115.89h-1.9v-9.73h8.64q4.71,0,6.3,2t1.59,8q0,7.27-4.43,8.33c-.15,0-.36.09-.64.14q3.79.64,4,3.43l.13,2.62.12,2.09c.05,1.06.35,1.59.89,1.59.76,0,1.14-1.25,1.14-3.76V130Zm-11.82-7.11h.61q3.57,0,3.57-3.29,0-3.76-3.45-3.76l-.73,0Z"/><path d="M188.27,106.16V123H185v-7.08h-2.46V134h1.82v10.18h-9.23V134h2.09V115.89h-2.57V123h-3.23V106.16Z"/><path d="M208.84,130c.21,2.13.31,3.95.31,5.46q0,9-4.29,9-4.11,0-4.1-9.36l0-2.51,0-2.54c0-2.28-1.1-3.43-3.29-3.43l-.51,0V134h2v10.18H189.8V134h1.9V115.89h-1.9v-9.73h8.65q4.71,0,6.3,2t1.58,8q0,7.27-4.43,8.33c-.15,0-.36.09-.64.14q3.8.64,4,3.43l.14,2.62.11,2.09c.05,1.06.35,1.59.89,1.59.76,0,1.14-1.25,1.14-3.76V130ZM197,122.92h.62c2.38,0,3.56-1.1,3.56-3.29q0-3.76-3.45-3.76l-.73,0Z"/><path d="M227.83,134v10.18H218.6V134h2l-.59-5.16h-4.12l-.62,5.16h2.15v10.18h-7.69V134h1.75l3.79-27.88h7l3.9,27.88ZM219.46,125l-1.53-11.71L216.34,125Z"/><path d="M238.59,106.16v9.73h-2V134h2v10.18h-9.23V134h1.9V115.89h-1.9v-9.73Z"/><path d="M256.51,126.63v17.59H240.79V134h1.89V115.89h-1.89v-9.73H250v9.73h-2V134h3.73v-7.41Z"/><path d="M273.6,106.16v15.23h-4.41v-5.5h-3.73v6.83h4.65v3.91h-4.65V134h3.73v-5.55H274v15.73H258.3V134h1.84V115.89H258.3v-9.73Z"/><path d="M295.17,130c.21,2.13.31,3.95.31,5.46q0,9-4.29,9-4.1,0-4.1-9.36l0-2.51,0-2.54c0-2.28-1.1-3.43-3.29-3.43l-.5,0V134h2v10.18h-9.22V134H278V115.89h-1.89v-9.73h8.64q4.71,0,6.3,2t1.59,8q0,7.27-4.44,8.33c-.15,0-.36.09-.64.14q3.8.64,4,3.43l.14,2.62.11,2.09c.06,1.06.35,1.59.89,1.59.76,0,1.14-1.25,1.14-3.76V130Zm-11.81-7.11H284q3.57,0,3.57-3.29c0-2.51-1.16-3.76-3.46-3.76l-.72,0Z"/></svg>