<svg id="Laag_1" data-name="Laag 1" xmlns="http://www.w3.org/2000/svg" viewBox="0 0 340.16 255.12"><defs><style>.cls-1{fill:#fff;}</style></defs><rect width="340.16" height="255.12" rx="56.69"/><path class="cls-1" d="M118.45,101.85V112h-9.23V101.85h1.84V83.7h-1.84V74h7.61c3.27,0,5.46.78,6.55,2.34S125,81,125,85.63q0,6.08-1.47,8t-6,2h-1.19v6.22ZM116.39,83.7v7.75h1.14c1.58,0,2.37-1.22,2.37-3.68q0-4.06-2.76-4.07Z"/><path class="cls-1" d="M144,101.85V112h-9.23V101.85h2l-.58-5.16h-4.13l-.61,5.16h2.14V112h-7.69V101.85h1.76L131.47,74h7l3.9,27.88Zm-8.36-9.06-1.54-11.71-1.59,11.71Z"/><path class="cls-1" d="M164.61,97.83c.2,2.14.31,4,.31,5.47q0,9-4.3,9-4.1,0-4.09-9.36l0-2.51,0-2.54c0-2.29-1.09-3.43-3.29-3.43l-.5,0v7.36h2V112h-9.23V101.85h1.9V83.7h-1.9V74h8.64c3.14,0,5.24.68,6.3,2s1.59,4,1.59,8q0,7.27-4.43,8.33c-.15,0-.36.09-.64.14q3.79.64,4,3.43l.13,2.62.12,2.09c0,1.06.35,1.59.89,1.59.76,0,1.14-1.25,1.14-3.76v-.62Zm-11.82-7.1h.61q3.57,0,3.57-3.29,0-3.76-3.45-3.77l-.73,0Z"/><path class="cls-1" d="M182.28,74V90.78h-3.23V83.7H176.6v18.15h1.81V112h-9.23V101.85h2.09V83.7h-2.56v7.08h-3.24V74Z"/><path class="cls-1" d="M210.16,74V83.7h-2v18.15h2V112h-9.23V101.85h1.9V83.7h-1.9V74Z"/><path class="cls-1" d="M221.59,74V83.7h-2v18.15h2V112h-9.23V101.85h1.9V83.7h-1.9V74Z"/><path class="cls-1" d="M230,84.93v7.61h-5.33V84.93Zm0,19.48V112h-5.33v-7.61Z"/><path class="cls-1" d="M68.42,142.48v16.81H65.18v-7.08H62.73v18.15h1.81v10.17H55.31V170.36H57.4V152.21H54.84v7.08H51.61V142.48Z"/><path class="cls-1" d="M87.65,142.48v9.73H85.78v18.15h1.87v10.17H79.57V170.36h.89v-7.42H77.11v7.42H78v10.17H70V170.36h1.84V152.21H70v-9.73H78v9.73h-.92V159h3.35v-6.83h-.89v-9.73Z"/><path class="cls-1" d="M105.16,142.48V157.7h-4.41v-5.49H97V159h4.65v3.9H97v7.42h3.73v-5.55h4.77v15.72H89.85V170.36h1.84V152.21H89.85v-9.73Z"/><path class="cls-1" d="M140.11,142.48V157.7h-4.4v-5.49H132V159h4.66v3.9H132v7.42h3.74v-5.55h4.76v15.72H124.81V170.36h1.84V152.21h-1.84v-9.73Z"/><path class="cls-1" d="M159.35,142.48v9.73h-1.68l-4.26,11.43v6.72h1.87v10.17h-9.23V170.36h2v-6.72l-4.68-11.43H142v-9.73h8.48v9.73H149l2,6.55,2.4-6.55h-1.76v-9.73Z"/><path class="cls-1" d="M176.18,142.48V157.7h-4.4v-5.49H168V159h4.66v3.9H168v7.42h3.74v-5.55h4.77v15.72H160.88V170.36h1.84V152.21h-1.84v-9.73Z"/><path class="cls-1" d="M205.51,144.65v-2.17h4.77V157.7h-4.77V157q0-4.68-1.9-4.68c-.87,0-1.4.52-1.6,1.55a69.57,69.57,0,0,0-.29,8.68c0,5.22.63,7.84,1.89,7.84s1.76-1.46,1.76-4.35v-3h5.24q.28,3,.28,6.13,0,12-7.25,12c-3.29,0-5.38-1.14-6.29-3.42S196,170.14,196,161.85q0-12,1.15-16t4.6-4Q204.29,141.87,205.51,144.65Z"/><path class="cls-1" d="M230.15,170.36v10.17h-9.23V170.36h2l-.58-5.16h-4.13l-.61,5.16h2.15v10.17H212V170.36h1.76l3.79-27.88h7l3.91,27.88Zm-8.36-9.06-1.53-11.71-1.59,11.71Z"/><path class="cls-1" d="M251.31,142.48v9.73h-1.87v28.32h-5.82l-6.42-30.05v19.88h2.18v10.17h-7.7V170.36h1.9V152.21h-1.9v-9.73h8.42l5.72,26.59V152.21h-2.2v-9.73Z"/><path class="cls-1" d="M253.21,142.48h7.19q5.72,0,7.38,2.51t1.68,11.09v8.76c0,6.74-.54,11-1.61,12.9s-3.55,2.79-7.45,2.79h-7.19V170.36h1.86V152.21h-1.86Zm7.19,9.73v18.15l.81,0c1.18,0,1.92-.26,2.21-.77a10.42,10.42,0,0,0,.43-3.94v-7.7a15.05,15.05,0,0,0-.44-4.79c-.3-.61-1.06-.92-2.29-.92Z"/><path class="cls-1" d="M288.55,142.48v9.73h-1.67l-4.27,11.43v6.72h1.87v10.17h-9.22V170.36h2v-6.72l-4.68-11.43h-1.45v-9.73h8.47v9.73h-1.45l2,6.55,2.39-6.55h-1.75v-9.73Z"/></svg>