<svg id="Laag_1" data-name="Laag 1" xmlns="http://www.w3.org/2000/svg" viewBox="0 0 340.16 255.12"><defs><style>.cls-1{fill:blue;}.cls-2{fill:#fff;}</style></defs><rect class="cls-1" width="340.16" height="255.12" rx="56.69"/><path class="cls-2" d="M130.18,39.72V55.36h-4.77V49.45H122V57h4.66v3.9H122v6.66h2.09V77.77h-9.23V67.59h1.82V49.45h-1.82V39.72Z"/><path class="cls-2" d="M141.05,39.72v9.73h-2V67.59h2V77.77h-9.23V67.59h1.9V49.45h-1.9V39.72Z"/><path class="cls-2" d="M162.87,39.72v9.73H161V77.77h-5.83l-6.41-30V67.59h2.17V77.77h-7.69V67.59h1.9V49.45h-1.9V39.72h8.42l5.71,26.59V49.45h-2.2V39.72Z"/><path class="cls-2" d="M182.19,67.59V77.77H173V67.59h2l-.58-5.15h-4.13l-.61,5.15h2.15V77.77h-7.7V67.59h1.76l3.79-27.87h7l3.91,27.87Zm-8.36-9.05L172.3,46.83l-1.59,11.71Z"/><path class="cls-2" d="M199.45,60.18V77.77H183.73V67.59h1.89V49.45h-1.89V39.72H193v9.73h-2V67.59h3.73V60.18Z"/><path class="cls-2" d="M216.54,39.72V54.94h-4.41V49.45H208.4v6.83h4.65v3.9H208.4v7.41h3.73V62.05h4.77V77.77H201.23V67.59h1.84V49.45h-1.84V39.72Z"/><path class="cls-2" d="M225.29,50.67v7.61H220V50.67Zm0,19.49v7.61H220V70.16Z"/><path class="cls-2" d="M42.25,132.09c.21,2.14.31,4,.31,5.46q0,9-4.29,9-4.1,0-4.1-9.37l0-2.51,0-2.53q0-3.43-3.29-3.43l-.51,0v7.36h2v10.18H23.21V136.1h1.9V118h-1.9v-9.73h8.65q4.71,0,6.3,2c1.05,1.35,1.59,4,1.59,8q0,7.27-4.44,8.34l-.64.14c2.53.42,3.86,1.57,4,3.43l.14,2.62.11,2.09c.05,1.06.35,1.59.89,1.59.76,0,1.14-1.26,1.14-3.77v-.61ZM30.43,125h.62q3.57,0,3.57-3.29c0-2.51-1.16-3.76-3.46-3.76l-.73,0Z"/><path class="cls-2" d="M59.12,108.23v15.22H54.71V118H51v6.83h4.65v3.9H51v7.41h3.73v-5.54h4.77v15.72H43.81V136.1h1.84V118H43.81v-9.73Z"/><path class="cls-2" d="M78,108.23V118H76.6L73,146.28H66.56L62.6,118H61v-9.73h8.47V118H67.82l3,19.76L73,118H70.83v-9.73Z"/><path class="cls-2" d="M88.72,108.23V118h-2V136.1h2v10.18H79.5V136.1h1.89V118H79.5v-9.73Z"/><path class="cls-2" d="M104.42,108.23v13.4H99.34l-.08-1c-.11-1.73-.6-2.59-1.45-2.59q-1.56,0-1.56,2,0,2.25,2.7,3.93c2.85,1.78,4.65,3.41,5.43,4.89s1.15,4.07,1.15,7.77q0,10.27-5.24,10.28c-1.88,0-3.38-1.1-4.51-3.32v2.71H91V131.81h4.77v.56c0,2.51.66,3.76,2,3.76s1.84-.88,1.84-2.65a4.69,4.69,0,0,0-2.09-4.15l-2.78-1.92q-4.18-2.88-4.18-9.45,0-10.38,5.1-10.37c1.69,0,3,1.1,4,3.31v-2.67Z"/><path class="cls-2" d="M116.4,108.23V118h-2V136.1h2v10.18h-9.22V136.1h1.89V118h-1.89v-9.73Z"/><path class="cls-2" d="M134.72,108.23V125h-3.24V118H129V136.1h1.81v10.18h-9.22V136.1h2.09V118h-2.57V125h-3.23V108.23Z"/><path class="cls-2" d="M145.48,108.23V118h-2V136.1h2v10.18h-9.23V136.1h1.9V118h-1.9v-9.73Z"/><path class="cls-2" d="M167.31,108.23V118h-1.87v28.32h-5.83l-6.41-30V136.1h2.17v10.18h-7.69V136.1h1.9V118h-1.9v-9.73h8.42l5.71,26.59V118h-2.2v-9.73Z"/><path class="cls-2" d="M183.72,108.23v15.22h-5l.08-3.15c0-1.49-.56-2.23-1.67-2.23q-2.24,0-2.23,9.84c0,5.29.7,7.94,2.12,7.94,1.13,0,1.7-1.26,1.7-3.79v-1.25H177v-5.52h8.84v5.52h-2.07v15.47h-2.56l-1.06-3.18c-.07.19-.13.33-.17.42q-1.4,3.38-4.62,3.37-3.6,0-4.77-2.67t-1.17-10.85V122.61q0-8.74,1.2-11.87a4.48,4.48,0,0,1,4.54-3.13,3.62,3.62,0,0,1,3.85,2.57v-2Z"/><path class="cls-2" d="M213.55,136.1v10.18h-9.22V136.1h1.83V118h-1.83v-9.73h7.6q4.9,0,6.56,2.34t1.64,9.31q0,6.08-1.46,8t-6,2h-1.2v6.21ZM211.49,118v7.75h1.14q2.37,0,2.37-3.68c0-2.72-.92-4.07-2.76-4.07Z"/><path class="cls-2" d="M237.94,108.23V118H236v18.17l0,2.93-.25,2.84c-.64,3.33-2.67,5-6.11,5q-6.49,0-6.49-8.31V118h-1.87v-9.73h8.47V118h-1.28v12.85q0,5.33,1.65,5.32,1.86,0,1.86-5.52V118h-1.22v-9.73Z"/><path class="cls-2" d="M258.82,132.09c.21,2.14.31,4,.31,5.46q0,9-4.29,9-4.11,0-4.1-9.37l0-2.51,0-2.53c0-2.29-1.09-3.43-3.29-3.43l-.5,0v7.36h2v10.18h-9.23V136.1h1.9V118h-1.9v-9.73h8.64q4.71,0,6.3,2t1.59,8q0,7.27-4.43,8.34l-.64.14c2.53.42,3.86,1.57,4,3.43l.14,2.62.11,2.09c.05,1.06.35,1.59.89,1.59.76,0,1.14-1.26,1.14-3.77v-.61ZM247,125h.62q3.56,0,3.56-3.29,0-3.76-3.45-3.76l-.73,0Z"/><path class="cls-2" d="M273.87,108.23v13.4H268.8l-.08-1c-.11-1.73-.6-2.59-1.45-2.59q-1.56,0-1.56,2,0,2.25,2.7,3.93,4.26,2.67,5.42,4.89t1.16,7.77q0,10.27-5.24,10.28c-1.88,0-3.38-1.1-4.52-3.32v2.71h-4.76V131.81h4.76v.56c0,2.51.66,3.76,2,3.76s1.84-.88,1.84-2.65a4.69,4.69,0,0,0-2.09-4.15l-2.79-1.92Q260,124.53,260,118q0-10.38,5.1-10.37c1.7,0,3,1.1,4,3.31v-2.67Z"/><path class="cls-2" d="M291.94,108.23v15.22h-4.41V118H283.8v6.83h4.65v3.9H283.8v7.41h3.73v-5.54h4.77v15.72H276.63V136.1h1.84V118h-1.84v-9.73Z"/><path class="cls-2" d="M308,108.23v13.4h-5.08l-.08-1c-.11-1.73-.6-2.59-1.45-2.59q-1.56,0-1.56,2,0,2.25,2.7,3.93c2.85,1.78,4.65,3.41,5.43,4.89s1.15,4.07,1.15,7.77q0,10.27-5.24,10.28c-1.88,0-3.38-1.1-4.51-3.32v2.71h-4.77V131.81h4.77v.56c0,2.51.66,3.76,2,3.76s1.84-.88,1.84-2.65a4.69,4.69,0,0,0-2.09-4.15l-2.78-1.92q-4.18-2.88-4.19-9.45,0-10.38,5.11-10.37c1.69,0,3,1.1,4,3.31v-2.67Z"/><path class="cls-2" d="M316.94,138.28V144q0,8.47-5.32,8.95v-3.07c1.28-.54,1.92-1.73,1.92-3.59h-1.92v-8Z"/><path class="cls-2" d="M44.09,176.74v13.4H39l-.08-1c-.11-1.73-.6-2.59-1.45-2.59q-1.56,0-1.56,2,0,2.25,2.7,3.93,4.26,2.67,5.42,4.89c.77,1.48,1.16,4.06,1.16,7.76q0,10.29-5.24,10.29c-1.88,0-3.38-1.11-4.52-3.32v2.71H30.69V200.32h4.76v.56c0,2.5.66,3.76,2,3.76s1.84-.88,1.84-2.65a4.68,4.68,0,0,0-2.09-4.15l-2.79-1.93q-4.17-2.86-4.18-9.45,0-10.36,5.1-10.37,2.53,0,4,3.32v-2.67Z"/><path class="cls-2" d="M47,200.35v-8.48q0-9.59,1.48-12.67t6.08-3.08c2.88,0,4.8,1.07,5.77,3.19s1.45,6.34,1.45,12.62v8.42q0,8.68-1.57,11.87t-5.85,3.18c-2.92,0-4.87-1-5.87-3.05S47,206.31,47,200.35Zm5.6-8.34v7.08c0,3.7.62,5.55,1.84,5.55s1.73-1.87,1.73-5.6v-7.28l0-1.64,0-1.15c-.08-1.6-.64-2.4-1.7-2.4S52.62,188.39,52.62,192Z"/><path class="cls-2" d="M73.89,178.91v-2.17h4.77V192H73.89v-.7c0-3.12-.63-4.69-1.89-4.69-.88,0-1.41.52-1.6,1.55a68.88,68.88,0,0,0-.3,8.69q0,7.83,1.9,7.83t1.75-4.35v-3H79q.27,3,.27,6.13,0,12-7.24,12-4.94,0-6.29-3.43t-1.35-15.86q0-12,1.14-16c.76-2.64,2.3-4,4.6-4C71.82,176.12,73.08,177.05,73.89,178.91Z"/><path class="cls-2" d="M98.68,176.74v9.72h-2l-3.57,6,4.63,12.15h1.53v10.18H91V204.61h1.48L89.59,197l-1.31,2.67v4.91h1.31v10.18H81.11V204.61H83V186.46H81.11v-9.72h8.48v9.72H88.28v7l4.46-7H91v-9.72Z"/><path class="cls-2" d="M114.48,176.74v13.4h-5.07l-.09-1c-.11-1.73-.59-2.59-1.45-2.59q-1.56,0-1.56,2,0,2.25,2.71,3.93,4.26,2.67,5.42,4.89c.77,1.48,1.16,4.06,1.16,7.76q0,10.29-5.24,10.29-2.82,0-4.52-3.32v2.71h-4.77V200.32h4.77v.56c0,2.5.66,3.76,2,3.76s1.84-.88,1.84-2.65a4.7,4.7,0,0,0-2.09-4.15l-2.79-1.93q-4.19-2.86-4.18-9.45,0-10.36,5.1-10.37,2.53,0,4,3.32v-2.67Z"/><path class="cls-2" d="M157.49,188v6.08h-1.7A36.93,36.93,0,0,1,152,205l-.42.81q2.46,5.78,5.88,6.61v2.4h-8.11l-1.2-3.27q-2.7,3.89-5.88,3.88-7.73,0-7.72-11.93,0-8.61,5.16-11.74l.55-.33a3.29,3.29,0,0,1,.34-.25l-.84-2.29a14.08,14.08,0,0,1-.89-4.74q0-8,6.5-8,6.07,0,6.07,6.72,0,5.19-5.43,9.17l3.68,9.59a21.47,21.47,0,0,0,2.73-7.55h-1.23V188Zm-11.37,17.92-4-10.81a7.36,7.36,0,0,0-2.42,5.66q0,6.38,3.71,6.38A3.46,3.46,0,0,0,146.12,205.89Zm-1.48-17a4.27,4.27,0,0,0,2.07-3.38c0-1.2-.52-1.81-1.57-1.81s-1.47.59-1.47,1.76A10.29,10.29,0,0,0,144.64,188.92Z"/><path class="cls-2" d="M176.81,176.74H184q5.35,0,7,1.92c1.13,1.28,1.69,4,1.69,8.08q0,4.55-.91,6.15c-.6,1.07-1.86,1.79-3.77,2.16,2.19.61,3.57,1.43,4.15,2.44s.86,3.17.86,6.48q0,6.53-1.68,8.67t-6.82,2.15h-7.75V204.61h1.87V186.46h-1.87Zm7.19,9.72v6.61h1c1.47,0,2.2-1.11,2.2-3.34s-.78-3.27-2.34-3.27Zm0,10.79v7.36h.87q2.67,0,2.67-4,0-3.34-2.7-3.35Z"/><path class="cls-2" d="M204.49,176.74v9.72h-2v18.15h2v10.18h-9.22V204.61h1.89V186.46h-1.89v-9.72Z"/><path class="cls-2" d="M221.22,176.74V192h-5l.08-3.15c0-1.49-.55-2.24-1.67-2.24q-2.24,0-2.23,9.85,0,7.94,2.12,7.94c1.13,0,1.7-1.26,1.7-3.79v-1.25h-1.76V193.8h8.84v5.52h-2.06v15.47h-2.57l-1.06-3.18c-.07.18-.13.32-.16.42-.93,2.25-2.48,3.37-4.63,3.37q-3.6,0-4.77-2.68c-.78-1.78-1.17-5.4-1.17-10.84V191.12c0-5.84.4-9.79,1.2-11.88a4.48,4.48,0,0,1,4.54-3.12,3.62,3.62,0,0,1,3.85,2.57v-1.95Z"/><path class="cls-2" d="M259.52,176.74v9.72h-1.87v18.15h1.87v10.18h-8.08V204.61h.89V197.2H249v7.41h.92v10.18h-8.08V204.61h1.84V186.46h-1.84v-9.72h8.08v9.72H249v6.83h3.35v-6.83h-.89v-9.72Z"/><path class="cls-2" d="M279.14,204.61v10.18h-9.22V204.61h2l-.59-5.16h-4.12l-.62,5.16h2.15v10.18H261V204.61h1.75l3.79-27.87h7l3.9,27.87Zm-8.36-9.06-1.53-11.71-1.59,11.71Z"/><path class="cls-2" d="M289.9,176.74v9.72h-2v18.15h2v10.18h-9.22V204.61h1.89V186.46h-1.89v-9.72Z"/><path class="cls-2" d="M311.15,200.6c.2,2.13.3,4,.3,5.46q0,9-4.29,9-4.1,0-4.1-9.36l0-2.51,0-2.54c0-2.28-1.1-3.43-3.29-3.43l-.5,0v7.36h2v10.18h-9.22V204.61H294V186.46h-1.89v-9.72h8.64q4.71,0,6.3,2c1.06,1.34,1.59,4,1.59,8q0,7.28-4.44,8.34l-.64.13c2.53.43,3.86,1.58,4,3.43l.14,2.62.11,2.09c.06,1.06.35,1.59.89,1.59.76,0,1.15-1.25,1.15-3.76v-.61Zm-11.82-7.11h.61q3.57,0,3.57-3.29,0-3.76-3.46-3.76l-.72,0Z"/></svg>