<svg id="Laag_1" data-name="Laag 1" xmlns="http://www.w3.org/2000/svg" viewBox="0 0 340.16 255.12"><defs><style>.cls-1{font-size:57.09px;font-family:Playbill;}.cls-1,.cls-2{fill:#fff;}</style></defs><rect width="340.16" height="255.12" rx="56.69"/><text class="cls-1" transform="translate(161.52 144.21)"> </text><path class="cls-2" d="M105.14,40V55.26h-4.4V49.77H97V56.6h4.66v3.9H97v7.42h3.74V62.37h4.76V78.09H89.84V67.92h1.84V49.77H89.84V40Z"/><path class="cls-2" d="M116.91,67.92V78.09h-9.23V67.92h1.84V49.77h-1.84V40h7.61q4.9,0,6.55,2.34c1.1,1.56,1.64,4.67,1.64,9.31,0,4.05-.48,6.73-1.46,8s-3,2-6,2h-1.2v6.22Zm-2.07-18.15v7.75H116q2.37,0,2.37-3.68,0-4.06-2.76-4.07Z"/><path class="cls-2" d="M134.3,40v9.73h-2V67.92h2V78.09h-9.23V67.92H127V49.77h-1.9V40Z"/><path class="cls-2" d="M150,40V53.45h-5.07l-.08-1c-.11-1.72-.6-2.59-1.45-2.59q-1.56,0-1.56,2,0,2.27,2.7,3.93,4.26,2.68,5.42,4.89t1.16,7.77q0,10.27-5.24,10.28c-1.88,0-3.38-1.1-4.52-3.31v2.7h-4.76V63.62h4.76v.56c0,2.51.66,3.76,2,3.76s1.84-.88,1.84-2.64a4.72,4.72,0,0,0-2.09-4.16l-2.79-1.92q-4.17-2.88-4.18-9.45,0-10.38,5.1-10.37c1.69,0,3,1.1,4,3.32V40Z"/><path class="cls-2" d="M152.92,63.65V55.18q0-9.6,1.48-12.67c1-2.06,3-3.08,6.08-3.08q4.32,0,5.77,3.19t1.45,12.61v8.42q0,8.7-1.57,11.88t-5.85,3.17c-2.92,0-4.87-1-5.87-3S152.92,69.62,152.92,63.65Zm5.6-8.33V62.4c0,3.69.62,5.54,1.84,5.54s1.73-1.86,1.73-5.6V55.06L162,53.42l0-1.14c-.08-1.6-.64-2.4-1.7-2.4S158.52,51.69,158.52,55.32Z"/><path class="cls-2" d="M170.12,40h7.19q5.72,0,7.39,2.51t1.67,11.09V62.4q0,10.11-1.6,12.9t-7.46,2.79h-7.19V67.92H172V49.77h-1.87Zm7.19,9.73V67.92l.81,0c1.19,0,1.93-.26,2.22-.77a10.64,10.64,0,0,0,.43-3.94v-7.7c0-2.58-.15-4.18-.45-4.79s-1.06-.92-2.28-.92Z"/><path class="cls-2" d="M204.07,40V55.26h-4.4V49.77h-3.74V56.6h4.66v3.9h-4.66v7.42h3.74V62.37h4.77V78.09H188.77V67.92h1.84V49.77h-1.84V40Z"/><path class="cls-2" d="M239.81,40v9.73l-5.35,7.13h.39q5.27,0,5.27,9.34c0,4.7-.53,8-1.58,9.76s-2.94,2.7-5.67,2.7q-7.37,0-7.36-10.48a47.85,47.85,0,0,1,.31-5.49h4.76v.56q0,4.65,2,4.65c1.24,0,1.86-1.33,1.86-4,0-2.83-.61-4.19-1.84-4.1a1.73,1.73,0,0,0-1.28,1l-2.45-2,7-9.11h-5.22v3.59h-4.37V40Z"/><path class="cls-2" d="M250.32,51V58.6H245V51Zm0,19.49v7.61H245V70.48Z"/><path class="cls-2" d="M52,108.55v16.81H48.72v-7.08H46.27v18.14h1.81V146.6H38.85V136.42h2.09V118.28H38.38v7.08H35.15V108.55Z"/><path class="cls-2" d="M71.19,108.55v9.73H69.32v18.14h1.87V146.6H63.11V136.42H64V129H60.65v7.41h.92V146.6H53.49V136.42h1.84V118.28H53.49v-9.73h8.08v9.73h-.92v6.83H64v-6.83h-.89v-9.73Z"/><path class="cls-2" d="M88.7,108.55v15.22H84.29v-5.49H80.56v6.83h4.65V129H80.56v7.41h3.73v-5.54h4.77V146.6H73.39V136.42h1.84V118.28H73.39v-9.73Z"/><path class="cls-2" d="M121.84,108.55V122h-5.07l-.09-1c-.11-1.73-.59-2.59-1.45-2.59q-1.56,0-1.56,2,0,2.25,2.71,3.93,4.26,2.67,5.42,4.89t1.15,7.77q0,10.27-5.24,10.28c-1.87,0-3.38-1.1-4.51-3.32v2.71h-4.77V132.13h4.77v.56c0,2.51.66,3.76,2,3.76s1.84-.88,1.84-2.65a4.71,4.71,0,0,0-2.09-4.15l-2.79-1.92q-4.19-2.88-4.18-9.45,0-10.38,5.1-10.37,2.53,0,4,3.31v-2.67Z"/><path class="cls-2" d="M141.19,136.42V147.1a4.72,4.72,0,0,1-3.54-1.64,3.09,3.09,0,0,0-.28-.31,6.25,6.25,0,0,1-4.88,2.06q-4.74,0-6.23-3.23t-1.49-13.63v-6.86q0-9.37,1.54-12.46c1-2.06,3.11-3.1,6.23-3.1,2.94,0,4.86,1,5.78,3s1.36,6.29,1.36,12.83v2.65l-.06,2.37,0,2.48c0,1.11-.1,2.64-.28,4.6a2.51,2.51,0,0,0,1.39.58Zm-10.74-6.63a3.13,3.13,0,0,1,1.82-.59,3.09,3.09,0,0,1,1.75.59c.1-1.19.14-2.7.14-4.52q0-6.88-2-6.88c-1.26,0-1.89,2.28-1.89,6.86C130.29,127.05,130.34,128.56,130.45,129.79Zm3.74,5.49c-.41-1.51-1.07-2.26-2-2.26-1.13,0-1.7.7-1.7,2.09s.57,2,1.7,2C133.08,137.12,133.74,136.51,134.19,135.28Z"/><path class="cls-2" d="M158.5,108.55v9.73h-1.93v18.17l0,2.93-.25,2.84c-.63,3.33-2.67,5-6.1,5q-6.5,0-6.5-8.31V118.28h-1.87v-9.73h8.48v9.73h-1.28v12.85c0,3.55.54,5.32,1.64,5.32s1.87-1.84,1.87-5.52V118.28h-1.23v-9.73Z"/><path class="cls-2" d="M177.76,136.42V146.6h-9.23V136.42h2l-.58-5.15H165.8l-.61,5.15h2.14V146.6h-7.69V136.42h1.76l3.79-27.87h7l3.91,27.87Zm-8.36-9.06-1.54-11.7-1.59,11.7Z"/><path class="cls-2" d="M198.33,132.41c.21,2.14.31,4,.31,5.46q0,9-4.29,9-4.11,0-4.1-9.37l0-2.51,0-2.53c0-2.29-1.09-3.43-3.29-3.43l-.5,0v7.36h2V146.6h-9.23V136.42h1.9V118.28h-1.9v-9.73h8.64q4.71,0,6.3,2t1.59,8q0,7.28-4.43,8.34l-.64.14c2.53.42,3.86,1.57,4,3.43l.13,2.62.12,2.09c0,1.06.35,1.59.89,1.59.76,0,1.14-1.26,1.14-3.77v-.61Zm-11.82-7.11h.62q3.56,0,3.56-3.29,0-3.77-3.45-3.76l-.73,0Z"/><path class="cls-2" d="M215.2,108.55v15.22h-4.41v-5.49h-3.73v6.83h4.65V129h-4.65v7.41h3.73v-5.54h4.77V146.6H199.89V136.42h1.84V118.28h-1.84v-9.73Z"/><path class="cls-2" d="M250.15,108.55v15.22h-4.4v-5.49H242v6.83h4.66V129H242v7.41h3.74v-5.54h4.77V146.6H234.85V136.42h1.84V118.28h-1.84v-9.73Z"/><path class="cls-2" d="M269.39,108.55v9.73h-1.68l-4.26,11.43v6.71h1.87V146.6h-9.23V136.42h2v-6.71l-4.69-11.43H252v-9.73h8.48v9.73H259l2,6.55,2.4-6.55h-1.76v-9.73Z"/><path class="cls-2" d="M286.22,108.55v15.22h-4.4v-5.49h-3.74v6.83h4.66V129h-4.66v7.41h3.74v-5.54h4.77V146.6H270.92V136.42h1.84V118.28h-1.84v-9.73Z"/><path class="cls-2" d="M288.76,108.55H296c3.81,0,6.28.83,7.39,2.51s1.67,5.37,1.67,11.09v8.75q0,10.13-1.6,12.91c-1.07,1.86-3.55,2.79-7.46,2.79h-7.19V136.42h1.87V118.28h-1.87Zm7.19,9.73v18.14l.81,0c1.19,0,1.93-.26,2.22-.77a10.71,10.71,0,0,0,.43-3.95V124c0-2.58-.15-4.18-.45-4.79s-1-.92-2.28-.92Z"/><path class="cls-2" d="M81.37,177.06h7.19c3.57,0,5.91.64,7,1.92s1.68,4,1.68,8.08q0,4.55-.9,6.15c-.61,1.07-1.86,1.79-3.78,2.16,2.19.61,3.58,1.43,4.15,2.44s.87,3.17.87,6.48q0,6.53-1.69,8.67t-6.81,2.15H81.37V204.93h1.87V186.78H81.37Zm7.19,9.72v6.61h1c1.47,0,2.21-1.11,2.21-3.34s-.78-3.27-2.35-3.27Zm0,10.79v7.36h.86q2.68,0,2.68-4,0-3.34-2.7-3.35Z"/><path class="cls-2" d="M118.86,200.92c.21,2.13.31,4,.31,5.46q0,9-4.3,9-4.09,0-4.09-9.36l0-2.51,0-2.54c0-2.28-1.09-3.43-3.29-3.43l-.5,0v7.36h2v10.18H99.82V204.93h1.9V186.78h-1.9v-9.72h8.64q4.71,0,6.3,2c1.06,1.34,1.59,4,1.59,8q0,7.28-4.43,8.34l-.64.13c2.53.43,3.85,1.58,4,3.43l.14,2.62.12,2.09c0,1.06.35,1.59.89,1.59.76,0,1.14-1.25,1.14-3.76v-.61ZM107,193.81h.62q3.56,0,3.56-3.29,0-3.77-3.45-3.76l-.73,0Z"/><path class="cls-2" d="M137.84,204.93v10.18h-9.22V204.93h2l-.59-5.16h-4.12l-.62,5.16h2.15v10.18h-7.7V204.93h1.76l3.79-27.87h7l3.9,27.87Zm-8.36-9.06L128,184.16l-1.59,11.71Z"/><path class="cls-2" d="M148.6,177.06v9.72h-2v18.15h2v10.18h-9.22V204.93h1.89V186.78h-1.89v-9.72Z"/><path class="cls-2" d="M170.43,177.06v9.72h-1.87v28.33h-5.82l-6.41-30.05v19.87h2.17v10.18h-7.69V204.93h1.89V186.78h-1.89v-9.72h8.42l5.71,26.59V186.78h-2.2v-9.72Z"/><path class="cls-2" d="M182,179.23v-2.17h4.77v15.22H182v-.7c0-3.12-.63-4.69-1.9-4.69-.87,0-1.4.52-1.6,1.55a72,72,0,0,0-.29,8.69q0,7.83,1.89,7.83c1.18,0,1.76-1.45,1.76-4.35v-3h5.24q.28,3,.28,6.13,0,12-7.25,12-4.94,0-6.28-3.43t-1.36-15.86q0-12,1.15-16c.76-2.64,2.29-4,4.6-4Q180.78,176.44,182,179.23Z"/><path class="cls-2" d="M206.92,177.06v9.72h-1.87v18.15h1.87v10.18h-8.08V204.93h.89v-7.41h-3.35v7.41h.92v10.18h-8.08V204.93h1.84V186.78h-1.84v-9.72h8.08v9.72h-.92v6.83h3.35v-6.83h-.89v-9.72Z"/><path class="cls-2" d="M218.35,177.06v9.72h-2v18.15h2v10.18h-9.23V204.93H211V186.78h-1.9v-9.72Z"/><path class="cls-2" d="M236.27,197.52v17.59H220.55V204.93h1.9V186.78h-1.9v-9.72h9.23v9.72h-2v18.15h3.74v-7.41Z"/><path class="cls-2" d="M238.06,177.06h7.19q5.72,0,7.39,2.5c1.11,1.68,1.67,5.37,1.67,11.1v8.75q0,10.13-1.6,12.91t-7.46,2.79h-7.19V204.93h1.87V186.78h-1.87Zm7.19,9.72v18.15l.81,0c1.19,0,1.93-.25,2.22-.76a10.71,10.71,0,0,0,.43-3.95V192.5a14.75,14.75,0,0,0-.45-4.8c-.3-.61-1.06-.92-2.28-.92Z"/></svg>