<svg id="Laag_1" data-name="Laag 1" xmlns="http://www.w3.org/2000/svg" viewBox="0 0 340.16 255.12"><polygon points="216.22 124.98 219.34 124.98 217.8 113.27 216.22 124.98"/><polygon points="87.2 124.98 90.33 124.98 88.79 113.27 87.2 124.98"/><path d="M197.62,115.87l-.72,0v7h.61q3.57,0,3.57-3.29Q201.08,115.87,197.62,115.87Z"/><path d="M142.26,115.87l-.73,0v7h.62q3.57,0,3.57-3.29C145.72,117.12,144.56,115.87,142.26,115.87Z"/><path d="M284,115.87l-.72,0v7h.61q3.57,0,3.57-3.29Q287.41,115.87,284,115.87Z"/><path d="M283.46,0H56.69A56.69,56.69,0,0,0,0,56.69V198.42a56.69,56.69,0,0,0,56.69,56.7H283.46a56.7,56.7,0,0,0,56.7-56.7V56.69A56.7,56.7,0,0,0,283.46,0ZM61.89,123H58.66v-7.08H56.21V134H58v10.18H48.79V134h2.09V115.89H48.32V123H45.08V106.16H61.89Zm17.2,21.25H63.43V134h1.84V115.89H63.43v-9.73h15.3v15.22h-4.4v-5.49H70.59v6.83h4.66v3.91H70.59V134h3.74v-5.55h4.76Zm19.6,0H89.46V134h2l-.58-5.16H86.73L86.12,134h2.14v10.18H80.57V134h1.76l3.79-27.88h7L97,134h1.65Zm10.9.61c-1.88,0-3.38-1.11-4.52-3.32v2.71h-4.76V129.75h4.76v.55c0,2.51.66,3.77,2,3.77s1.84-.88,1.84-2.65a4.7,4.7,0,0,0-2.09-4.15L104,125.34q-4.17-2.86-4.18-9.45,0-10.36,5.1-10.37,2.53,0,4,3.32v-2.68h4.76v13.41h-5.07l-.08-1c-.11-1.73-.6-2.59-1.45-2.59q-1.56,0-1.56,2,0,2.25,2.7,3.93,4.26,2.67,5.42,4.89c.77,1.48,1.16,4.06,1.16,7.76Q114.83,144.83,109.59,144.83Zm22.55-.61H116.47V134h1.84V115.89h-1.84v-9.73h15.31v15.22h-4.41v-5.49h-3.73v6.83h4.65v3.91h-4.65V134h3.73v-5.55h4.77Zm17.23.27q-4.1,0-4.1-9.36l0-2.51,0-2.54c0-2.28-1.1-3.43-3.29-3.43l-.51,0V134h2v10.18h-9.23V134h1.9V115.89h-1.9v-9.73H143q4.71,0,6.3,2t1.59,8q0,7.27-4.44,8.33c-.15,0-.36.09-.64.14q3.79.64,4,3.43l.14,2.62.11,2.09c.05,1.06.35,1.59.89,1.59.76,0,1.14-1.25,1.14-3.76V130h1.31c.21,2.13.31,3.95.31,5.46Q153.66,144.49,149.37,144.49ZM188.14,123h-3.23v-7.08h-2.45V134h1.81v10.18H175V134h2.09V115.89h-2.56V123h-3.24V106.16h16.81Zm16.59,21.52q-4.09,0-4.1-9.36l0-2.51,0-2.54c0-2.28-1.1-3.43-3.29-3.43l-.5,0V134h2v10.18h-9.22V134h1.89V115.89h-1.89v-9.73h8.64q4.71,0,6.3,2t1.59,8q0,7.27-4.43,8.33c-.15,0-.37.09-.65.14q3.8.64,4,3.43l.14,2.62.11,2.09c.06,1.06.35,1.59.89,1.59.76,0,1.15-1.25,1.15-3.76V130h1.31q.3,3.19.3,5.46Q209,144.49,204.73,144.49Zm23-.27h-9.23V134h2l-.58-5.16h-4.13l-.61,5.16h2.14v10.18h-7.69V134h1.76l3.79-27.88h7l3.9,27.88h1.65Zm10.76-28.33h-2V134h2v10.18h-9.23V134h1.9V115.89h-1.9v-9.73h9.23Zm17.92,28.33H240.66V134h1.9V115.89h-1.9v-9.73h9.23v9.73h-2V134h3.74v-7.41h4.76Zm17.45,0H258.17V134H260V115.89h-1.84v-9.73h15.3v15.22h-4.4v-5.49h-3.74v6.83H270v3.91h-4.66V134h3.74v-5.55h4.76Zm17.23.27q-4.1,0-4.1-9.36l0-2.51,0-2.54c0-2.28-1.1-3.43-3.29-3.43l-.5,0V134h2v10.18H276V134h1.89V115.89H276v-9.73h8.64q4.71,0,6.3,2t1.59,8q0,7.27-4.43,8.33l-.64.14q3.78.64,4,3.43l.14,2.62.11,2.09c.06,1.06.36,1.59.89,1.59.77,0,1.15-1.25,1.15-3.76V130h1.31q.3,3.19.3,5.46Q295.35,144.49,291.06,144.49Z"/></svg>