<svg id="Laag_1" data-name="Laag 1" xmlns="http://www.w3.org/2000/svg" viewBox="0 0 340.16 255.12"><defs><style>.cls-1{font-size:57.09px;font-family:Playbill;}</style></defs><text class="cls-1" transform="translate(296.63 76.48)"> </text><path d="M217,120.78c-.07-1.59-.64-2.39-1.7-2.39s-1.78,1.81-1.78,5.43v7.08q0,5.55,1.84,5.55t1.72-5.6v-7.28l-.05-1.64Z"/><path d="M245.86,49.77h-.72V67.92l.8,0c1.19,0,1.93-.26,2.22-.77a10.42,10.42,0,0,0,.43-3.94v-7.7a15.05,15.05,0,0,0-.44-4.79C247.85,50.07,247.09,49.77,245.86,49.77Z"/><path d="M67.51,57.52q2.37,0,2.37-3.68,0-4.06-2.76-4.07h-.75v7.75h1.14Z"/><path d="M229.92,62.34V55.07l-.06-1.65,0-1.14c-.07-1.6-.64-2.4-1.7-2.4s-1.78,1.81-1.78,5.44V62.4q0,5.54,1.84,5.54C229.34,67.94,229.92,66.08,229.92,62.34Z"/><path d="M113.14,67.94c1.16,0,1.73-1.86,1.73-5.6V55.07l-.05-1.65,0-1.14c-.08-1.6-.64-2.4-1.7-2.4s-1.79,1.81-1.79,5.44V62.4C111.3,66.09,111.92,67.94,113.14,67.94Z"/><path d="M134.36,186.78h-.76v7.75h1.15c1.58,0,2.37-1.22,2.37-3.68Q137.12,186.78,134.36,186.78Z"/><path d="M169.84,186.76l-.72,0v7h.61q3.57,0,3.57-3.29Q173.3,186.76,169.84,186.76Z"/><path d="M183.81,57.52q2.37,0,2.37-3.68,0-4.06-2.76-4.07h-.75v7.75h1.14Z"/><path d="M283.46,0H56.69A56.69,56.69,0,0,0,0,56.69V198.42a56.69,56.69,0,0,0,56.69,56.7H283.46a56.7,56.7,0,0,0,56.7-56.7V56.69A56.7,56.7,0,0,0,283.46,0Zm-8.14,51h5.33v7.62h-5.33ZM209,39.4c1.69,0,3,1.1,4,3.32V40h4.77V53.45h-5.08l-.08-1c-.11-1.73-.6-2.6-1.45-2.6q-1.56,0-1.56,2,0,2.27,2.7,3.93c2.85,1.79,4.65,3.42,5.43,4.89s1.15,4.07,1.15,7.77q0,10.29-5.24,10.28c-1.88,0-3.38-1.1-4.52-3.31v2.7h-4.76V63.62h4.76v.56c0,2.51.66,3.76,2,3.76S213,67.06,213,65.3a4.7,4.7,0,0,0-2.09-4.16l-2.78-1.92q-4.19-2.88-4.19-9.45Q203.93,39.41,209,39.4ZM192.9,67.92h1.89V49.77H192.9V40h9.22v9.73h-2V67.92h2V78.09H192.9Zm-17.4,0h1.84V49.77H175.5V40h7.61c3.27,0,5.46.78,6.55,2.34s1.65,4.67,1.65,9.31q0,6.08-1.47,8c-1,1.31-3,2-6,2h-1.19v6.22h2.06V78.09H175.5Zm-2.73,50.36v-9.73h15.3v15.22h-4.4v-5.49h-3.74v6.83h4.66V129h-4.66v7.41h3.74v-5.54h4.77V146.6H172.77V136.42h1.84V118.28ZM157.66,67.92h1.84V49.77h-1.84V40H173V55.26h-4.4V49.77h-3.74V56.6h4.66v3.9h-4.66v7.42h3.74V62.37h4.77V78.09H157.66Zm-6.8,42.65q1.59,2,1.59,8,0,7.28-4.43,8.34l-.65.14q3.8.64,4,3.43l.14,2.62.11,2.09c.06,1.06.35,1.59.89,1.59.77,0,1.15-1.26,1.15-3.77v-.61H155q.3,3.21.3,5.46,0,9-4.29,9-4.09,0-4.1-9.37l0-2.51,0-2.53q0-3.43-3.29-3.43l-.5,0v7.36h2V146.6h-9.22V136.42h1.89V118.28h-1.89v-9.73h8.64Q149.27,108.55,150.86,110.57ZM122.2,40H139V56.85h-3.23V49.77h-2.46V67.92h1.82V78.09h-9.23V67.92H128V49.77h-2.56v7.08H122.2ZM105.7,55.18q0-9.6,1.48-12.67c1-2.06,3-3.08,6.07-3.08,2.88,0,4.81,1.06,5.77,3.19s1.45,6.33,1.45,12.61v8.42q0,8.7-1.56,11.88t-5.85,3.17c-2.92,0-4.87-1-5.87-3s-1.49-6-1.49-12ZM59.2,67.92H61V49.77H59.2V40h7.61c3.27,0,5.46.78,6.55,2.34S75,47.05,75,51.69q0,6.08-1.47,8t-6,2h-1.2v6.22h2.06V78.09H59.2ZM44.57,125.36H41.33v-7.08H38.88v18.14h1.81V146.6H31.47V136.42h2.09V118.28H31v7.08H27.76V108.55H44.57Zm19.23-7.08H61.93v18.14H63.8V146.6H55.72V136.42h.89V129H53.27v7.41h.92V146.6H46.1V136.42h1.84V118.28H46.1v-9.73h8.09v9.73h-.92v6.83h3.34v-6.83h-.89v-9.73H63.8ZM81.67,146.6H66V136.42h1.84V118.28H66v-9.73H81.31v15.22H76.9v-5.49H73.17v6.83h4.65V129H73.17v7.41H76.9v-5.54h4.77Zm4.15-96.83h-2V67.92h2V78.09H76.6V67.92h1.89V49.77H76.6V40h9.22ZM88,67.92h1.89V49.77H88V40h9.22v9.73h-2V67.92H99V60.5h4.77V78.09H88Zm20.74,79.29q-4.93,0-6.29-3.43t-1.35-15.86q0-12,1.14-16c.76-2.65,2.3-4,4.6-4,1.69,0,2.95.93,3.76,2.79v-2.17h4.77v15.22h-4.77v-.7q0-4.68-1.89-4.68c-.88,0-1.41.51-1.6,1.55a68.67,68.67,0,0,0-.3,8.68q0,7.83,1.9,7.83t1.75-4.35v-3h5.24q.28,3,.28,6.13Q116,147.22,108.77,147.21Zm10.56-8.31V118.28h-1.87v-9.73h8.48v9.73h-1.28v12.85c0,3.55.54,5.32,1.64,5.32q1.88,0,1.87-5.52V118.28h-1.23v-9.73h7.14v9.73h-1.93v18.17l0,2.93-.25,2.84c-.63,3.33-2.67,5-6.1,5Q119.34,147.21,119.33,138.9Zm21.45,57.85c-1,1.31-3,2-6,2h-1.2v6.21h2.07v10.18h-9.23V204.93h1.84V186.78h-1.84v-9.73h7.61c3.27,0,5.45.79,6.55,2.35s1.65,4.66,1.65,9.31Q142.25,194.78,140.78,196.75Zm19.28-10h-1.93V205l0,2.93-.25,2.84c-.63,3.33-2.67,5-6.1,5q-6.5,0-6.5-8.31V186.78h-1.87v-9.73h8.48v9.73h-1.28v12.85c0,3.55.54,5.33,1.64,5.33q1.88,0,1.87-5.52V186.78h-1.23v-9.73h7.14Zm1.31-40.18H156.6V132.13h4.77v.56c0,2.51.66,3.76,2,3.76s1.84-.88,1.84-2.65a4.71,4.71,0,0,0-2.09-4.15l-2.79-1.92q-4.19-2.88-4.18-9.45,0-10.38,5.1-10.37,2.53,0,4,3.31v-2.67H170V122h-5.07l-.09-1c-.11-1.73-.59-2.59-1.45-2.59q-1.56,0-1.56,2,0,2.25,2.71,3.93,4.26,2.67,5.42,4.89t1.15,7.76q0,10.29-5.24,10.29c-1.87,0-3.38-1.1-4.51-3.32ZM177,215.38q-4.09,0-4.1-9.36l0-2.51,0-2.54c0-2.28-1.1-3.43-3.29-3.43l-.5,0v7.36h2v10.18H161.9V204.93h1.89V186.78H161.9v-9.73h8.64q4.71,0,6.3,2t1.59,8q0,7.28-4.43,8.33c-.15,0-.37.09-.65.14q3.79.65,4,3.43l.14,2.62.11,2.09c.06,1.06.35,1.59.89,1.59.77,0,1.15-1.25,1.15-3.76v-.61h1.31c.2,2.13.3,4,.3,5.46Q181.24,215.38,177,215.38Zm14.91.34c-1.87,0-3.38-1.11-4.51-3.32v2.71h-4.77V200.64h4.77v.56c0,2.5.66,3.76,2,3.76s1.84-.88,1.84-2.65a4.7,4.7,0,0,0-2.09-4.15l-2.79-1.93q-4.18-2.86-4.18-9.45,0-10.36,5.1-10.37,2.53,0,4,3.32v-2.68H196v13.41h-5.07l-.09-1c-.11-1.73-.59-2.59-1.45-2.59q-1.56,0-1.56,2,0,2.25,2.71,3.93,4.26,2.67,5.42,4.89c.77,1.48,1.16,4.06,1.16,7.76Q197.11,215.72,191.86,215.72Zm22.56-.61H198.75V204.93h1.84V186.78h-1.84v-9.73h15.3v15.23h-4.4v-5.5h-3.74v6.83h4.66v3.91h-4.66v7.41h3.74v-5.55h4.77Zm8.25-83q0,8.7-1.56,11.87c-1,2.12-3,3.18-5.86,3.18s-4.87-1-5.87-3.05-1.49-6-1.49-12v-8.48q0-9.59,1.48-12.67c1-2.05,3-3.08,6.08-3.08q4.32,0,5.77,3.2t1.45,12.61Zm-.44-56.51q-1.48-3-1.49-12V55.18q0-9.6,1.48-12.67c1-2.06,3-3.08,6.08-3.08q4.32,0,5.77,3.19t1.45,12.61v8.42q0,8.7-1.56,11.88c-1,2.11-3,3.17-5.86,3.17S223.23,77.69,222.23,75.65Zm18.19,48.54h-4.76v-5.91h-3.43v7.58h4.65v3.9h-4.65v6.66h2.09V146.6h-9.23V136.42h1.81V118.28h-1.81v-9.73h15.33ZM254.19,62.4c0,6.74-.53,11.05-1.6,12.9s-3.55,2.79-7.45,2.79h-7.2V67.92h1.87V49.77h-1.87V40h7.2c3.8,0,6.27.84,7.38,2.51s1.67,5.37,1.67,11.09Zm2.4,5.52h1.84V49.77h-1.84V40H271.9V55.26h-4.41V49.77h-3.73V56.6h4.65v3.9h-4.65v7.42h3.73V62.37h4.77V78.09H256.59Zm18.71,57.44h-3.24v-7.08h-2.45v18.14h1.81V146.6H262.2V136.42h2.09V118.28h-2.57v7.08h-3.23V108.55H275.3Zm0-54.88h5.33v7.61h-5.33Zm19.21,47.8h-1.87v18.14h1.87V146.6h-8.08V136.42h.89V129H284v7.41h.92V146.6h-8.08V136.42h1.84V118.28h-1.84v-9.73h8.08v9.73H284v6.83h3.35v-6.83h-.89v-9.73h8.08ZM312.4,146.6H296.73V136.42h1.84V118.28h-1.84v-9.73H312v15.22h-4.41v-5.49H303.9v6.83h4.65V129H303.9v7.41h3.73v-5.54h4.77Z"/><path d="M147.32,122q0-3.77-3.46-3.76l-.72,0v7h.61Q147.32,125.3,147.32,122Z"/></svg>