<svg id="Laag_1" data-name="Laag 1" xmlns="http://www.w3.org/2000/svg" viewBox="0 0 340.16 255.12"><path d="M118.52,118.28h-.75V126h1.14q2.37,0,2.37-3.68C121.28,119.63,120.36,118.28,118.52,118.28Z"/><path d="M155,190.05q0-3.27-2.34-3.27h-.86v6.61h1C154.25,193.39,155,192.28,155,190.05Z"/><path d="M152.61,197.57h-.83v7.36h.86q2.69,0,2.68-4Q155.32,197.58,152.61,197.57Z"/><polygon points="168.98 195.87 172.1 195.87 170.57 184.16 168.98 195.87"/><path d="M116,186.78h-.72v18.15l.81,0c1.19,0,1.92-.25,2.21-.76a10.4,10.4,0,0,0,.44-3.95V192.5a14.75,14.75,0,0,0-.45-4.8C118,187.09,117.24,186.78,116,186.78Z"/><path d="M160.36,67.94c1.16,0,1.73-1.86,1.73-5.6V55.06L162,53.42l0-1.14c-.08-1.6-.64-2.4-1.7-2.4s-1.79,1.81-1.79,5.44V62.4C158.52,66.09,159.14,67.94,160.36,67.94Z"/><path d="M213.27,118.25l-.72,0v7h.61q3.57,0,3.57-3.29Q216.73,118.25,213.27,118.25Z"/><path d="M116,57.52q2.37,0,2.37-3.68,0-4.06-2.76-4.07h-.76v7.75H116Z"/><path d="M195.57,136.45q1.73,0,1.73-5.6v-7.28l-.06-1.64,0-1.15c-.08-1.59-.64-2.39-1.7-2.39s-1.79,1.81-1.79,5.43v7.08C193.73,134.6,194.35,136.45,195.57,136.45Z"/><path d="M180.34,67.12a10.64,10.64,0,0,0,.43-3.94v-7.7c0-2.58-.15-4.18-.45-4.79s-1.06-.92-2.28-.92h-.73V67.92l.81,0C179.31,67.89,180.05,67.63,180.34,67.12Z"/><path d="M243.46,121.54c0-2.18-.78-3.26-2.34-3.26h-.86v6.6h1C242.73,124.88,243.46,123.77,243.46,121.54Z"/><path d="M283.47,0H56.69A56.69,56.69,0,0,0,0,56.69V198.42a56.69,56.69,0,0,0,56.69,56.7H283.47a56.69,56.69,0,0,0,56.69-56.7V56.69A56.69,56.69,0,0,0,283.47,0Zm-55,67.92h2V51.55h-2V43A4.48,4.48,0,0,0,233.06,40h2.71V67.92h2.14V78.09h-9.47Zm-3.63,61.2H232v4.18h-7.14Zm-36-61.2h1.84V49.77h-1.84V40h15.3V55.26h-4.4V49.77h-3.74V56.6h4.66v3.9h-4.66v7.42h3.74V62.37h4.77V78.09H188.77Zm-.64,55.76q0-9.59,1.48-12.67c1-2.05,3-3.08,6.07-3.08,2.88,0,4.81,1.07,5.77,3.2s1.45,6.33,1.45,12.61v8.42q0,8.7-1.56,11.87t-5.85,3.18q-4.38,0-5.87-3.05t-1.49-12Zm-18-55.76H172V49.77h-1.87V40h7.19q5.72,0,7.39,2.51t1.67,11.09V62.4q0,10.11-1.6,12.9t-7.46,2.79h-7.19Zm16.73,61.2v4.18h-7.14v-4.18ZM152.92,55.18q0-9.6,1.48-12.67c1-2.06,3-3.08,6.08-3.08q4.32,0,5.77,3.19t1.45,12.61v8.42q0,8.7-1.57,11.88t-5.85,3.17c-2.92,0-4.87-1-5.87-3s-1.49-6-1.49-12Zm-1.56,53.37h7.69v9.73h-1.86V146.6h-5.83l-6.41-30v19.87h2.17V146.6h-7.69V136.42h1.9V118.28h-1.9v-9.73h8.42l5.71,26.59V118.28h-2.2ZM141.21,39.4c1.69,0,3,1.1,4,3.32V40H150V53.45h-5.07l-.08-1c-.11-1.72-.6-2.59-1.45-2.59q-1.56,0-1.56,2,0,2.27,2.7,3.93,4.26,2.68,5.42,4.89t1.16,7.77q0,10.27-5.24,10.28c-1.88,0-3.38-1.1-4.52-3.31v2.7h-4.76V63.62h4.76v.56c0,2.51.66,3.76,2,3.76s1.84-.88,1.84-2.64a4.72,4.72,0,0,0-2.09-4.16l-2.79-1.92q-4.17-2.88-4.18-9.45Q136.11,39.39,141.21,39.4Zm-4,97V146.6H128V136.42h1.9V118.28H128v-9.73h9.23v9.73h-2v18.14Zm-12.16-68.5H127V49.77h-1.9V40h9.23v9.73h-2V67.92h2V78.09h-9.23ZM54.21,125.36H51v-7.08H48.53v18.14h1.81V146.6H41.11V136.42H43.2V118.28H40.64v7.08H37.4V108.55H54.21Zm19.24-7.08H71.58v18.14h1.87V146.6H65.36V136.42h.9V129H62.91v7.41h.92V146.6H55.75V136.42h1.84V118.28H55.75v-9.73h8.08v9.73h-.92v6.83h3.35v-6.83h-.9v-9.73h8.09ZM91.32,146.6H75.65V136.42h1.84V118.28H75.65v-9.73H91v15.22h-4.4v-5.49H82.81v6.83h4.66V129H82.81v7.41h3.74v-5.54h4.77ZM105.5,78.09H89.84V67.92h1.84V49.77H89.84V40h15.3V55.26h-4.4V49.77H97V56.6h4.66v3.9H97v7.42h3.74V62.37h4.76Zm2.18-10.17h1.84V49.77h-1.84V40h7.61q4.9,0,6.55,2.34c1.1,1.56,1.64,4.67,1.64,9.31,0,4.05-.48,6.73-1.46,8s-3,2-6,2h-1.2v6.22h2.07V78.09h-9.23Zm16.67,131.49q0,10.13-1.6,12.91t-7.46,2.79H108.1V204.93H110V186.78H108.1v-9.72h7.19q5.71,0,7.39,2.5c1.11,1.68,1.67,5.37,1.67,11.1Zm.6-71.17q-1.47,2-6,2h-1.2v6.21h2.06V146.6h-9.22V136.42h1.84V118.28h-1.84v-9.73h7.61q4.91,0,6.55,2.34t1.64,9.31Q126.41,126.28,125,128.24Zm17.46,86.87H126.75V204.93h1.84V186.78h-1.84v-9.72h15.3v15.22h-4.41v-5.5h-3.73v6.83h4.65v3.91h-4.65v7.41h3.73v-5.55h4.77ZM159.15,213q-1.68,2.14-6.81,2.15h-7.75V204.93h1.86V186.78h-1.86v-9.72h7.19c3.57,0,5.91.64,7,1.92s1.68,4,1.68,8.08q0,4.55-.9,6.15t-3.78,2.16c2.19.61,3.58,1.43,4.15,2.44s.87,3.17.87,6.48Q160.84,210.82,159.15,213Zm1.8-76.54h1.84V118.28H161v-9.73h8.47v9.73h-1.31v7l4.46-7h-1.75v-9.73h7.69v9.73h-2l-3.57,6,4.63,12.15h1.53V146.6h-8.25V136.42h1.48l-2.88-7.58-1.31,2.68v4.9h1.31V146.6H161Zm19.51,78.69h-9.22V204.93h2l-.58-5.16H168.5l-.61,5.16H170v10.18h-7.7V204.93h1.76l3.79-27.87h7l3.9,27.87h1.64Zm9.34.61q-4.94,0-6.28-3.43t-1.36-15.86q0-12,1.15-16c.76-2.64,2.29-4,4.6-4q2.53,0,3.76,2.79v-2.17h4.77v15.22h-4.77v-.7c0-3.12-.63-4.69-1.9-4.69-.87,0-1.4.52-1.6,1.55a72,72,0,0,0-.29,8.69q0,7.83,1.89,7.83t1.76-4.35v-3h5.24q.28,3,.28,6.13Q197.05,215.72,189.8,215.72Zm24.81-.61H198.89V204.93h1.89V186.78h-1.89v-9.72h9.23v9.72h-2v18.15h3.73v-7.41h4.77ZM213.05,129l-.5,0v7.36h2V146.6h-9.23V136.42h1.89V118.28h-1.89v-9.73H214q4.71,0,6.3,2t1.59,8q0,7.28-4.43,8.34l-.64.14c2.52.42,3.85,1.57,4,3.43l.14,2.62.11,2.09c.06,1.06.36,1.59.89,1.59.77,0,1.15-1.26,1.15-3.77v-.61h1.31q.3,3.21.3,5.46,0,9-4.29,9-4.09,0-4.1-9.37l0-2.51,0-2.53Q216.34,129,213.05,129Zm19,86.07H216.39V204.93h1.84V186.78h-1.84v-9.72H231.7v15.22h-4.41v-5.5h-3.73v6.83h4.65v3.91h-4.65v7.41h3.73v-5.55h4.77Zm15.57-70.66c-1.12,1.43-3.4,2.15-6.82,2.15h-7.75V136.42h1.87V118.28h-1.87v-9.73h7.2q5.34,0,7,1.92t1.68,8.09q0,4.53-.9,6.14t-3.78,2.16c2.19.61,3.58,1.43,4.15,2.44s.87,3.17.87,6.48C249.32,140.13,248.75,143,247.63,144.45Zm2.69-66.36H245V70.48h5.32Zm0-19.49H245V51h5.32Zm16.92,88H251.52V136.42h1.89V118.28h-1.89v-9.73h9.23v9.73h-2v18.14h3.73V129h4.77Zm18-28.32h-1.92v18.17l0,2.93-.25,2.84c-.63,3.33-2.67,5-6.1,5q-6.5,0-6.5-8.31V118.28h-1.87v-9.73h8.48v9.73h-1.28v12.85c0,3.55.54,5.32,1.64,5.32s1.87-1.84,1.87-5.52V118.28h-1.23v-9.73h7.14Zm17.5,28.32H287.09V136.42h1.84V118.28h-1.84v-9.73h15.3v15.22H298v-5.49h-3.74v6.83h4.66V129h-4.66v7.41H298v-5.54h4.76Z"/><path d="M241.09,129.06h-.83v7.36h.86c1.78,0,2.68-1.33,2.68-4Q243.8,129.07,241.09,129.06Z"/></svg>