<svg id="Laag_1" data-name="Laag 1" xmlns="http://www.w3.org/2000/svg" viewBox="0 0 340.16 255.12"><defs><style>.cls-1{font-size:57.09px;font-family:Playbill;}.cls-1,.cls-2{fill:#fff;}</style></defs><text class="cls-1" transform="translate(204.34 185.4)"> </text><rect width="340.16" height="255.12" rx="56.69"/><path class="cls-2" d="M105,40V55.26h-4.4V49.77H96.9V56.6h4.66v3.9H96.9v7.42h3.74V62.37h4.77V78.09H89.74V67.92h1.84V49.77H89.74V40Z"/><path class="cls-2" d="M116.81,67.92V78.09h-9.23V67.92h1.84V49.77h-1.84V40h7.61c3.27,0,5.46.78,6.55,2.34s1.65,4.67,1.65,9.31q0,6.08-1.47,8c-1,1.31-3,2-6,2h-1.19v6.22Zm-2.06-18.15v7.75h1.14q2.37,0,2.37-3.68,0-4.06-2.76-4.07Z"/><path class="cls-2" d="M134.2,40v9.73h-2V67.92h2V78.09H125V67.92h1.89V49.77H125V40Z"/><path class="cls-2" d="M149.9,40V53.45h-5.08l-.08-1c-.11-1.72-.6-2.59-1.45-2.59q-1.56,0-1.56,2,0,2.27,2.7,3.93c2.85,1.79,4.65,3.42,5.43,4.89S151,64.72,151,68.42q0,10.29-5.24,10.28-2.82,0-4.51-3.31v2.7h-4.77V63.62h4.77v.56c0,2.51.66,3.76,2,3.76s1.84-.88,1.84-2.64A4.7,4.7,0,0,0,143,61.14l-2.78-1.92Q136,56.34,136,49.77q0-10.37,5.1-10.37c1.69,0,3,1.1,4,3.32V40Z"/><path class="cls-2" d="M152.82,63.65V55.18q0-9.6,1.48-12.67c1-2.06,3-3.08,6.08-3.08q4.32,0,5.77,3.19t1.45,12.61v8.42q0,8.7-1.56,11.88t-5.86,3.17c-2.91,0-4.87-1-5.87-3S152.82,69.62,152.82,63.65Zm5.61-8.33V62.4q0,5.54,1.84,5.54c1.15,0,1.73-1.86,1.73-5.6V55.07l-.06-1.65,0-1.14c-.07-1.6-.64-2.4-1.7-2.4S158.43,51.69,158.43,55.32Z"/><path class="cls-2" d="M170,40h7.2c3.8,0,6.27.84,7.38,2.51s1.67,5.37,1.67,11.09V62.4q0,10.11-1.6,12.9t-7.45,2.79H170V67.92h1.87V49.77H170Zm7.2,9.73V67.92l.8,0c1.19,0,1.93-.26,2.22-.77a10.42,10.42,0,0,0,.43-3.94v-7.7a15.05,15.05,0,0,0-.44-4.79c-.3-.61-1.06-.92-2.29-.92Z"/><path class="cls-2" d="M204,40V55.26h-4.41V49.77h-3.73V56.6h4.65v3.9h-4.65v7.42h3.73V62.37h4.77V78.09H188.67V67.92h1.84V49.77h-1.84V40Z"/><path class="cls-2" d="M239.68,63.62V78.09H225.33V74q0-10.12,5.38-15.16,3.76-3.54,3.76-6.08c0-1.93-.56-2.9-1.7-2.9s-1.84,1-1.84,3.12a16.66,16.66,0,0,0,.25,2.46h-4.74q-.27-3.66-.27-6,0-10,6.91-10T240,50.13q0,7.6-4.74,11.07-4.29,3.12-4.68,7.08h4.35V63.62Z"/><path class="cls-2" d="M250.11,51v7.61h-5.32V51Zm0,19.48v7.61h-5.32V70.48Z"/><path class="cls-2" d="M29,108.55v16.81H25.77v-7.08H23.31v18.14h1.81V146.6H15.9V136.42H18V118.28H15.42v7.08H12.19V108.55Z"/><path class="cls-2" d="M48.23,108.55v9.73H46.37v18.14h1.86V146.6H40.15V136.42H41V129H37.7v7.41h.92V146.6H30.53V136.42h1.84V118.28H30.53v-9.73h8.09v9.73H37.7v6.83H41v-6.83h-.89v-9.73Z"/><path class="cls-2" d="M65.74,108.55v15.22h-4.4v-5.49H57.6v6.83h4.66V129H57.6v7.41h3.74v-5.54H66.1V146.6H50.44V136.42h1.84V118.28H50.44v-9.73Z"/><path class="cls-2" d="M85.39,108.55h7.19c3.81,0,6.28.83,7.39,2.51s1.67,5.37,1.67,11.09v8.75q0,10.13-1.6,12.91c-1.07,1.86-3.55,2.79-7.46,2.79H85.39V136.42h1.87V118.28H85.39Zm7.19,9.73v18.14l.81,0c1.19,0,1.93-.26,2.22-.77a10.48,10.48,0,0,0,.43-3.95V124a15.05,15.05,0,0,0-.44-4.79c-.3-.62-1.06-.92-2.29-.92Z"/><path class="cls-2" d="M121.46,136.42V146.6h-9.22V136.42h2l-.59-5.15H109.5l-.61,5.15H111V146.6h-7.7V136.42h1.76l3.79-27.87h7l3.9,27.87Zm-8.36-9.06-1.53-11.7L110,127.36Z"/><path class="cls-2" d="M142.62,108.55v9.73h-1.87V146.6h-5.82l-6.41-30v19.87h2.17V146.6H123V136.42h1.89V118.28H123v-9.73h8.42l5.71,26.59V118.28h-2.2v-9.73Z"/><path class="cls-2" d="M144.52,108.55h7.19c3.81,0,6.27.83,7.39,2.51s1.67,5.37,1.67,11.09v8.75q0,10.13-1.6,12.91t-7.46,2.79h-7.19V136.42h1.87V118.28h-1.87Zm7.19,9.73v18.14l.81,0c1.19,0,1.93-.26,2.21-.77a10.4,10.4,0,0,0,.44-3.95V124c0-2.58-.15-4.18-.45-4.79s-1.06-.92-2.29-.92Z"/><path class="cls-2" d="M179.86,108.55v9.73h-1.67l-4.26,11.43v6.71h1.86V146.6h-9.22V136.42h2v-6.71l-4.68-11.43h-1.45v-9.73h8.47v9.73h-1.45l2,6.55,2.4-6.55h-1.76v-9.73Z"/><path class="cls-2" d="M215.93,136.42V146.6h-9.22V136.42h2l-.59-5.15H204l-.62,5.15h2.15V146.6h-7.69V136.42h1.75l3.79-27.87h7l3.9,27.87Zm-8.36-9.06L206,115.66l-1.59,11.7Z"/><path class="cls-2" d="M237.09,108.55v9.73h-1.87V146.6H229.4l-6.41-30v19.87h2.17V146.6h-7.69V136.42h1.89V118.28h-1.89v-9.73h8.42l5.71,26.59V118.28h-2.2v-9.73Z"/><path class="cls-2" d="M239,108.55h7.19c3.81,0,6.27.83,7.39,2.51s1.67,5.37,1.67,11.09v8.75q0,10.13-1.6,12.91t-7.46,2.79H239V136.42h1.87V118.28H239Zm7.19,9.73v18.14l.81,0c1.19,0,1.93-.26,2.22-.77a10.71,10.71,0,0,0,.43-3.95V124c0-2.58-.15-4.18-.45-4.79s-1.06-.92-2.28-.92Z"/><path class="cls-2" d="M290.87,108.55v16.81h-3.24v-7.08h-2.45v18.14H287V146.6h-9.23V136.42h2.09V118.28h-2.56v7.08h-3.23V108.55Z"/><path class="cls-2" d="M310.1,108.55v9.73h-1.87v18.14h1.87V146.6H302V136.42h.89V129h-3.35v7.41h.92V146.6H292.4V136.42h1.84V118.28H292.4v-9.73h8.08v9.73h-.92v6.83h3.35v-6.83H302v-9.73Z"/><path class="cls-2" d="M327.61,108.55v15.22H323.2v-5.49h-3.73v6.83h4.65V129h-4.65v7.41h3.73v-5.54H328V146.6H312.3V136.42h1.84V118.28H312.3v-9.73Z"/><path class="cls-2" d="M104.18,177.06v15.22H99.77v-5.5H96v6.83h4.65v3.91H96v7.41h3.73v-5.55h4.77v15.73H88.87V204.93h1.84V186.78H88.87v-9.72Z"/><path class="cls-2" d="M123.41,177.06v9.72h-1.67l-4.27,11.43v6.72h1.87v10.18h-9.22V204.93h2v-6.72l-4.68-11.43H106v-9.72h8.47v9.72H113l2,6.55,2.39-6.55h-1.75v-9.72Z"/><path class="cls-2" d="M140.25,177.06v15.22h-4.41v-5.5h-3.73v6.83h4.65v3.91h-4.65v7.41h3.73v-5.55h4.77v15.73H124.94V204.93h1.84V186.78h-1.84v-9.72Z"/><path class="cls-2" d="M169.57,179.23v-2.17h4.77v15.22h-4.77v-.7q0-4.68-1.89-4.68c-.87,0-1.41.51-1.6,1.54a68.88,68.88,0,0,0-.3,8.69q0,7.83,1.9,7.83t1.75-4.35v-3h5.25q.27,3,.27,6.13,0,12-7.24,12-4.94,0-6.29-3.43t-1.35-15.86q0-12,1.14-16c.76-2.64,2.3-4,4.6-4C167.5,176.44,168.76,177.37,169.57,179.23Z"/><path class="cls-2" d="M194.22,204.93v10.18H185V204.93h2l-.59-5.16h-4.12l-.62,5.16h2.15v10.18H176.1V204.93h1.75l3.79-27.87h7l3.9,27.87Zm-8.37-9.06-1.53-11.71-1.59,11.71Z"/><path class="cls-2" d="M215.37,177.06v9.72h-1.86v28.33h-5.83l-6.41-30.05v19.87h2.17v10.18h-7.69V204.93h1.9V186.78h-1.9v-9.72h8.42l5.71,26.59V186.78h-2.2v-9.72Z"/><path class="cls-2" d="M217.27,177.06h7.19q5.72,0,7.39,2.5t1.67,11.1v8.75q0,10.13-1.6,12.91t-7.46,2.79h-7.19V204.93h1.87V186.78h-1.87Zm7.19,9.72v18.15l.81,0c1.19,0,1.93-.25,2.22-.76a10.71,10.71,0,0,0,.43-3.95V192.5a14.75,14.75,0,0,0-.45-4.8c-.29-.61-1.06-.92-2.28-.92Z"/><path class="cls-2" d="M252.62,177.06v9.72h-1.68l-4.26,11.43v6.72h1.87v10.18h-9.23V204.93h2v-6.72l-4.68-11.43h-1.45v-9.72h8.48v9.72h-1.45l2,6.55,2.4-6.55h-1.76v-9.72Z"/></svg>