<svg id="Laag_1" data-name="Laag 1" xmlns="http://www.w3.org/2000/svg" viewBox="0 0 340.16 255.12"><defs><style>.cls-1{fill:#fff;}</style></defs><rect width="340.16" height="255.12" rx="56.69"/><path class="cls-1" d="M115.6,102.16v10.17h-9.23V102.16h1.84V84h-1.84V74.28H114q4.9,0,6.55,2.34c1.1,1.56,1.64,4.67,1.64,9.31,0,4-.48,6.73-1.46,8s-3,2-6,2h-1.2v6.22ZM113.53,84v7.75h1.15q2.35,0,2.36-3.68Q117,84,114.29,84Z"/><path class="cls-1" d="M141.19,102.16v10.17H132V102.16h2L133.35,97h-4.12l-.62,5.16h2.15v10.17h-7.69V102.16h1.75l3.79-27.88h7l3.9,27.88Zm-8.37-9.06-1.53-11.71L129.7,93.1Z"/><path class="cls-1" d="M161.76,98.14q.3,3.21.3,5.46,0,9-4.29,9-4.1,0-4.1-9.37l0-2.51,0-2.53q0-3.44-3.29-3.43l-.5,0v7.36h2v10.17h-9.23V102.16h1.89V84h-1.89V74.28h8.64q4.71,0,6.3,2t1.59,8c0,4.86-1.48,7.63-4.43,8.34l-.64.14q3.78.64,4,3.43l.14,2.62.11,2.09c.06,1.06.36,1.59.89,1.59.77,0,1.15-1.26,1.15-3.76v-.62ZM149.94,91h.61c2.38,0,3.57-1.09,3.57-3.29q0-3.76-3.46-3.76l-.72,0Z"/><path class="cls-1" d="M179.43,74.28V91.09H176.2V84h-2.46v18.15h1.82v10.17h-9.23V102.16h2.09V84h-2.56v7.08h-3.24V74.28Z"/><path class="cls-1" d="M207.31,74.28V84h-2v18.15h2v10.17h-9.23V102.16H200V84h-1.9V74.28Z"/><path class="cls-1" d="M215.73,85.23v7.62H210.4V85.23Zm0,19.49v7.61H210.4v-7.61Z"/><path class="cls-1" d="M103.05,142.79V159.6H99.82v-7.08H97.36v18.14h1.82v10.18H90V170.66H92V152.52H89.48v7.08H86.24V142.79Z"/><path class="cls-1" d="M122.29,142.79v9.73h-1.87v18.14h1.87v10.18H114.2V170.66h.89v-7.41h-3.34v7.41h.92v10.18h-8.09V170.66h1.84V152.52h-1.84v-9.73h8.09v9.73h-.92v6.83h3.34v-6.83h-.89v-9.73Z"/><path class="cls-1" d="M139.79,142.79V158h-4.4v-5.49h-3.74v6.83h4.66v3.9h-4.66v7.41h3.74v-5.54h4.76v15.72H124.49V170.66h1.84V152.52h-1.84v-9.73Z"/><path class="cls-1" d="M159.44,142.79h7.2c3.81,0,6.27.83,7.38,2.51s1.68,5.37,1.68,11.09v8.75q0,10.13-1.61,12.91t-7.45,2.79h-7.2V170.66h1.87V152.52h-1.87Zm7.2,9.73v18.14l.8,0c1.19,0,1.93-.26,2.22-.77a10.48,10.48,0,0,0,.43-4v-7.69a15.05,15.05,0,0,0-.44-4.79c-.3-.62-1.06-.92-2.29-.92Z"/><path class="cls-1" d="M195.52,170.66v10.18h-9.23V170.66h2l-.59-5.15h-4.12l-.62,5.15h2.15v10.18H177.4V170.66h1.75l3.79-27.87h7l3.9,27.87Zm-8.37-9.06-1.53-11.7L184,161.6Z"/><path class="cls-1" d="M216.67,142.79v9.73h-1.86v28.32H209l-6.41-30.05v19.87h2.17v10.18h-7.69V170.66h1.89V152.52h-1.89v-9.73h8.42l5.71,26.59V152.52H209v-9.73Z"/><path class="cls-1" d="M218.57,142.79h7.19c3.81,0,6.27.83,7.39,2.51s1.67,5.37,1.67,11.09v8.75q0,10.13-1.6,12.91t-7.46,2.79h-7.19V170.66h1.87V152.52h-1.87Zm7.19,9.73v18.14l.81,0c1.19,0,1.93-.26,2.22-.77a10.71,10.71,0,0,0,.43-4v-7.69c0-2.58-.15-4.18-.45-4.79s-1.06-.92-2.28-.92Z"/><path class="cls-1" d="M253.92,142.79v9.73h-1.68L248,164v6.71h1.87v10.18h-9.23V170.66h2V164L238,152.52h-1.45v-9.73H245v9.73h-1.45l2,6.55,2.4-6.55h-1.76v-9.73Z"/></svg>