<svg id="Laag_1" data-name="Laag 1" xmlns="http://www.w3.org/2000/svg" viewBox="0 0 340.16 255.12"><defs><style>.cls-1{fill:#fff;}</style></defs><rect width="340.16" height="255.12" rx="56.69"/><path class="cls-1" d="M52.79,110.72v-2.17h4.77v15.22H52.79v-.7q0-4.68-1.89-4.68c-.88,0-1.41.51-1.61,1.54a72.11,72.11,0,0,0-.29,8.69q0,7.83,1.9,7.83t1.75-4.35v-3h5.24c.19,2,.28,4.07.28,6.14q0,12-7.25,12-4.94,0-6.28-3.43t-1.35-15.86q0-12,1.14-16t4.6-4Q51.57,107.93,52.79,110.72Z"/><path class="cls-1" d="M75.73,129V146.6H60V136.42h1.9V118.28H60v-9.73h9.23v9.73h-2v18.14H71V129Z"/><path class="cls-1" d="M77.68,132.16v-8.48q0-9.59,1.48-12.67c1-2.05,3-3.08,6.08-3.08q4.32,0,5.77,3.2t1.45,12.61v8.42q0,8.7-1.56,11.87T85,147.21c-2.91,0-4.87-1-5.86-3.05S77.68,138.12,77.68,132.16Zm5.61-8.34v7.08q0,5.55,1.84,5.55t1.73-5.6v-7.28l-.06-1.64,0-1.15c-.07-1.59-.64-2.39-1.7-2.39S83.29,120.2,83.29,123.82Z"/><path class="cls-1" d="M108.38,108.55V122H103.3l-.08-1c-.11-1.73-.6-2.59-1.45-2.59q-1.56,0-1.56,2,0,2.25,2.7,3.93c2.85,1.78,4.65,3.41,5.42,4.89s1.16,4.07,1.16,7.76q0,10.29-5.24,10.29c-1.88,0-3.38-1.1-4.52-3.32v2.71H95V132.13h4.76v.56c0,2.51.66,3.76,2,3.76s1.84-.88,1.84-2.65a4.69,4.69,0,0,0-2.09-4.15l-2.78-1.92q-4.19-2.88-4.19-9.45,0-10.38,5.11-10.37c1.69,0,3,1.1,4,3.31v-2.67Z"/><path class="cls-1" d="M120.36,108.55v9.73h-2v18.14h2V146.6h-9.22V136.42H113V118.28h-1.89v-9.73Z"/><path class="cls-1" d="M142.19,108.55v9.73h-1.87V146.6H134.5l-6.42-30v19.87h2.18V146.6h-7.7V136.42h1.9V118.28h-1.9v-9.73H131l5.72,26.59V118.28h-2.2v-9.73Z"/><path class="cls-1" d="M158.61,108.55v15.22h-5l.08-3.15c0-1.49-.55-2.23-1.67-2.23q-2.22,0-2.23,9.84,0,7.94,2.12,7.94c1.13,0,1.7-1.26,1.7-3.79v-1.25h-1.76v-5.52h8.84v5.52h-2.06V146.6H156L155,143.42c-.07.19-.13.32-.16.42q-1.4,3.38-4.63,3.37-3.6,0-4.77-2.67t-1.17-10.85V122.93q0-8.75,1.2-11.87a4.49,4.49,0,0,1,4.54-3.13,3.62,3.62,0,0,1,3.85,2.57v-2Z"/><path class="cls-1" d="M188.88,110.72v-2.17h4.77v15.22h-4.77v-.7q0-4.68-1.89-4.68c-.88,0-1.41.51-1.61,1.54a72.11,72.11,0,0,0-.29,8.69q0,7.83,1.9,7.83t1.75-4.35v-3H194c.19,2,.28,4.07.28,6.14q0,12-7.25,12-4.94,0-6.28-3.43t-1.35-15.86q0-12,1.14-16t4.6-4Q187.66,107.93,188.88,110.72Z"/><path class="cls-1" d="M215.14,132.41c.21,2.14.31,4,.31,5.46q0,9-4.3,9-4.1,0-4.09-9.37l0-2.51,0-2.53c0-2.29-1.09-3.43-3.29-3.43l-.5,0v7.36h2V146.6H196.1V136.42H198V118.28h-1.9v-9.73h8.64q4.71,0,6.3,2t1.59,8q0,7.28-4.43,8.34l-.64.14c2.53.42,3.85,1.57,4,3.42l.13,2.63.12,2.09c0,1.06.35,1.59.89,1.59.76,0,1.14-1.26,1.14-3.77v-.61Zm-11.82-7.11h.61q3.57,0,3.57-3.29,0-3.77-3.45-3.76l-.73,0Z"/><path class="cls-1" d="M232,108.55v15.22H227.6v-5.49h-3.73v6.83h4.65V129h-4.65v7.41h3.73v-5.54h4.77V146.6H216.7V136.42h1.84V118.28H216.7v-9.73Z"/><path class="cls-1" d="M234.54,108.55h7.19c3.81,0,6.28.83,7.39,2.51s1.67,5.37,1.67,11.09v8.75q0,10.13-1.6,12.91c-1.07,1.86-3.55,2.79-7.46,2.79h-7.19V136.42h1.87V118.28h-1.87Zm7.19,9.73v18.14l.81,0c1.19,0,1.93-.25,2.22-.76a10.48,10.48,0,0,0,.43-3.95V124a15.05,15.05,0,0,0-.44-4.79c-.3-.62-1.06-.92-2.29-.92Z"/><path class="cls-1" d="M262.42,108.55v9.73h-2v18.14h2V146.6h-9.23V136.42h1.9V118.28h-1.9v-9.73Z"/><path class="cls-1" d="M280.73,108.55v16.81H277.5v-7.08h-2.45v18.14h1.81V146.6h-9.23V136.42h2.09V118.28h-2.56v7.08h-3.24V108.55Z"/><path class="cls-1" d="M295.76,108.55V122h-5.08l-.08-1c-.11-1.73-.59-2.59-1.45-2.59q-1.56,0-1.56,2,0,2.25,2.7,3.93c2.85,1.78,4.65,3.41,5.43,4.89s1.15,4.07,1.15,7.76q0,10.29-5.24,10.29c-1.87,0-3.38-1.1-4.51-3.32v2.71h-4.77V132.13h4.77v.56c0,2.51.66,3.76,2,3.76s1.83-.88,1.83-2.65a4.7,4.7,0,0,0-2.08-4.15l-2.79-1.92q-4.19-2.88-4.18-9.45,0-10.38,5.1-10.37,2.53,0,4,3.31v-2.67Z"/></svg>