<svg id="Laag_1" data-name="Laag 1" xmlns="http://www.w3.org/2000/svg" xmlns:xlink="http://www.w3.org/1999/xlink" viewBox="0 0 340.16 255.12"><defs><style>.cls-1{fill:none;}.cls-2{fill:lime;}.cls-3{clip-path:url(#clip-path);}</style><clipPath id="clip-path"><rect class="cls-1" x="37.4" y="39.4" width="265.35" height="176.32"/></clipPath></defs><rect class="cls-2" width="340.16" height="255.12" rx="56.69"/><g class="cls-3"><path d="M216.74,177.06v9.72h1.84v18.15h-1.84v10.18h15.67V199.38h-4.77v5.55h-3.73v-7.41h4.65v-3.91h-4.65v-6.83h3.73v5.5h4.41V177.06Zm-6.55,20.46v7.41h-3.73V186.78h2v-9.72h-9.22v9.72h1.89v18.15h-1.89v10.18H215V197.52Zm-21.94-21.08c-2.3,0-3.83,1.33-4.6,4s-1.14,8-1.14,16q0,12.44,1.35,15.86c.91,2.29,3,3.43,6.29,3.43q7.24,0,7.25-12c0-2.06-.1-4.1-.28-6.13h-5.24v3q0,4.35-1.76,4.35t-1.89-7.83a69.78,69.78,0,0,1,.29-8.69c.19-1,.73-1.54,1.6-1.54q1.9,0,1.9,4.68v.7h4.76V177.06H192v2.17c-.82-1.86-2.07-2.79-3.77-2.79m-18.92,19.43,1.59-11.71,1.53,11.71Zm9.84,9.06-3.91-27.87h-7l-3.79,27.87h-1.76v10.18h7.7V204.93h-2.15l.61-5.16H173l.58,5.16h-2v10.18h9.23V204.93ZM153,197.57q2.72,0,2.71,3.35,0,4-2.68,4h-.86v-7.36Zm0-10.79q2.34,0,2.34,3.27c0,2.23-.73,3.34-2.2,3.34h-1v-6.61Zm-8.05,0h1.86v18.15h-1.86v10.18h7.74c3.42,0,5.7-.72,6.82-2.15s1.69-4.32,1.69-8.67q0-5-.87-6.48c-.57-1-2-1.83-4.15-2.44q2.87-.56,3.78-2.16t.9-6.15c0-4.1-.56-6.8-1.68-8.08s-3.47-1.92-7-1.92h-7.19Zm-17.85-9.72v9.72h1.84v18.15h-1.84v10.18h15.67V199.38H138v5.55h-3.73v-7.41h4.65v-3.91h-4.65v-6.83H138v5.5h4.41V177.06Zm-10.73,9.72c1.23,0,2,.31,2.29.92s.44,2.22.44,4.8v7.69a10.48,10.48,0,0,1-.43,3.95c-.29.51-1,.76-2.21.76l-.81,0V186.78Zm-7.91,0h1.86v18.15h-1.86v10.18h7.19c3.9,0,6.39-.93,7.45-2.79s1.61-6.16,1.61-12.91v-8.75q0-8.58-1.68-11.1t-7.38-2.5h-7.19Z"/><path d="M287.09,108.55v9.73h1.84v18.14h-1.84V146.6h15.66V130.88H298v5.54h-3.74V129h4.66v-3.9h-4.66v-6.83H298v5.49h4.4V108.55Zm-9,0v9.73h1.23v12.65q0,5.52-1.87,5.52c-1.1,0-1.64-1.77-1.64-5.32V118.28h1.28v-9.73h-8.48v9.73h1.87V138.9q0,8.31,6.5,8.31,5.16,0,6.1-5l.25-2.84,0-2.93V118.28h1.92v-9.73ZM262.47,129v7.41h-3.73V118.28h2v-9.73h-9.23v9.73h1.89v18.14h-1.89V146.6h15.72V129Zm-21.38.05q2.72,0,2.71,3.35c0,2.68-.89,4-2.68,4h-.86v-7.36Zm0-10.78c1.56,0,2.34,1.08,2.34,3.26s-.73,3.34-2.2,3.34h-1v-6.6Zm-8.06,0h1.87v18.14h-1.87V146.6h7.75c3.42,0,5.7-.72,6.82-2.15s1.69-4.32,1.69-8.67q0-5-.87-6.48c-.57-1-2-1.82-4.15-2.44q2.87-.56,3.78-2.16t.9-6.15c0-4.1-.56-6.8-1.68-8.08s-3.47-1.92-7-1.92h-7.2Zm-8.25,15H232v-4.18h-7.14Zm-12.26-15,.72,0q3.47,0,3.46,3.76,0,3.28-3.57,3.29h-.61Zm10.51,14.13V133c0,2.51-.38,3.77-1.15,3.77-.53,0-.83-.53-.89-1.59l-.11-2.09-.14-2.62c-.13-1.86-1.46-3-4-3.43l.64-.14q4.42-1.07,4.43-8.34,0-6-1.59-8t-6.3-2h-8.64v9.73h1.89v18.14h-1.89V146.6h9.23V136.42h-2v-7.36l.5,0q3.28,0,3.29,3.43l0,2.53,0,2.51q0,9.36,4.1,9.37,4.29,0,4.29-9,0-2.25-.3-5.46Zm-27.54-14c1.06,0,1.62.8,1.7,2.4l0,1.14.06,1.64v7.28q0,5.6-1.73,5.6c-1.22,0-1.84-1.85-1.84-5.55v-7.08q0-5.43,1.79-5.43m-5.9,25.77q1.49,3,5.87,3.05t5.85-3.18q1.56-3.17,1.56-11.87v-8.42q0-9.42-1.45-12.61c-1-2.13-2.89-3.2-5.77-3.2-3.06,0-5.09,1-6.07,3.08s-1.48,6.28-1.48,12.67v8.48q0,8.94,1.49,12m-9.91-10.86h7.14v-4.18h-7.14Zm-8.89-24.75v9.73h1.75l-4.46,7v-7h1.31v-9.73H161v9.73h1.84v18.14H161V146.6h8.47V136.42h-1.31v-4.9l1.31-2.68,2.88,7.58h-1.48V146.6h8.25V136.42h-1.53l-4.63-12.15,3.57-6h2v-9.73Zm-19.46,0v9.73h2.2v16.86l-5.71-26.59h-8.42v9.73h1.9v18.14h-1.9V146.6h7.69V136.42H145V116.55l6.41,30.05h5.83V118.28h1.86v-9.73Zm-23.36,0v9.73h1.9v18.14H128V146.6h9.23V136.42h-2V118.28h2v-9.73Zm-9.48,9.73c1.84,0,2.76,1.35,2.76,4.07q0,3.68-2.37,3.68h-1.14v-7.75Zm-.75,18.14v-6.21H119q4.52,0,6-2t1.46-8q0-7-1.64-9.31t-6.55-2.34h-7.61v9.73h1.84v18.14h-1.84V146.6h9.22V136.42ZM75.65,108.55v9.73h1.84v18.14H75.65V146.6H91.32V130.88H86.55v5.54H82.81V129h4.66v-3.9H82.81v-6.83h3.74v5.49H91V108.55Zm-10.29,0v9.73h.9v6.83H62.91v-6.83h.92v-9.73H55.75v9.73h1.84v18.14H55.75V146.6h8.08V136.42h-.92V129h3.35v7.41h-.9V146.6h8.09V136.42H71.58V118.28h1.87v-9.73Zm-28,0v16.81h3.24v-7.08H43.2v18.14H41.11V146.6h9.23V136.42H48.53V118.28H51v7.08h3.23V108.55Z"/><path d="M242.34,78.09h5.33V70.48h-5.33Zm0-19.49h5.33V51h-5.33ZM230.41,40A4.48,4.48,0,0,1,225.78,43v8.58h2V67.92h-2V78.09h9.48V67.92h-2.14V40Zm-44.29,0v9.73H188V67.92h-1.84V78.09h15.66V62.37H197v5.55h-3.74V60.5h4.66V56.6h-4.66V49.77H197v5.49h4.4V40Zm-10.74,9.73c1.23,0,2,.3,2.29.92s.45,2.21.45,4.79v7.7a10.34,10.34,0,0,1-.44,3.94c-.28.51-1,.77-2.21.77l-.81,0V49.77Zm-7.91,0h1.86V67.92h-1.86V78.09h7.19q5.85,0,7.46-2.79t1.6-12.9V53.64q0-8.58-1.67-11.09T174.66,40h-7.19Zm-9.82.11q1.59,0,1.71,2.4l0,1.14.06,1.64v7.28c0,3.74-.58,5.6-1.73,5.6s-1.84-1.85-1.84-5.54V55.32c0-3.63.6-5.44,1.78-5.44m-5.89,25.77c1,2,3,3,5.87,3s4.81-1.06,5.85-3.17S165,69.45,165,63.65V55.23q0-9.42-1.45-12.61c-1-2.13-2.89-3.19-5.77-3.19-3.06,0-5.09,1-6.07,3.08s-1.48,6.27-1.48,12.67v8.47q0,9,1.49,12M142.57,40v2.68c-1-2.22-2.32-3.32-4-3.32q-5.1,0-5.1,10.37,0,6.57,4.18,9.45l2.79,1.92a4.72,4.72,0,0,1,2.09,4.16c0,1.76-.61,2.64-1.84,2.64s-2-1.25-2-3.76v-.56h-4.77V78.09h4.77v-2.7q1.7,3.31,4.52,3.31,5.24,0,5.24-10.28,0-5.55-1.16-7.77t-5.42-4.89q-2.72-1.66-2.71-3.93,0-2,1.56-2c.86,0,1.34.87,1.45,2.59l.09,1h5.07V40Zm-20.15,0v9.73h1.9V67.92h-1.9V78.09h9.23V67.92h-2V49.77h2V40Zm-9.48,9.73c1.84,0,2.76,1.35,2.76,4.07q0,3.67-2.37,3.68h-1.14V49.77Zm-.75,18.15V61.7h1.2q4.52,0,6-2t1.46-8c0-4.64-.55-7.75-1.64-9.31S115.91,40,112.64,40H105v9.73h1.83V67.92H105V78.09h9.22V67.92ZM87.18,40v9.73H89V67.92H87.18V78.09h15.67V62.37H98.08v5.55H94.35V60.5H99V56.6H94.35V49.77h3.73v5.49h4.41V40Z"/></g></svg>